<ttFont>
<head>
    <!-- Most of this table will be recalculated by the compiler -->
    <tableVersion value="1.0"/>
    <fontRevision value="5.0"/>
    <checkSumAdjustment value="0xa7e85e58"/>
    <magicNumber value="0x5f0f3cf5"/>
    <flags value="00000000 00001011"/>
    <unitsPerEm value="2048"/>
    <created value="Sun May 15 08:57:39 2005"/>
    <modified value="Fri Apr 15 06:48:36 2011"/>
    <xMin value="-199"/>
    <yMin value="-1047"/>
    <xMax value="7921"/>
    <yMax value="2289"/>
    <macStyle value="00000000 00000000"/>
    <lowestRecPPEM value="8"/>
    <fontDirectionHint value="2"/>
    <indexToLocFormat value="0"/>
    <glyphDataFormat value="0"/>
  </head>
    <TTGlyph name=".notdef" xMin="142" yMin="226" xMax="842" yMax="1588">
      <contour>
        <pt x="142" y="226" on="1"/>
        <pt x="142" y="1588" on="1"/>
        <pt x="842" y="1588" on="1"/>
        <pt x="842" y="226" on="1"/>
      </contour>
      <contour>
        <pt x="284" y="368" on="1"/>
        <pt x="700" y="368" on="1"/>
        <pt x="700" y="1447" on="1"/>
        <pt x="284" y="1447" on="1"/>
      </contour>
    </TTGlyph>
    <TTGlyph name=".null" xMin="142" yMin="226" xMax="842" yMax="1588">
      <contour>
        <pt x="142" y="226" on="1"/>
        <pt x="142" y="1588" on="1"/>
        <pt x="842" y="1588" on="1"/>
        <pt x="842" y="226" on="1"/>
      </contour>
      <contour>
        <pt x="284" y="368" on="1"/>
        <pt x="700" y="368" on="1"/>
        <pt x="700" y="1447" on="1"/>
        <pt x="284" y="1447" on="1"/>
      </contour>
    </TTGlyph>
    <TTGlyph name="afii57381" xMin="142" yMin="226" xMax="842" yMax="1588">
      <contour>
        <pt x="142" y="226" on="1"/>
        <pt x="142" y="1588" on="1"/>
        <pt x="842" y="1588" on="1"/>
        <pt x="842" y="226" on="1"/>
      </contour>
      <contour>
        <pt x="284" y="368" on="1"/>
        <pt x="700" y="368" on="1"/>
        <pt x="700" y="1447" on="1"/>
        <pt x="284" y="1447" on="1"/>
      </contour>
    </TTGlyph>
    <TTGlyph name="afii57388" xMin="142" yMin="226" xMax="842" yMax="1588">
      <contour>
        <pt x="142" y="226" on="1"/>
        <pt x="142" y="1588" on="1"/>
        <pt x="842" y="1588" on="1"/>
        <pt x="842" y="226" on="1"/>
      </contour>
      <contour>
        <pt x="284" y="368" on="1"/>
        <pt x="700" y="368" on="1"/>
        <pt x="700" y="1447" on="1"/>
        <pt x="284" y="1447" on="1"/>
      </contour>
    </TTGlyph>
    <TTGlyph name="afii57396" xMin="142" yMin="226" xMax="842" yMax="1588">
      <contour>
        <pt x="142" y="226" on="1"/>
        <pt x="142" y="1588" on="1"/>
        <pt x="842" y="1588" on="1"/>
        <pt x="842" y="226" on="1"/>
      </contour>
      <contour>
        <pt x="284" y="368" on="1"/>
        <pt x="700" y="368" on="1"/>
        <pt x="700" y="1447" on="1"/>
        <pt x="284" y="1447" on="1"/>
      </contour>
    </TTGlyph>
    <TTGlyph name="afii57397" xMin="142" yMin="226" xMax="842" yMax="1588">
      <contour>
        <pt x="142" y="226" on="1"/>
        <pt x="142" y="1588" on="1"/>
        <pt x="842" y="1588" on="1"/>
        <pt x="842" y="226" on="1"/>
      </contour>
      <contour>
        <pt x="284" y="368" on="1"/>
        <pt x="700" y="368" on="1"/>
        <pt x="700" y="1447" on="1"/>
        <pt x="284" y="1447" on="1"/>
      </contour>
    </TTGlyph>
    <TTGlyph name="afii57398" xMin="142" yMin="226" xMax="842" yMax="1588">
      <contour>
        <pt x="142" y="226" on="1"/>
        <pt x="142" y="1588" on="1"/>
        <pt x="842" y="1588" on="1"/>
        <pt x="842" y="226" on="1"/>
      </contour>
      <contour>
        <pt x="284" y="368" on="1"/>
        <pt x="700" y="368" on="1"/>
        <pt x="700" y="1447" on="1"/>
        <pt x="284" y="1447" on="1"/>
      </contour>
    </TTGlyph>
    <TTGlyph name="afii57403" xMin="142" yMin="226" xMax="842" yMax="1588">
      <contour>
        <pt x="142" y="226" on="1"/>
        <pt x="142" y="1588" on="1"/>
        <pt x="842" y="1588" on="1"/>
        <pt x="842" y="226" on="1"/>
      </contour>
      <contour>
        <pt x="284" y="368" on="1"/>
        <pt x="700" y="368" on="1"/>
        <pt x="700" y="1447" on="1"/>
        <pt x="284" y="1447" on="1"/>
      </contour>
    </TTGlyph>
    <TTGlyph name="afii57407" xMin="142" yMin="226" xMax="842" yMax="1588">
      <contour>
        <pt x="142" y="226" on="1"/>
        <pt x="142" y="1588" on="1"/>
        <pt x="842" y="1588" on="1"/>
        <pt x="842" y="226" on="1"/>
      </contour>
      <contour>
        <pt x="284" y="368" on="1"/>
        <pt x="700" y="368" on="1"/>
        <pt x="700" y="1447" on="1"/>
        <pt x="284" y="1447" on="1"/>
      </contour>
    </TTGlyph>
    <TTGlyph name="afii57440" xMin="142" yMin="226" xMax="842" yMax="1588">
      <contour>
        <pt x="142" y="226" on="1"/>
        <pt x="142" y="1588" on="1"/>
        <pt x="842" y="1588" on="1"/>
        <pt x="842" y="226" on="1"/>
      </contour>
      <contour>
        <pt x="284" y="368" on="1"/>
        <pt x="700" y="368" on="1"/>
        <pt x="700" y="1447" on="1"/>
        <pt x="284" y="1447" on="1"/>
      </contour>
    </TTGlyph>
    <TTGlyph name="afii57451" xMin="142" yMin="226" xMax="842" yMax="1588">
      <contour>
        <pt x="142" y="226" on="1"/>
        <pt x="142" y="1588" on="1"/>
        <pt x="842" y="1588" on="1"/>
        <pt x="842" y="226" on="1"/>
      </contour>
      <contour>
        <pt x="284" y="368" on="1"/>
        <pt x="700" y="368" on="1"/>
        <pt x="700" y="1447" on="1"/>
        <pt x="284" y="1447" on="1"/>
      </contour>
    </TTGlyph>
    <TTGlyph name="afii57452" xMin="142" yMin="226" xMax="842" yMax="1588">
      <contour>
        <pt x="142" y="226" on="1"/>
        <pt x="142" y="1588" on="1"/>
        <pt x="842" y="1588" on="1"/>
        <pt x="842" y="226" on="1"/>
      </contour>
      <contour>
        <pt x="284" y="368" on="1"/>
        <pt x="700" y="368" on="1"/>
        <pt x="700" y="1447" on="1"/>
        <pt x="284" y="1447" on="1"/>
      </contour>
    </TTGlyph>
    <TTGlyph name="afii57453" xMin="142" yMin="226" xMax="842" yMax="1588">
      <contour>
        <pt x="142" y="226" on="1"/>
        <pt x="142" y="1588" on="1"/>
        <pt x="842" y="1588" on="1"/>
        <pt x="842" y="226" on="1"/>
      </contour>
      <contour>
        <pt x="284" y="368" on="1"/>
        <pt x="700" y="368" on="1"/>
        <pt x="700" y="1447" on="1"/>
        <pt x="284" y="1447" on="1"/>
      </contour>
    </TTGlyph>
    <TTGlyph name="afii57454" xMin="142" yMin="226" xMax="842" yMax="1588">
      <contour>
        <pt x="142" y="226" on="1"/>
        <pt x="142" y="1588" on="1"/>
        <pt x="842" y="1588" on="1"/>
        <pt x="842" y="226" on="1"/>
      </contour>
      <contour>
        <pt x="284" y="368" on="1"/>
        <pt x="700" y="368" on="1"/>
        <pt x="700" y="1447" on="1"/>
        <pt x="284" y="1447" on="1"/>
      </contour>
    </TTGlyph>
    <TTGlyph name="afii57455" xMin="142" yMin="226" xMax="842" yMax="1588">
      <contour>
        <pt x="142" y="226" on="1"/>
        <pt x="142" y="1588" on="1"/>
        <pt x="842" y="1588" on="1"/>
        <pt x="842" y="226" on="1"/>
      </contour>
      <contour>
        <pt x="284" y="368" on="1"/>
        <pt x="700" y="368" on="1"/>
        <pt x="700" y="1447" on="1"/>
        <pt x="284" y="1447" on="1"/>
      </contour>
    </TTGlyph>
    <TTGlyph name="afii57456" xMin="142" yMin="226" xMax="842" yMax="1588">
      <contour>
        <pt x="142" y="226" on="1"/>
        <pt x="142" y="1588" on="1"/>
        <pt x="842" y="1588" on="1"/>
        <pt x="842" y="226" on="1"/>
      </contour>
      <contour>
        <pt x="284" y="368" on="1"/>
        <pt x="700" y="368" on="1"/>
        <pt x="700" y="1447" on="1"/>
        <pt x="284" y="1447" on="1"/>
      </contour>
    </TTGlyph>
    <TTGlyph name="afii57457" xMin="142" yMin="226" xMax="842" yMax="1588">
      <contour>
        <pt x="142" y="226" on="1"/>
        <pt x="142" y="1588" on="1"/>
        <pt x="842" y="1588" on="1"/>
        <pt x="842" y="226" on="1"/>
      </contour>
      <contour>
        <pt x="284" y="368" on="1"/>
        <pt x="700" y="368" on="1"/>
        <pt x="700" y="1447" on="1"/>
        <pt x="284" y="1447" on="1"/>
      </contour>
    </TTGlyph>
    <TTGlyph name="afii57458" xMin="142" yMin="226" xMax="842" yMax="1588">
      <contour>
        <pt x="142" y="226" on="1"/>
        <pt x="142" y="1588" on="1"/>
        <pt x="842" y="1588" on="1"/>
        <pt x="842" y="226" on="1"/>
      </contour>
      <contour>
        <pt x="284" y="368" on="1"/>
        <pt x="700" y="368" on="1"/>
        <pt x="700" y="1447" on="1"/>
        <pt x="284" y="1447" on="1"/>
      </contour>
    </TTGlyph>
    <TTGlyph name="afii57505" xMin="142" yMin="226" xMax="842" yMax="1588">
      <contour>
        <pt x="142" y="226" on="1"/>
        <pt x="142" y="1588" on="1"/>
        <pt x="842" y="1588" on="1"/>
        <pt x="842" y="226" on="1"/>
      </contour>
      <contour>
        <pt x="284" y="368" on="1"/>
        <pt x="700" y="368" on="1"/>
        <pt x="700" y="1447" on="1"/>
        <pt x="284" y="1447" on="1"/>
      </contour>
    </TTGlyph>
    <TTGlyph name="afii57506" xMin="142" yMin="226" xMax="842" yMax="1588">
      <contour>
        <pt x="142" y="226" on="1"/>
        <pt x="142" y="1588" on="1"/>
        <pt x="842" y="1588" on="1"/>
        <pt x="842" y="226" on="1"/>
      </contour>
      <contour>
        <pt x="284" y="368" on="1"/>
        <pt x="700" y="368" on="1"/>
        <pt x="700" y="1447" on="1"/>
        <pt x="284" y="1447" on="1"/>
      </contour>
    </TTGlyph>
    <TTGlyph name="afii57507" xMin="142" yMin="226" xMax="842" yMax="1588">
      <contour>
        <pt x="142" y="226" on="1"/>
        <pt x="142" y="1588" on="1"/>
        <pt x="842" y="1588" on="1"/>
        <pt x="842" y="226" on="1"/>
      </contour>
      <contour>
        <pt x="284" y="368" on="1"/>
        <pt x="700" y="368" on="1"/>
        <pt x="700" y="1447" on="1"/>
        <pt x="284" y="1447" on="1"/>
      </contour>
    </TTGlyph>
    <TTGlyph name="afii57508" xMin="142" yMin="226" xMax="842" yMax="1588">
      <contour>
        <pt x="142" y="226" on="1"/>
        <pt x="142" y="1588" on="1"/>
        <pt x="842" y="1588" on="1"/>
        <pt x="842" y="226" on="1"/>
      </contour>
      <contour>
        <pt x="284" y="368" on="1"/>
        <pt x="700" y="368" on="1"/>
        <pt x="700" y="1447" on="1"/>
        <pt x="284" y="1447" on="1"/>
      </contour>
    </TTGlyph>
    <TTGlyph name="afii57509" xMin="142" yMin="226" xMax="842" yMax="1588">
      <contour>
        <pt x="142" y="226" on="1"/>
        <pt x="142" y="1588" on="1"/>
        <pt x="842" y="1588" on="1"/>
        <pt x="842" y="226" on="1"/>
      </contour>
      <contour>
        <pt x="284" y="368" on="1"/>
        <pt x="700" y="368" on="1"/>
        <pt x="700" y="1447" on="1"/>
        <pt x="284" y="1447" on="1"/>
      </contour>
    </TTGlyph>
    <TTGlyph name="afii57511" xMin="142" yMin="226" xMax="842" yMax="1588">
      <contour>
        <pt x="142" y="226" on="1"/>
        <pt x="142" y="1588" on="1"/>
        <pt x="842" y="1588" on="1"/>
        <pt x="842" y="226" on="1"/>
      </contour>
      <contour>
        <pt x="284" y="368" on="1"/>
        <pt x="700" y="368" on="1"/>
        <pt x="700" y="1447" on="1"/>
        <pt x="284" y="1447" on="1"/>
      </contour>
    </TTGlyph>
    <TTGlyph name="afii57512" xMin="142" yMin="226" xMax="842" yMax="1588">
      <contour>
        <pt x="142" y="226" on="1"/>
        <pt x="142" y="1588" on="1"/>
        <pt x="842" y="1588" on="1"/>
        <pt x="842" y="226" on="1"/>
      </contour>
      <contour>
        <pt x="284" y="368" on="1"/>
        <pt x="700" y="368" on="1"/>
        <pt x="700" y="1447" on="1"/>
        <pt x="284" y="1447" on="1"/>
      </contour>
    </TTGlyph>
    <TTGlyph name="afii57513" xMin="142" yMin="226" xMax="842" yMax="1588">
      <contour>
        <pt x="142" y="226" on="1"/>
        <pt x="142" y="1588" on="1"/>
        <pt x="842" y="1588" on="1"/>
        <pt x="842" y="226" on="1"/>
      </contour>
      <contour>
        <pt x="284" y="368" on="1"/>
        <pt x="700" y="368" on="1"/>
        <pt x="700" y="1447" on="1"/>
        <pt x="284" y="1447" on="1"/>
      </contour>
    </TTGlyph>
    <TTGlyph name="afii57514" xMin="142" yMin="226" xMax="842" yMax="1588">
      <contour>
        <pt x="142" y="226" on="1"/>
        <pt x="142" y="1588" on="1"/>
        <pt x="842" y="1588" on="1"/>
        <pt x="842" y="226" on="1"/>
      </contour>
      <contour>
        <pt x="284" y="368" on="1"/>
        <pt x="700" y="368" on="1"/>
        <pt x="700" y="1447" on="1"/>
        <pt x="284" y="1447" on="1"/>
      </contour>
    </TTGlyph>
    <TTGlyph name="afii57519" xMin="142" yMin="226" xMax="842" yMax="1588">
      <contour>
        <pt x="142" y="226" on="1"/>
        <pt x="142" y="1588" on="1"/>
        <pt x="842" y="1588" on="1"/>
        <pt x="842" y="226" on="1"/>
      </contour>
      <contour>
        <pt x="284" y="368" on="1"/>
        <pt x="700" y="368" on="1"/>
        <pt x="700" y="1447" on="1"/>
        <pt x="284" y="1447" on="1"/>
      </contour>
    </TTGlyph>
    <TTGlyph name="afii57534" xMin="142" yMin="226" xMax="842" yMax="1588">
      <contour>
        <pt x="142" y="226" on="1"/>
        <pt x="142" y="1588" on="1"/>
        <pt x="842" y="1588" on="1"/>
        <pt x="842" y="226" on="1"/>
      </contour>
      <contour>
        <pt x="284" y="368" on="1"/>
        <pt x="700" y="368" on="1"/>
        <pt x="700" y="1447" on="1"/>
        <pt x="284" y="1447" on="1"/>
      </contour>
    </TTGlyph>
    <TTGlyph name="afii63167" xMin="142" yMin="226" xMax="842" yMax="1588">
      <contour>
        <pt x="142" y="226" on="1"/>
        <pt x="142" y="1588" on="1"/>
        <pt x="842" y="1588" on="1"/>
        <pt x="842" y="226" on="1"/>
      </contour>
      <contour>
        <pt x="284" y="368" on="1"/>
        <pt x="700" y="368" on="1"/>
        <pt x="700" y="1447" on="1"/>
        <pt x="284" y="1447" on="1"/>
      </contour>
    </TTGlyph>
    <TTGlyph name="alefmaksurainitial" xMin="142" yMin="226" xMax="842" yMax="1588">
      <contour>
        <pt x="142" y="226" on="1"/>
        <pt x="142" y="1588" on="1"/>
        <pt x="842" y="1588" on="1"/>
        <pt x="842" y="226" on="1"/>
      </contour>
      <contour>
        <pt x="284" y="368" on="1"/>
        <pt x="700" y="368" on="1"/>
        <pt x="700" y="1447" on="1"/>
        <pt x="284" y="1447" on="1"/>
      </contour>
    </TTGlyph>
    <TTGlyph name="alefwaslafinalarabic" xMin="142" yMin="226" xMax="842" yMax="1588">
      <contour>
        <pt x="142" y="226" on="1"/>
        <pt x="142" y="1588" on="1"/>
        <pt x="842" y="1588" on="1"/>
        <pt x="842" y="226" on="1"/>
      </contour>
      <contour>
        <pt x="284" y="368" on="1"/>
        <pt x="700" y="368" on="1"/>
        <pt x="700" y="1447" on="1"/>
        <pt x="284" y="1447" on="1"/>
      </contour>
    </TTGlyph>
    <TTGlyph name="ampersand" xMin="142" yMin="226" xMax="842" yMax="1588">
      <contour>
        <pt x="142" y="226" on="1"/>
        <pt x="142" y="1588" on="1"/>
        <pt x="842" y="1588" on="1"/>
        <pt x="842" y="226" on="1"/>
      </contour>
      <contour>
        <pt x="284" y="368" on="1"/>
        <pt x="700" y="368" on="1"/>
        <pt x="700" y="1447" on="1"/>
        <pt x="284" y="1447" on="1"/>
      </contour>
    </TTGlyph>
    <TTGlyph name="asterisk" xMin="142" yMin="226" xMax="842" yMax="1588">
      <contour>
        <pt x="142" y="226" on="1"/>
        <pt x="142" y="1588" on="1"/>
        <pt x="842" y="1588" on="1"/>
        <pt x="842" y="226" on="1"/>
      </contour>
      <contour>
        <pt x="284" y="368" on="1"/>
        <pt x="700" y="368" on="1"/>
        <pt x="700" y="1447" on="1"/>
        <pt x="284" y="1447" on="1"/>
      </contour>
    </TTGlyph>
    <TTGlyph name="behmeemisolatedarabic" xMin="142" yMin="226" xMax="842" yMax="1588">
      <contour>
        <pt x="142" y="226" on="1"/>
        <pt x="142" y="1588" on="1"/>
        <pt x="842" y="1588" on="1"/>
        <pt x="842" y="226" on="1"/>
      </contour>
      <contour>
        <pt x="284" y="368" on="1"/>
        <pt x="700" y="368" on="1"/>
        <pt x="700" y="1447" on="1"/>
        <pt x="284" y="1447" on="1"/>
      </contour>
    </TTGlyph>
    <TTGlyph name="behnoonfinalarabic" xMin="142" yMin="226" xMax="842" yMax="1588">
      <contour>
        <pt x="142" y="226" on="1"/>
        <pt x="142" y="1588" on="1"/>
        <pt x="842" y="1588" on="1"/>
        <pt x="842" y="226" on="1"/>
      </contour>
      <contour>
        <pt x="284" y="368" on="1"/>
        <pt x="700" y="368" on="1"/>
        <pt x="700" y="1447" on="1"/>
        <pt x="284" y="1447" on="1"/>
      </contour>
    </TTGlyph>
    <TTGlyph name="colon" xMin="142" yMin="226" xMax="842" yMax="1588">
      <contour>
        <pt x="142" y="226" on="1"/>
        <pt x="142" y="1588" on="1"/>
        <pt x="842" y="1588" on="1"/>
        <pt x="842" y="226" on="1"/>
      </contour>
      <contour>
        <pt x="284" y="368" on="1"/>
        <pt x="700" y="368" on="1"/>
        <pt x="700" y="1447" on="1"/>
        <pt x="284" y="1447" on="1"/>
      </contour>
    </TTGlyph>
    <TTGlyph name="dagger" xMin="142" yMin="226" xMax="842" yMax="1588">
      <contour>
        <pt x="142" y="226" on="1"/>
        <pt x="142" y="1588" on="1"/>
        <pt x="842" y="1588" on="1"/>
        <pt x="842" y="226" on="1"/>
      </contour>
      <contour>
        <pt x="284" y="368" on="1"/>
        <pt x="700" y="368" on="1"/>
        <pt x="700" y="1447" on="1"/>
        <pt x="284" y="1447" on="1"/>
      </contour>
    </TTGlyph>
    <TTGlyph name="dalringfinal" xMin="142" yMin="226" xMax="842" yMax="1588">
      <contour>
        <pt x="142" y="226" on="1"/>
        <pt x="142" y="1588" on="1"/>
        <pt x="842" y="1588" on="1"/>
        <pt x="842" y="226" on="1"/>
      </contour>
      <contour>
        <pt x="284" y="368" on="1"/>
        <pt x="700" y="368" on="1"/>
        <pt x="700" y="1447" on="1"/>
        <pt x="284" y="1447" on="1"/>
      </contour>
    </TTGlyph>
    <TTGlyph name="ddalfinalarabic" xMin="142" yMin="226" xMax="842" yMax="1588">
      <contour>
        <pt x="142" y="226" on="1"/>
        <pt x="142" y="1588" on="1"/>
        <pt x="842" y="1588" on="1"/>
        <pt x="842" y="226" on="1"/>
      </contour>
      <contour>
        <pt x="284" y="368" on="1"/>
        <pt x="700" y="368" on="1"/>
        <pt x="700" y="1447" on="1"/>
        <pt x="284" y="1447" on="1"/>
      </contour>
    </TTGlyph>
    <TTGlyph name="divide" xMin="142" yMin="226" xMax="842" yMax="1588">
      <contour>
        <pt x="142" y="226" on="1"/>
        <pt x="142" y="1588" on="1"/>
        <pt x="842" y="1588" on="1"/>
        <pt x="842" y="226" on="1"/>
      </contour>
      <contour>
        <pt x="284" y="368" on="1"/>
        <pt x="700" y="368" on="1"/>
        <pt x="700" y="1447" on="1"/>
        <pt x="284" y="1447" on="1"/>
      </contour>
    </TTGlyph>
    <TTGlyph name="dollar" xMin="142" yMin="226" xMax="842" yMax="1588">
      <contour>
        <pt x="142" y="226" on="1"/>
        <pt x="142" y="1588" on="1"/>
        <pt x="842" y="1588" on="1"/>
        <pt x="842" y="226" on="1"/>
      </contour>
      <contour>
        <pt x="284" y="368" on="1"/>
        <pt x="700" y="368" on="1"/>
        <pt x="700" y="1447" on="1"/>
        <pt x="284" y="1447" on="1"/>
      </contour>
    </TTGlyph>
    <TTGlyph name="dotlessyehfinalarabic" xMin="142" yMin="226" xMax="842" yMax="1588">
      <contour>
        <pt x="142" y="226" on="1"/>
        <pt x="142" y="1588" on="1"/>
        <pt x="842" y="1588" on="1"/>
        <pt x="842" y="226" on="1"/>
      </contour>
      <contour>
        <pt x="284" y="368" on="1"/>
        <pt x="700" y="368" on="1"/>
        <pt x="700" y="1447" on="1"/>
        <pt x="284" y="1447" on="1"/>
      </contour>
    </TTGlyph>
    <TTGlyph name="dotlessyehinitialarabic" xMin="142" yMin="226" xMax="842" yMax="1588">
      <contour>
        <pt x="142" y="226" on="1"/>
        <pt x="142" y="1588" on="1"/>
        <pt x="842" y="1588" on="1"/>
        <pt x="842" y="226" on="1"/>
      </contour>
      <contour>
        <pt x="284" y="368" on="1"/>
        <pt x="700" y="368" on="1"/>
        <pt x="700" y="1447" on="1"/>
        <pt x="284" y="1447" on="1"/>
      </contour>
    </TTGlyph>
    <TTGlyph name="dotlessyehmedialarabic" xMin="142" yMin="226" xMax="842" yMax="1588">
      <contour>
        <pt x="142" y="226" on="1"/>
        <pt x="142" y="1588" on="1"/>
        <pt x="842" y="1588" on="1"/>
        <pt x="842" y="226" on="1"/>
      </contour>
      <contour>
        <pt x="284" y="368" on="1"/>
        <pt x="700" y="368" on="1"/>
        <pt x="700" y="1447" on="1"/>
        <pt x="284" y="1447" on="1"/>
      </contour>
    </TTGlyph>
    <TTGlyph name="elefmaksuramedial" xMin="142" yMin="226" xMax="842" yMax="1588">
      <contour>
        <pt x="142" y="226" on="1"/>
        <pt x="142" y="1588" on="1"/>
        <pt x="842" y="1588" on="1"/>
        <pt x="842" y="226" on="1"/>
      </contour>
      <contour>
        <pt x="284" y="368" on="1"/>
        <pt x="700" y="368" on="1"/>
        <pt x="700" y="1447" on="1"/>
        <pt x="284" y="1447" on="1"/>
      </contour>
    </TTGlyph>
    <TTGlyph name="ellipsis" xMin="142" yMin="226" xMax="842" yMax="1588">
      <contour>
        <pt x="142" y="226" on="1"/>
        <pt x="142" y="1588" on="1"/>
        <pt x="842" y="1588" on="1"/>
        <pt x="842" y="226" on="1"/>
      </contour>
      <contour>
        <pt x="284" y="368" on="1"/>
        <pt x="700" y="368" on="1"/>
        <pt x="700" y="1447" on="1"/>
        <pt x="284" y="1447" on="1"/>
      </contour>
    </TTGlyph>
    <TTGlyph name="emdash" xMin="348" yMin="-969" xMax="2397" yMax="1911">
      <contour>
        <pt x="2229" y="1452" on="1"/>
        <pt x="2229" y="1402" on="0"/>
        <pt x="1881" y="1090" on="1"/>
        <pt x="1859" y="1090" on="1"/>
        <pt x="1853" y="1094" on="0"/>
        <pt x="1843" y="1104" on="0"/>
        <pt x="1843" y="1120" on="1"/>
        <pt x="1843" y="1171" on="0"/>
        <pt x="2007" y="1321" on="1"/>
        <pt x="2159" y="1460" on="0"/>
        <pt x="2221" y="1488" on="1"/>
        <pt x="2221" y="1484" on="0"/>
        <pt x="2229" y="1467" on="0"/>
      </contour>
      <contour>
        <pt x="1735" y="644" on="1"/>
        <pt x="1735" y="609" on="0"/>
        <pt x="1699" y="537" on="0"/>
        <pt x="1681" y="537" on="1"/>
        <pt x="1662" y="537" on="0"/>
        <pt x="1637" y="570" on="1"/>
        <pt x="1613" y="601" on="0"/>
        <pt x="1613" y="618" on="1"/>
        <pt x="1613" y="652" on="0"/>
        <pt x="1656" y="721" on="0"/>
        <pt x="1674" y="721" on="1"/>
        <pt x="1691" y="721" on="0"/>
        <pt x="1735" y="663" on="0"/>
      </contour>
      <contour>
        <pt x="1052" y="1560" on="1"/>
        <pt x="1052" y="1509" on="0"/>
        <pt x="1021" y="1509" on="1"/>
        <pt x="1013" y="1509" on="0"/>
        <pt x="952" y="1550" on="0"/>
        <pt x="944" y="1550" on="1"/>
        <pt x="936" y="1550" on="0"/>
        <pt x="850" y="1452" on="1"/>
        <pt x="756" y="1344" on="0"/>
        <pt x="704" y="1315" on="1"/>
        <pt x="681" y="1315" on="1"/>
        <pt x="673" y="1316" on="0"/>
        <pt x="673" y="1340" on="1"/>
        <pt x="673" y="1355" on="0"/>
        <pt x="745" y="1442" on="1"/>
        <pt x="848" y="1567" on="0"/>
        <pt x="862" y="1586" on="1"/>
        <pt x="848" y="1619" on="0"/>
        <pt x="819" y="1657" on="1"/>
        <pt x="802" y="1680" on="0"/>
        <pt x="802" y="1709" on="1"/>
        <pt x="802" y="1765" on="0"/>
        <pt x="841" y="1835" on="1"/>
        <pt x="883" y="1911" on="0"/>
        <pt x="926" y="1911" on="1"/>
        <pt x="934" y="1911" on="0"/>
        <pt x="942" y="1907" on="1"/>
        <pt x="963" y="1872" on="0"/>
        <pt x="965" y="1821" on="1"/>
        <pt x="965" y="1774" on="0"/>
        <pt x="966" y="1727" on="1"/>
        <pt x="967" y="1706" on="0"/>
        <pt x="972" y="1690" on="1"/>
        <pt x="979" y="1666" on="0"/>
        <pt x="1018" y="1631" on="1"/>
        <pt x="1052" y="1601" on="0"/>
      </contour>
      <contour>
        <pt x="2397" y="371" on="1"/>
        <pt x="2391" y="334" on="0"/>
        <pt x="2373" y="282" on="1"/>
        <pt x="2285" y="170" on="0"/>
        <pt x="2144" y="101" on="1"/>
        <pt x="2011" y="34" on="0"/>
        <pt x="1894" y="34" on="1"/>
        <pt x="1831" y="34" on="0"/>
        <pt x="1727" y="127" on="0"/>
        <pt x="1728" y="127" on="1"/>
        <pt x="1721" y="127" on="0"/>
        <pt x="1697" y="103" on="1"/>
        <pt x="1668" y="75" on="0"/>
        <pt x="1658" y="68" on="1"/>
        <pt x="1590" y="25" on="0"/>
        <pt x="1502" y="25" on="1"/>
        <pt x="1427" y="25" on="0"/>
        <pt x="1353" y="86" on="1"/>
        <pt x="1306" y="125" on="0"/>
        <pt x="1230" y="220" on="1"/>
        <pt x="1152" y="319" on="0"/>
        <pt x="1115" y="352" on="1"/>
        <pt x="1098" y="352" on="1"/>
        <pt x="1095" y="338" on="0"/>
        <pt x="1096" y="224" on="1"/>
        <pt x="1096" y="140" on="0"/>
        <pt x="1043" y="37" on="0"/>
        <pt x="992" y="16" on="1"/>
        <pt x="975" y="10" on="0"/>
        <pt x="907" y="-4" on="1"/>
        <pt x="897" y="-5" on="0"/>
        <pt x="885" y="-5" on="1"/>
        <pt x="871" y="-5" on="0"/>
        <pt x="815" y="1" on="0"/>
        <pt x="801" y="1" on="1"/>
        <pt x="762" y="1" on="0"/>
        <pt x="739" y="-19" on="1"/>
        <pt x="730" y="-27" on="0"/>
        <pt x="718" y="-86" on="1"/>
        <pt x="700" y="-174" on="0"/>
        <pt x="696" y="-186" on="1"/>
        <pt x="696" y="-186" on="0"/>
        <pt x="679" y="-200" on="0"/>
        <pt x="666" y="-200" on="1"/>
        <pt x="601" y="-200" on="0"/>
        <pt x="570" y="-52" on="1"/>
        <pt x="565" y="-27" on="0"/>
        <pt x="567" y="18" on="1"/>
        <pt x="570" y="75" on="0"/>
        <pt x="569" y="89" on="1"/>
        <pt x="559" y="116" on="0"/>
        <pt x="538" y="116" on="1"/>
        <pt x="521" y="116" on="0"/>
        <pt x="436" y="61" on="0"/>
        <pt x="431" y="48" on="1"/>
        <pt x="419" y="16" on="0"/>
        <pt x="422" y="-10" on="1"/>
        <pt x="511" y="-850" on="1"/>
        <pt x="511" y="-891" on="0"/>
        <pt x="496" y="-956" on="1"/>
        <pt x="492" y="-957" on="0"/>
        <pt x="480" y="-969" on="1"/>
        <pt x="472" y="-956" on="0"/>
        <pt x="459" y="-934" on="1"/>
        <pt x="362" y="-136" on="0"/>
        <pt x="362" y="-16" on="1"/>
        <pt x="362" y="98" on="0"/>
        <pt x="463" y="263" on="0"/>
        <pt x="547" y="283" on="1"/>
        <pt x="556" y="285" on="0"/>
        <pt x="601" y="321" on="0"/>
        <pt x="609" y="321" on="1"/>
        <pt x="617" y="321" on="0"/>
        <pt x="656" y="272" on="1"/>
        <pt x="701" y="215" on="0"/>
        <pt x="718" y="201" on="1"/>
        <pt x="758" y="168" on="0"/>
        <pt x="852" y="168" on="1"/>
        <pt x="1038" y="168" on="0"/>
        <pt x="1038" y="239" on="1"/>
        <pt x="1038" y="271" on="0"/>
        <pt x="982" y="384" on="1"/>
        <pt x="936" y="478" on="0"/>
        <pt x="922" y="496" on="1"/>
        <pt x="885" y="551" on="0"/>
        <pt x="796" y="667" on="1"/>
        <pt x="730" y="741" on="0"/>
        <pt x="718" y="762" on="1"/>
        <pt x="687" y="810" on="0"/>
        <pt x="687" y="869" on="1"/>
        <pt x="687" y="918" on="0"/>
        <pt x="712" y="993" on="1"/>
        <pt x="742" y="1081" on="0"/>
        <pt x="790" y="1135" on="1"/>
        <pt x="846" y="1203" on="0"/>
        <pt x="925" y="1259" on="1"/>
        <pt x="1008" y="1318" on="0"/>
        <pt x="1251" y="1472" on="1"/>
        <pt x="1534" y="1652" on="0"/>
        <pt x="1566" y="1652" on="1"/>
        <pt x="1607" y="1652" on="0"/>
        <pt x="1607" y="1596" on="1"/>
        <pt x="1607" y="1534" on="0"/>
        <pt x="1445" y="1434" on="1"/>
        <pt x="1421" y="1420" on="0"/>
        <pt x="1239" y="1321" on="1"/>
        <pt x="1152" y="1275" on="0"/>
        <pt x="982" y="1144" on="1"/>
        <pt x="920" y="1100" on="0"/>
        <pt x="858" y="1056" on="1"/>
        <pt x="754" y="976" on="0"/>
        <pt x="754" y="936" on="1"/>
        <pt x="754" y="906" on="0"/>
        <pt x="865" y="802" on="1"/>
        <pt x="1016" y="659" on="0"/>
        <pt x="1030" y="644" on="1"/>
        <pt x="1143" y="499" on="0"/>
        <pt x="1375" y="241" on="1"/>
        <pt x="1388" y="229" on="0"/>
        <pt x="1428" y="215" on="1"/>
        <pt x="1503" y="188" on="0"/>
        <pt x="1542" y="188" on="1"/>
        <pt x="1607" y="188" on="0"/>
        <pt x="1641" y="206" on="1"/>
        <pt x="1703" y="238" on="0"/>
        <pt x="1750" y="341" on="1"/>
        <pt x="1775" y="341" on="1"/>
        <pt x="1774" y="332" on="0"/>
        <pt x="1774" y="323" on="1"/>
        <pt x="1774" y="263" on="0"/>
        <pt x="1816" y="226" on="1"/>
        <pt x="1851" y="195" on="0"/>
        <pt x="1896" y="195" on="1"/>
        <pt x="1909" y="195" on="0"/>
        <pt x="1920" y="198" on="1"/>
        <pt x="1933" y="208" on="0"/>
        <pt x="1933" y="233" on="1"/>
        <pt x="1933" y="244" on="0"/>
        <pt x="1925" y="303" on="0"/>
        <pt x="1925" y="318" on="1"/>
        <pt x="1925" y="329" on="0"/>
        <pt x="1926" y="338" on="1"/>
        <pt x="1945" y="455" on="0"/>
        <pt x="2008" y="582" on="1"/>
        <pt x="2051" y="669" on="0"/>
        <pt x="2120" y="669" on="1"/>
        <pt x="2168" y="669" on="0"/>
        <pt x="2209" y="628" on="1"/>
        <pt x="2230" y="607" on="0"/>
        <pt x="2282" y="533" on="1"/>
        <pt x="2282" y="496" on="1"/>
        <pt x="2280" y="496" on="0"/>
        <pt x="2269" y="485" on="0"/>
        <pt x="2260" y="485" on="1"/>
        <pt x="2250" y="485" on="0"/>
        <pt x="2166" y="537" on="0"/>
        <pt x="2158" y="537" on="1"/>
        <pt x="2097" y="537" on="0"/>
        <pt x="2005" y="437" on="1"/>
        <pt x="2003" y="424" on="0"/>
        <pt x="2003" y="411" on="1"/>
        <pt x="2003" y="347" on="0"/>
        <pt x="2049" y="291" on="1"/>
        <pt x="2092" y="239" on="0"/>
        <pt x="2131" y="239" on="1"/>
        <pt x="2166" y="239" on="0"/>
        <pt x="2266" y="306" on="1"/>
        <pt x="2365" y="370" on="0"/>
        <pt x="2361" y="371" on="1"/>
      </contour>
      <contour>
        <pt x="605" y="890" on="1"/>
        <pt x="605" y="830" on="0"/>
        <pt x="523" y="760" on="1"/>
        <pt x="453" y="700" on="0"/>
        <pt x="430" y="700" on="1"/>
        <pt x="422" y="700" on="0"/>
        <pt x="389" y="722" on="1"/>
        <pt x="389" y="750" on="1"/>
        <pt x="394" y="756" on="0"/>
        <pt x="457" y="820" on="1"/>
        <pt x="454" y="854" on="0"/>
        <pt x="430" y="854" on="1"/>
        <pt x="406" y="854" on="0"/>
        <pt x="366" y="813" on="1"/>
        <pt x="356" y="824" on="0"/>
        <pt x="349" y="824" on="1"/>
        <pt x="349" y="858" on="1"/>
        <pt x="348" y="875" on="0"/>
        <pt x="404" y="952" on="0"/>
        <pt x="425" y="963" on="1"/>
        <pt x="433" y="967" on="0"/>
        <pt x="470" y="967" on="1"/>
        <pt x="506" y="967" on="0"/>
        <pt x="550" y="947" on="1"/>
        <pt x="605" y="923" on="0"/>
      </contour>
      <contour>
        <pt x="916" y="1736" on="1"/>
        <pt x="916" y="1763" on="1"/>
        <pt x="883" y="1774" on="1"/>
        <pt x="883" y="1736" on="1"/>
      </contour>
    </TTGlyph>
    <TTGlyph name="endash" xMin="349" yMin="-969" xMax="1373" yMax="1911">
      <contour>
        <pt x="1289" y="1452" on="1"/>
        <pt x="1289" y="1402" on="0"/>
        <pt x="1115" y="1090" on="1"/>
        <pt x="1104" y="1090" on="1"/>
        <pt x="1101" y="1094" on="0"/>
        <pt x="1096" y="1104" on="0"/>
        <pt x="1096" y="1120" on="1"/>
        <pt x="1096" y="1171" on="0"/>
        <pt x="1178" y="1321" on="1"/>
        <pt x="1254" y="1460" on="0"/>
        <pt x="1285" y="1488" on="1"/>
        <pt x="1285" y="1484" on="0"/>
        <pt x="1289" y="1467" on="0"/>
      </contour>
      <contour>
        <pt x="1042" y="644" on="1"/>
        <pt x="1042" y="609" on="0"/>
        <pt x="1024" y="537" on="0"/>
        <pt x="1015" y="537" on="1"/>
        <pt x="1005" y="537" on="0"/>
        <pt x="993" y="570" on="1"/>
        <pt x="981" y="601" on="0"/>
        <pt x="981" y="618" on="1"/>
        <pt x="981" y="652" on="0"/>
        <pt x="1003" y="721" on="0"/>
        <pt x="1012" y="721" on="1"/>
        <pt x="1020" y="721" on="0"/>
        <pt x="1042" y="663" on="0"/>
      </contour>
      <contour>
        <pt x="700" y="1560" on="1"/>
        <pt x="700" y="1509" on="0"/>
        <pt x="685" y="1509" on="1"/>
        <pt x="681" y="1509" on="0"/>
        <pt x="650" y="1550" on="0"/>
        <pt x="646" y="1550" on="1"/>
        <pt x="643" y="1550" on="0"/>
        <pt x="600" y="1452" on="1"/>
        <pt x="552" y="1344" on="0"/>
        <pt x="526" y="1315" on="1"/>
        <pt x="515" y="1315" on="1"/>
        <pt x="511" y="1316" on="0"/>
        <pt x="511" y="1340" on="1"/>
        <pt x="511" y="1355" on="0"/>
        <pt x="547" y="1442" on="1"/>
        <pt x="599" y="1567" on="0"/>
        <pt x="606" y="1586" on="1"/>
        <pt x="598" y="1619" on="0"/>
        <pt x="584" y="1657" on="1"/>
        <pt x="575" y="1680" on="0"/>
        <pt x="575" y="1709" on="1"/>
        <pt x="575" y="1765" on="0"/>
        <pt x="595" y="1835" on="1"/>
        <pt x="616" y="1911" on="0"/>
        <pt x="637" y="1911" on="1"/>
        <pt x="641" y="1911" on="0"/>
        <pt x="646" y="1907" on="1"/>
        <pt x="656" y="1872" on="0"/>
        <pt x="657" y="1821" on="1"/>
        <pt x="657" y="1774" on="0"/>
        <pt x="658" y="1727" on="1"/>
        <pt x="658" y="1706" on="0"/>
        <pt x="660" y="1690" on="1"/>
        <pt x="664" y="1666" on="0"/>
        <pt x="684" y="1631" on="1"/>
        <pt x="700" y="1601" on="0"/>
      </contour>
      <contour>
        <pt x="1373" y="371" on="1"/>
        <pt x="1370" y="334" on="0"/>
        <pt x="1361" y="282" on="1"/>
        <pt x="1317" y="170" on="0"/>
        <pt x="1246" y="101" on="1"/>
        <pt x="1180" y="34" on="0"/>
        <pt x="1122" y="34" on="1"/>
        <pt x="1090" y="34" on="0"/>
        <pt x="1038" y="127" on="0"/>
        <pt x="1039" y="127" on="1"/>
        <pt x="1035" y="127" on="0"/>
        <pt x="1023" y="103" on="1"/>
        <pt x="1008" y="75" on="0"/>
        <pt x="1004" y="68" on="1"/>
        <pt x="970" y="25" on="0"/>
        <pt x="925" y="25" on="1"/>
        <pt x="888" y="25" on="0"/>
        <pt x="851" y="86" on="1"/>
        <pt x="828" y="125" on="0"/>
        <pt x="790" y="220" on="1"/>
        <pt x="751" y="319" on="0"/>
        <pt x="732" y="352" on="1"/>
        <pt x="723" y="352" on="1"/>
        <pt x="722" y="338" on="0"/>
        <pt x="722" y="224" on="1"/>
        <pt x="722" y="140" on="0"/>
        <pt x="696" y="37" on="0"/>
        <pt x="671" y="16" on="1"/>
        <pt x="662" y="10" on="0"/>
        <pt x="628" y="-4" on="1"/>
        <pt x="623" y="-5" on="0"/>
        <pt x="617" y="-5" on="1"/>
        <pt x="610" y="-5" on="0"/>
        <pt x="582" y="1" on="0"/>
        <pt x="575" y="1" on="1"/>
        <pt x="555" y="1" on="0"/>
        <pt x="544" y="-19" on="1"/>
        <pt x="539" y="-27" on="0"/>
        <pt x="533" y="-86" on="1"/>
        <pt x="524" y="-174" on="0"/>
        <pt x="522" y="-186" on="1"/>
        <pt x="522" y="-186" on="0"/>
        <pt x="514" y="-200" on="0"/>
        <pt x="508" y="-200" on="1"/>
        <pt x="475" y="-200" on="0"/>
        <pt x="460" y="-52" on="1"/>
        <pt x="457" y="-27" on="0"/>
        <pt x="458" y="18" on="1"/>
        <pt x="459" y="75" on="0"/>
        <pt x="459" y="89" on="1"/>
        <pt x="454" y="116" on="0"/>
        <pt x="443" y="116" on="1"/>
        <pt x="435" y="116" on="0"/>
        <pt x="393" y="61" on="0"/>
        <pt x="390" y="48" on="1"/>
        <pt x="384" y="16" on="0"/>
        <pt x="386" y="-10" on="1"/>
        <pt x="430" y="-850" on="1"/>
        <pt x="430" y="-891" on="0"/>
        <pt x="423" y="-956" on="1"/>
        <pt x="420" y="-957" on="0"/>
        <pt x="415" y="-969" on="1"/>
        <pt x="410" y="-956" on="0"/>
        <pt x="404" y="-934" on="1"/>
        <pt x="355" y="-136" on="0"/>
        <pt x="355" y="-16" on="1"/>
        <pt x="355" y="98" on="0"/>
        <pt x="406" y="263" on="0"/>
        <pt x="448" y="283" on="1"/>
        <pt x="453" y="285" on="0"/>
        <pt x="475" y="321" on="0"/>
        <pt x="479" y="321" on="1"/>
        <pt x="483" y="321" on="0"/>
        <pt x="502" y="272" on="1"/>
        <pt x="525" y="215" on="0"/>
        <pt x="534" y="201" on="1"/>
        <pt x="553" y="168" on="0"/>
        <pt x="601" y="168" on="1"/>
        <pt x="694" y="168" on="0"/>
        <pt x="694" y="239" on="1"/>
        <pt x="694" y="271" on="0"/>
        <pt x="665" y="384" on="1"/>
        <pt x="642" y="478" on="0"/>
        <pt x="635" y="496" on="1"/>
        <pt x="617" y="551" on="0"/>
        <pt x="572" y="667" on="1"/>
        <pt x="540" y="741" on="0"/>
        <pt x="533" y="762" on="1"/>
        <pt x="518" y="810" on="0"/>
        <pt x="518" y="869" on="1"/>
        <pt x="518" y="918" on="0"/>
        <pt x="531" y="993" on="1"/>
        <pt x="546" y="1081" on="0"/>
        <pt x="569" y="1135" on="1"/>
        <pt x="598" y="1203" on="0"/>
        <pt x="637" y="1259" on="1"/>
        <pt x="678" y="1318" on="0"/>
        <pt x="800" y="1472" on="1"/>
        <pt x="942" y="1652" on="0"/>
        <pt x="957" y="1652" on="1"/>
        <pt x="978" y="1652" on="0"/>
        <pt x="978" y="1596" on="1"/>
        <pt x="978" y="1534" on="0"/>
        <pt x="897" y="1434" on="1"/>
        <pt x="885" y="1420" on="0"/>
        <pt x="794" y="1321" on="1"/>
        <pt x="751" y="1275" on="0"/>
        <pt x="665" y="1144" on="1"/>
        <pt x="635" y="1100" on="0"/>
        <pt x="604" y="1056" on="1"/>
        <pt x="551" y="976" on="0"/>
        <pt x="551" y="936" on="1"/>
        <pt x="551" y="906" on="0"/>
        <pt x="607" y="802" on="1"/>
        <pt x="683" y="659" on="0"/>
        <pt x="690" y="644" on="1"/>
        <pt x="746" y="499" on="0"/>
        <pt x="862" y="241" on="1"/>
        <pt x="868" y="229" on="0"/>
        <pt x="888" y="215" on="1"/>
        <pt x="926" y="188" on="0"/>
        <pt x="946" y="188" on="1"/>
        <pt x="978" y="188" on="0"/>
        <pt x="995" y="206" on="1"/>
        <pt x="1026" y="238" on="0"/>
        <pt x="1050" y="341" on="1"/>
        <pt x="1062" y="341" on="1"/>
        <pt x="1062" y="332" on="0"/>
        <pt x="1062" y="323" on="1"/>
        <pt x="1062" y="263" on="0"/>
        <pt x="1082" y="226" on="1"/>
        <pt x="1100" y="195" on="0"/>
        <pt x="1123" y="195" on="1"/>
        <pt x="1129" y="195" on="0"/>
        <pt x="1135" y="198" on="1"/>
        <pt x="1141" y="208" on="0"/>
        <pt x="1141" y="233" on="1"/>
        <pt x="1141" y="244" on="0"/>
        <pt x="1137" y="303" on="0"/>
        <pt x="1137" y="318" on="1"/>
        <pt x="1137" y="329" on="0"/>
        <pt x="1137" y="338" on="1"/>
        <pt x="1147" y="455" on="0"/>
        <pt x="1178" y="582" on="1"/>
        <pt x="1200" y="669" on="0"/>
        <pt x="1235" y="669" on="1"/>
        <pt x="1258" y="669" on="0"/>
        <pt x="1279" y="628" on="1"/>
        <pt x="1289" y="607" on="0"/>
        <pt x="1316" y="533" on="1"/>
        <pt x="1316" y="496" on="1"/>
        <pt x="1315" y="496" on="0"/>
        <pt x="1309" y="485" on="0"/>
        <pt x="1304" y="485" on="1"/>
        <pt x="1300" y="485" on="0"/>
        <pt x="1258" y="537" on="0"/>
        <pt x="1253" y="537" on="1"/>
        <pt x="1223" y="537" on="0"/>
        <pt x="1177" y="437" on="1"/>
        <pt x="1176" y="424" on="0"/>
        <pt x="1176" y="411" on="1"/>
        <pt x="1176" y="347" on="0"/>
        <pt x="1199" y="291" on="1"/>
        <pt x="1220" y="239" on="0"/>
        <pt x="1240" y="239" on="1"/>
        <pt x="1257" y="239" on="0"/>
        <pt x="1308" y="306" on="1"/>
        <pt x="1357" y="370" on="0"/>
        <pt x="1355" y="371" on="1"/>
      </contour>
      <contour>
        <pt x="477" y="890" on="1"/>
        <pt x="477" y="830" on="0"/>
        <pt x="436" y="760" on="1"/>
        <pt x="401" y="700" on="0"/>
        <pt x="389" y="700" on="1"/>
        <pt x="385" y="700" on="0"/>
        <pt x="369" y="722" on="1"/>
        <pt x="369" y="750" on="1"/>
        <pt x="371" y="756" on="0"/>
        <pt x="403" y="820" on="1"/>
        <pt x="402" y="854" on="0"/>
        <pt x="389" y="854" on="1"/>
        <pt x="378" y="854" on="0"/>
        <pt x="357" y="813" on="1"/>
        <pt x="352" y="824" on="0"/>
        <pt x="349" y="824" on="1"/>
        <pt x="349" y="858" on="1"/>
        <pt x="349" y="875" on="0"/>
        <pt x="376" y="952" on="0"/>
        <pt x="387" y="963" on="1"/>
        <pt x="391" y="967" on="0"/>
        <pt x="409" y="967" on="1"/>
        <pt x="427" y="967" on="0"/>
        <pt x="449" y="947" on="1"/>
        <pt x="477" y="923" on="0"/>
      </contour>
      <contour>
        <pt x="632" y="1736" on="1"/>
        <pt x="632" y="1763" on="1"/>
        <pt x="616" y="1774" on="1"/>
        <pt x="616" y="1736" on="1"/>
      </contour>
    </TTGlyph>
    <TTGlyph name="equal" xMin="142" yMin="226" xMax="842" yMax="1588">
      <contour>
        <pt x="142" y="226" on="1"/>
        <pt x="142" y="1588" on="1"/>
        <pt x="842" y="1588" on="1"/>
        <pt x="842" y="226" on="1"/>
      </contour>
      <contour>
        <pt x="284" y="368" on="1"/>
        <pt x="700" y="368" on="1"/>
        <pt x="700" y="1447" on="1"/>
        <pt x="284" y="1447" on="1"/>
      </contour>
    </TTGlyph>
    <TTGlyph name="exclam" xMin="142" yMin="226" xMax="842" yMax="1588">
      <contour>
        <pt x="142" y="226" on="1"/>
        <pt x="142" y="1588" on="1"/>
        <pt x="842" y="1588" on="1"/>
        <pt x="842" y="226" on="1"/>
      </contour>
      <contour>
        <pt x="284" y="368" on="1"/>
        <pt x="700" y="368" on="1"/>
        <pt x="700" y="1447" on="1"/>
        <pt x="284" y="1447" on="1"/>
      </contour>
    </TTGlyph>
    <TTGlyph name="figuredash" xMin="349" yMin="-969" xMax="3450" yMax="1911">
      <contour>
        <pt x="3195" y="1452" on="1"/>
        <pt x="3195" y="1402" on="0"/>
        <pt x="2669" y="1090" on="1"/>
        <pt x="2635" y="1090" on="1"/>
        <pt x="2627" y="1094" on="0"/>
        <pt x="2612" y="1104" on="0"/>
        <pt x="2612" y="1120" on="1"/>
        <pt x="2612" y="1171" on="0"/>
        <pt x="2860" y="1321" on="1"/>
        <pt x="3089" y="1460" on="0"/>
        <pt x="3183" y="1488" on="1"/>
        <pt x="3183" y="1484" on="0"/>
        <pt x="3195" y="1467" on="0"/>
      </contour>
      <contour>
        <pt x="2448" y="644" on="1"/>
        <pt x="2448" y="609" on="0"/>
        <pt x="2394" y="537" on="0"/>
        <pt x="2366" y="537" on="1"/>
        <pt x="2337" y="537" on="0"/>
        <pt x="2299" y="570" on="1"/>
        <pt x="2263" y="601" on="0"/>
        <pt x="2263" y="618" on="1"/>
        <pt x="2263" y="652" on="0"/>
        <pt x="2329" y="721" on="0"/>
        <pt x="2356" y="721" on="1"/>
        <pt x="2381" y="721" on="0"/>
        <pt x="2448" y="663" on="0"/>
      </contour>
      <contour>
        <pt x="1414" y="1560" on="1"/>
        <pt x="1414" y="1509" on="0"/>
        <pt x="1367" y="1509" on="1"/>
        <pt x="1355" y="1509" on="0"/>
        <pt x="1262" y="1550" on="0"/>
        <pt x="1250" y="1550" on="1"/>
        <pt x="1239" y="1550" on="0"/>
        <pt x="1109" y="1452" on="1"/>
        <pt x="966" y="1344" on="0"/>
        <pt x="887" y="1315" on="1"/>
        <pt x="853" y="1315" on="1"/>
        <pt x="841" y="1316" on="0"/>
        <pt x="841" y="1340" on="1"/>
        <pt x="841" y="1355" on="0"/>
        <pt x="949" y="1442" on="1"/>
        <pt x="1106" y="1567" on="0"/>
        <pt x="1127" y="1586" on="1"/>
        <pt x="1105" y="1619" on="0"/>
        <pt x="1061" y="1657" on="1"/>
        <pt x="1035" y="1680" on="0"/>
        <pt x="1035" y="1709" on="1"/>
        <pt x="1035" y="1765" on="0"/>
        <pt x="1094" y="1835" on="1"/>
        <pt x="1158" y="1911" on="0"/>
        <pt x="1223" y="1911" on="1"/>
        <pt x="1235" y="1911" on="0"/>
        <pt x="1248" y="1907" on="1"/>
        <pt x="1280" y="1872" on="0"/>
        <pt x="1283" y="1821" on="1"/>
        <pt x="1283" y="1774" on="0"/>
        <pt x="1284" y="1727" on="1"/>
        <pt x="1286" y="1706" on="0"/>
        <pt x="1293" y="1690" on="1"/>
        <pt x="1303" y="1666" on="0"/>
        <pt x="1363" y="1631" on="1"/>
        <pt x="1414" y="1601" on="0"/>
      </contour>
      <contour>
        <pt x="3450" y="371" on="1"/>
        <pt x="3441" y="334" on="0"/>
        <pt x="3414" y="282" on="1"/>
        <pt x="3281" y="170" on="0"/>
        <pt x="3067" y="101" on="1"/>
        <pt x="2866" y="34" on="0"/>
        <pt x="2689" y="34" on="1"/>
        <pt x="2593" y="34" on="0"/>
        <pt x="2436" y="127" on="0"/>
        <pt x="2438" y="127" on="1"/>
        <pt x="2426" y="127" on="0"/>
        <pt x="2390" y="103" on="1"/>
        <pt x="2346" y="75" on="0"/>
        <pt x="2332" y="68" on="1"/>
        <pt x="2229" y="25" on="0"/>
        <pt x="2095" y="25" on="1"/>
        <pt x="1981" y="25" on="0"/>
        <pt x="1869" y="86" on="1"/>
        <pt x="1799" y="125" on="0"/>
        <pt x="1684" y="220" on="1"/>
        <pt x="1566" y="319" on="0"/>
        <pt x="1510" y="352" on="1"/>
        <pt x="1483" y="352" on="1"/>
        <pt x="1479" y="338" on="0"/>
        <pt x="1480" y="224" on="1"/>
        <pt x="1480" y="140" on="0"/>
        <pt x="1400" y="37" on="0"/>
        <pt x="1324" y="16" on="1"/>
        <pt x="1298" y="10" on="0"/>
        <pt x="1194" y="-4" on="1"/>
        <pt x="1179" y="-5" on="0"/>
        <pt x="1161" y="-5" on="1"/>
        <pt x="1140" y="-5" on="0"/>
        <pt x="1055" y="1" on="0"/>
        <pt x="1034" y="1" on="1"/>
        <pt x="975" y="1" on="0"/>
        <pt x="940" y="-19" on="1"/>
        <pt x="926" y="-27" on="0"/>
        <pt x="908" y="-86" on="1"/>
        <pt x="881" y="-174" on="0"/>
        <pt x="875" y="-186" on="1"/>
        <pt x="875" y="-186" on="0"/>
        <pt x="849" y="-200" on="0"/>
        <pt x="830" y="-200" on="1"/>
        <pt x="732" y="-200" on="0"/>
        <pt x="685" y="-52" on="1"/>
        <pt x="677" y="-27" on="0"/>
        <pt x="680" y="18" on="1"/>
        <pt x="684" y="75" on="0"/>
        <pt x="683" y="89" on="1"/>
        <pt x="668" y="116" on="0"/>
        <pt x="636" y="116" on="1"/>
        <pt x="611" y="116" on="0"/>
        <pt x="482" y="61" on="0"/>
        <pt x="474" y="48" on="1"/>
        <pt x="456" y="16" on="0"/>
        <pt x="461" y="-10" on="1"/>
        <pt x="595" y="-850" on="1"/>
        <pt x="595" y="-891" on="0"/>
        <pt x="573" y="-956" on="1"/>
        <pt x="566" y="-957" on="0"/>
        <pt x="549" y="-969" on="1"/>
        <pt x="536" y="-956" on="0"/>
        <pt x="516" y="-934" on="1"/>
        <pt x="369" y="-136" on="0"/>
        <pt x="369" y="-16" on="1"/>
        <pt x="369" y="98" on="0"/>
        <pt x="522" y="263" on="0"/>
        <pt x="650" y="283" on="1"/>
        <pt x="664" y="285" on="0"/>
        <pt x="732" y="321" on="0"/>
        <pt x="743" y="321" on="1"/>
        <pt x="755" y="321" on="0"/>
        <pt x="814" y="272" on="1"/>
        <pt x="883" y="215" on="0"/>
        <pt x="909" y="201" on="1"/>
        <pt x="969" y="168" on="0"/>
        <pt x="1112" y="168" on="1"/>
        <pt x="1393" y="168" on="0"/>
        <pt x="1393" y="239" on="1"/>
        <pt x="1393" y="271" on="0"/>
        <pt x="1308" y="384" on="1"/>
        <pt x="1238" y="478" on="0"/>
        <pt x="1217" y="496" on="1"/>
        <pt x="1162" y="551" on="0"/>
        <pt x="1026" y="667" on="1"/>
        <pt x="927" y="741" on="0"/>
        <pt x="908" y="762" on="1"/>
        <pt x="861" y="810" on="0"/>
        <pt x="861" y="869" on="1"/>
        <pt x="861" y="918" on="0"/>
        <pt x="900" y="993" on="1"/>
        <pt x="945" y="1081" on="0"/>
        <pt x="1017" y="1135" on="1"/>
        <pt x="1103" y="1203" on="0"/>
        <pt x="1222" y="1259" on="1"/>
        <pt x="1347" y="1318" on="0"/>
        <pt x="1715" y="1472" on="1"/>
        <pt x="2144" y="1652" on="0"/>
        <pt x="2192" y="1652" on="1"/>
        <pt x="2254" y="1652" on="0"/>
        <pt x="2254" y="1596" on="1"/>
        <pt x="2254" y="1534" on="0"/>
        <pt x="2009" y="1434" on="1"/>
        <pt x="1973" y="1420" on="0"/>
        <pt x="1697" y="1321" on="1"/>
        <pt x="1566" y="1275" on="0"/>
        <pt x="1308" y="1144" on="1"/>
        <pt x="1215" y="1100" on="0"/>
        <pt x="1121" y="1056" on="1"/>
        <pt x="963" y="976" on="0"/>
        <pt x="963" y="936" on="1"/>
        <pt x="963" y="906" on="0"/>
        <pt x="1131" y="802" on="1"/>
        <pt x="1360" y="659" on="0"/>
        <pt x="1381" y="644" on="1"/>
        <pt x="1552" y="499" on="0"/>
        <pt x="1903" y="241" on="1"/>
        <pt x="1922" y="229" on="0"/>
        <pt x="1983" y="215" on="1"/>
        <pt x="2097" y="188" on="0"/>
        <pt x="2156" y="188" on="1"/>
        <pt x="2254" y="188" on="0"/>
        <pt x="2306" y="206" on="1"/>
        <pt x="2399" y="238" on="0"/>
        <pt x="2471" y="341" on="1"/>
        <pt x="2508" y="341" on="1"/>
        <pt x="2507" y="332" on="0"/>
        <pt x="2507" y="323" on="1"/>
        <pt x="2507" y="263" on="0"/>
        <pt x="2570" y="226" on="1"/>
        <pt x="2624" y="195" on="0"/>
        <pt x="2692" y="195" on="1"/>
        <pt x="2712" y="195" on="0"/>
        <pt x="2728" y="198" on="1"/>
        <pt x="2748" y="208" on="0"/>
        <pt x="2748" y="233" on="1"/>
        <pt x="2748" y="244" on="0"/>
        <pt x="2735" y="303" on="0"/>
        <pt x="2735" y="318" on="1"/>
        <pt x="2735" y="329" on="0"/>
        <pt x="2737" y="338" on="1"/>
        <pt x="2766" y="455" on="0"/>
        <pt x="2861" y="582" on="1"/>
        <pt x="2926" y="669" on="0"/>
        <pt x="3031" y="669" on="1"/>
        <pt x="3103" y="669" on="0"/>
        <pt x="3165" y="628" on="1"/>
        <pt x="3197" y="607" on="0"/>
        <pt x="3276" y="533" on="1"/>
        <pt x="3276" y="496" on="1"/>
        <pt x="3273" y="496" on="0"/>
        <pt x="3256" y="485" on="0"/>
        <pt x="3242" y="485" on="1"/>
        <pt x="3228" y="485" on="0"/>
        <pt x="3101" y="537" on="0"/>
        <pt x="3088" y="537" on="1"/>
        <pt x="2996" y="537" on="0"/>
        <pt x="2857" y="437" on="1"/>
        <pt x="2853" y="424" on="0"/>
        <pt x="2853" y="411" on="1"/>
        <pt x="2853" y="347" on="0"/>
        <pt x="2923" y="291" on="1"/>
        <pt x="2988" y="239" on="0"/>
        <pt x="3047" y="239" on="1"/>
        <pt x="3100" y="239" on="0"/>
        <pt x="3252" y="306" on="1"/>
        <pt x="3401" y="370" on="0"/>
        <pt x="3396" y="371" on="1"/>
      </contour>
      <contour>
        <pt x="738" y="890" on="1"/>
        <pt x="738" y="830" on="0"/>
        <pt x="614" y="760" on="1"/>
        <pt x="507" y="700" on="0"/>
        <pt x="472" y="700" on="1"/>
        <pt x="460" y="700" on="0"/>
        <pt x="411" y="722" on="1"/>
        <pt x="411" y="750" on="1"/>
        <pt x="418" y="756" on="0"/>
        <pt x="513" y="820" on="1"/>
        <pt x="509" y="854" on="0"/>
        <pt x="472" y="854" on="1"/>
        <pt x="437" y="854" on="0"/>
        <pt x="375" y="813" on="1"/>
        <pt x="360" y="824" on="0"/>
        <pt x="350" y="824" on="1"/>
        <pt x="350" y="858" on="1"/>
        <pt x="349" y="875" on="0"/>
        <pt x="433" y="952" on="0"/>
        <pt x="465" y="963" on="1"/>
        <pt x="477" y="967" on="0"/>
        <pt x="533" y="967" on="1"/>
        <pt x="587" y="967" on="0"/>
        <pt x="654" y="947" on="1"/>
        <pt x="738" y="923" on="0"/>
      </contour>
      <contour>
        <pt x="1208" y="1736" on="1"/>
        <pt x="1208" y="1763" on="1"/>
        <pt x="1159" y="1774" on="1"/>
        <pt x="1159" y="1736" on="1"/>
      </contour>
    </TTGlyph>
    <TTGlyph name="gaffinalarabic" xMin="142" yMin="226" xMax="842" yMax="1588">
      <contour>
        <pt x="142" y="226" on="1"/>
        <pt x="142" y="1588" on="1"/>
        <pt x="842" y="1588" on="1"/>
        <pt x="842" y="226" on="1"/>
      </contour>
      <contour>
        <pt x="284" y="368" on="1"/>
        <pt x="700" y="368" on="1"/>
        <pt x="700" y="1447" on="1"/>
        <pt x="284" y="1447" on="1"/>
      </contour>
    </TTGlyph>
    <TTGlyph name="gafinitialarabic" xMin="142" yMin="226" xMax="842" yMax="1588">
      <contour>
        <pt x="142" y="226" on="1"/>
        <pt x="142" y="1588" on="1"/>
        <pt x="842" y="1588" on="1"/>
        <pt x="842" y="226" on="1"/>
      </contour>
      <contour>
        <pt x="284" y="368" on="1"/>
        <pt x="700" y="368" on="1"/>
        <pt x="700" y="1447" on="1"/>
        <pt x="284" y="1447" on="1"/>
      </contour>
    </TTGlyph>
    <TTGlyph name="gafmedialarabic" xMin="142" yMin="226" xMax="842" yMax="1588">
      <contour>
        <pt x="142" y="226" on="1"/>
        <pt x="142" y="1588" on="1"/>
        <pt x="842" y="1588" on="1"/>
        <pt x="842" y="226" on="1"/>
      </contour>
      <contour>
        <pt x="284" y="368" on="1"/>
        <pt x="700" y="368" on="1"/>
        <pt x="700" y="1447" on="1"/>
        <pt x="284" y="1447" on="1"/>
      </contour>
    </TTGlyph>
    <TTGlyph name="glyph41" xMin="142" yMin="226" xMax="842" yMax="1588">
      <contour>
        <pt x="142" y="226" on="1"/>
        <pt x="142" y="1588" on="1"/>
        <pt x="842" y="1588" on="1"/>
        <pt x="842" y="226" on="1"/>
      </contour>
      <contour>
        <pt x="284" y="368" on="1"/>
        <pt x="700" y="368" on="1"/>
        <pt x="700" y="1447" on="1"/>
        <pt x="284" y="1447" on="1"/>
      </contour>
    </TTGlyph>
    <TTGlyph name="glyph42" xMin="142" yMin="226" xMax="842" yMax="1588">
      <contour>
        <pt x="142" y="226" on="1"/>
        <pt x="142" y="1588" on="1"/>
        <pt x="842" y="1588" on="1"/>
        <pt x="842" y="226" on="1"/>
      </contour>
      <contour>
        <pt x="284" y="368" on="1"/>
        <pt x="700" y="368" on="1"/>
        <pt x="700" y="1447" on="1"/>
        <pt x="284" y="1447" on="1"/>
      </contour>
    </TTGlyph>
    <TTGlyph name="glyph43" xMin="142" yMin="226" xMax="842" yMax="1588">
      <contour>
        <pt x="142" y="226" on="1"/>
        <pt x="142" y="1588" on="1"/>
        <pt x="842" y="1588" on="1"/>
        <pt x="842" y="226" on="1"/>
      </contour>
      <contour>
        <pt x="284" y="368" on="1"/>
        <pt x="700" y="368" on="1"/>
        <pt x="700" y="1447" on="1"/>
        <pt x="284" y="1447" on="1"/>
      </contour>
    </TTGlyph>
    <TTGlyph name="glyph44" xMin="142" yMin="226" xMax="842" yMax="1588">
      <contour>
        <pt x="142" y="226" on="1"/>
        <pt x="142" y="1588" on="1"/>
        <pt x="842" y="1588" on="1"/>
        <pt x="842" y="226" on="1"/>
      </contour>
      <contour>
        <pt x="284" y="368" on="1"/>
        <pt x="700" y="368" on="1"/>
        <pt x="700" y="1447" on="1"/>
        <pt x="284" y="1447" on="1"/>
      </contour>
    </TTGlyph>
    <TTGlyph name="glyph45" xMin="142" yMin="226" xMax="842" yMax="1588">
      <contour>
        <pt x="142" y="226" on="1"/>
        <pt x="142" y="1588" on="1"/>
        <pt x="842" y="1588" on="1"/>
        <pt x="842" y="226" on="1"/>
      </contour>
      <contour>
        <pt x="284" y="368" on="1"/>
        <pt x="700" y="368" on="1"/>
        <pt x="700" y="1447" on="1"/>
        <pt x="284" y="1447" on="1"/>
      </contour>
    </TTGlyph>
    <TTGlyph name="glyph46" xMin="142" yMin="226" xMax="842" yMax="1588">
      <contour>
        <pt x="142" y="226" on="1"/>
        <pt x="142" y="1588" on="1"/>
        <pt x="842" y="1588" on="1"/>
        <pt x="842" y="226" on="1"/>
      </contour>
      <contour>
        <pt x="284" y="368" on="1"/>
        <pt x="700" y="368" on="1"/>
        <pt x="700" y="1447" on="1"/>
        <pt x="284" y="1447" on="1"/>
      </contour>
    </TTGlyph>
    <TTGlyph name="glyph47" xMin="142" yMin="226" xMax="842" yMax="1588">
      <contour>
        <pt x="142" y="226" on="1"/>
        <pt x="142" y="1588" on="1"/>
        <pt x="842" y="1588" on="1"/>
        <pt x="842" y="226" on="1"/>
      </contour>
      <contour>
        <pt x="284" y="368" on="1"/>
        <pt x="700" y="368" on="1"/>
        <pt x="700" y="1447" on="1"/>
        <pt x="284" y="1447" on="1"/>
      </contour>
    </TTGlyph>
    <TTGlyph name="glyph48" xMin="142" yMin="226" xMax="842" yMax="1588">
      <contour>
        <pt x="142" y="226" on="1"/>
        <pt x="142" y="1588" on="1"/>
        <pt x="842" y="1588" on="1"/>
        <pt x="842" y="226" on="1"/>
      </contour>
      <contour>
        <pt x="284" y="368" on="1"/>
        <pt x="700" y="368" on="1"/>
        <pt x="700" y="1447" on="1"/>
        <pt x="284" y="1447" on="1"/>
      </contour>
    </TTGlyph>
    <TTGlyph name="glyph50" xMin="142" yMin="226" xMax="842" yMax="1588">
      <contour>
        <pt x="142" y="226" on="1"/>
        <pt x="142" y="1588" on="1"/>
        <pt x="842" y="1588" on="1"/>
        <pt x="842" y="226" on="1"/>
      </contour>
      <contour>
        <pt x="284" y="368" on="1"/>
        <pt x="700" y="368" on="1"/>
        <pt x="700" y="1447" on="1"/>
        <pt x="284" y="1447" on="1"/>
      </contour>
    </TTGlyph>
    <TTGlyph name="glyph51" xMin="142" yMin="226" xMax="842" yMax="1588">
      <contour>
        <pt x="142" y="226" on="1"/>
        <pt x="142" y="1588" on="1"/>
        <pt x="842" y="1588" on="1"/>
        <pt x="842" y="226" on="1"/>
      </contour>
      <contour>
        <pt x="284" y="368" on="1"/>
        <pt x="700" y="368" on="1"/>
        <pt x="700" y="1447" on="1"/>
        <pt x="284" y="1447" on="1"/>
      </contour>
    </TTGlyph>
    <TTGlyph name="greater" xMin="142" yMin="226" xMax="842" yMax="1588">
      <contour>
        <pt x="142" y="226" on="1"/>
        <pt x="142" y="1588" on="1"/>
        <pt x="842" y="1588" on="1"/>
        <pt x="842" y="226" on="1"/>
      </contour>
      <contour>
        <pt x="284" y="368" on="1"/>
        <pt x="700" y="368" on="1"/>
        <pt x="700" y="1447" on="1"/>
        <pt x="284" y="1447" on="1"/>
      </contour>
    </TTGlyph>
    <TTGlyph name="hahhamzabovefinal" xMin="142" yMin="226" xMax="842" yMax="1588">
      <contour>
        <pt x="142" y="226" on="1"/>
        <pt x="142" y="1588" on="1"/>
        <pt x="842" y="1588" on="1"/>
        <pt x="842" y="226" on="1"/>
      </contour>
      <contour>
        <pt x="284" y="368" on="1"/>
        <pt x="700" y="368" on="1"/>
        <pt x="700" y="1447" on="1"/>
        <pt x="284" y="1447" on="1"/>
      </contour>
    </TTGlyph>
    <TTGlyph name="hahhamzaboveinitial" xMin="142" yMin="226" xMax="842" yMax="1588">
      <contour>
        <pt x="142" y="226" on="1"/>
        <pt x="142" y="1588" on="1"/>
        <pt x="842" y="1588" on="1"/>
        <pt x="842" y="226" on="1"/>
      </contour>
      <contour>
        <pt x="284" y="368" on="1"/>
        <pt x="700" y="368" on="1"/>
        <pt x="700" y="1447" on="1"/>
        <pt x="284" y="1447" on="1"/>
      </contour>
    </TTGlyph>
    <TTGlyph name="hahhamzabovemedial" xMin="142" yMin="226" xMax="842" yMax="1588">
      <contour>
        <pt x="142" y="226" on="1"/>
        <pt x="142" y="1588" on="1"/>
        <pt x="842" y="1588" on="1"/>
        <pt x="842" y="226" on="1"/>
      </contour>
      <contour>
        <pt x="284" y="368" on="1"/>
        <pt x="700" y="368" on="1"/>
        <pt x="700" y="1447" on="1"/>
        <pt x="284" y="1447" on="1"/>
      </contour>
    </TTGlyph>
    <TTGlyph name="hahthreedotsabovefinal" xMin="142" yMin="226" xMax="842" yMax="1588">
      <contour>
        <pt x="142" y="226" on="1"/>
        <pt x="142" y="1588" on="1"/>
        <pt x="842" y="1588" on="1"/>
        <pt x="842" y="226" on="1"/>
      </contour>
      <contour>
        <pt x="284" y="368" on="1"/>
        <pt x="700" y="368" on="1"/>
        <pt x="700" y="1447" on="1"/>
        <pt x="284" y="1447" on="1"/>
      </contour>
    </TTGlyph>
    <TTGlyph name="hahthreedotsaboveinitial" xMin="142" yMin="226" xMax="842" yMax="1588">
      <contour>
        <pt x="142" y="226" on="1"/>
        <pt x="142" y="1588" on="1"/>
        <pt x="842" y="1588" on="1"/>
        <pt x="842" y="226" on="1"/>
      </contour>
      <contour>
        <pt x="284" y="368" on="1"/>
        <pt x="700" y="368" on="1"/>
        <pt x="700" y="1447" on="1"/>
        <pt x="284" y="1447" on="1"/>
      </contour>
    </TTGlyph>
    <TTGlyph name="hahthreedotsabovemedial" xMin="142" yMin="226" xMax="842" yMax="1588">
      <contour>
        <pt x="142" y="226" on="1"/>
        <pt x="142" y="1588" on="1"/>
        <pt x="842" y="1588" on="1"/>
        <pt x="842" y="226" on="1"/>
      </contour>
      <contour>
        <pt x="284" y="368" on="1"/>
        <pt x="700" y="368" on="1"/>
        <pt x="700" y="1447" on="1"/>
        <pt x="284" y="1447" on="1"/>
      </contour>
    </TTGlyph>
    <TTGlyph name="hehdoachashmeefinalarabic" xMin="142" yMin="226" xMax="842" yMax="1588">
      <contour>
        <pt x="142" y="226" on="1"/>
        <pt x="142" y="1588" on="1"/>
        <pt x="842" y="1588" on="1"/>
        <pt x="842" y="226" on="1"/>
      </contour>
      <contour>
        <pt x="284" y="368" on="1"/>
        <pt x="700" y="368" on="1"/>
        <pt x="700" y="1447" on="1"/>
        <pt x="284" y="1447" on="1"/>
      </contour>
    </TTGlyph>
    <TTGlyph name="hehdoachashmeeinitialarabic" xMin="142" yMin="226" xMax="842" yMax="1588">
      <contour>
        <pt x="142" y="226" on="1"/>
        <pt x="142" y="1588" on="1"/>
        <pt x="842" y="1588" on="1"/>
        <pt x="842" y="226" on="1"/>
      </contour>
      <contour>
        <pt x="284" y="368" on="1"/>
        <pt x="700" y="368" on="1"/>
        <pt x="700" y="1447" on="1"/>
        <pt x="284" y="1447" on="1"/>
      </contour>
    </TTGlyph>
    <TTGlyph name="hehdoachashmeemedialarabic" xMin="142" yMin="226" xMax="842" yMax="1588">
      <contour>
        <pt x="142" y="226" on="1"/>
        <pt x="142" y="1588" on="1"/>
        <pt x="842" y="1588" on="1"/>
        <pt x="842" y="226" on="1"/>
      </contour>
      <contour>
        <pt x="284" y="368" on="1"/>
        <pt x="700" y="368" on="1"/>
        <pt x="700" y="1447" on="1"/>
        <pt x="284" y="1447" on="1"/>
      </contour>
    </TTGlyph>
    <TTGlyph name="hehfinalaltonearabic" xMin="142" yMin="226" xMax="842" yMax="1588">
      <contour>
        <pt x="142" y="226" on="1"/>
        <pt x="142" y="1588" on="1"/>
        <pt x="842" y="1588" on="1"/>
        <pt x="842" y="226" on="1"/>
      </contour>
      <contour>
        <pt x="284" y="368" on="1"/>
        <pt x="700" y="368" on="1"/>
        <pt x="700" y="1447" on="1"/>
        <pt x="284" y="1447" on="1"/>
      </contour>
    </TTGlyph>
    <TTGlyph name="hehhamzaabovefinalarabic" xMin="142" yMin="226" xMax="842" yMax="1588">
      <contour>
        <pt x="142" y="226" on="1"/>
        <pt x="142" y="1588" on="1"/>
        <pt x="842" y="1588" on="1"/>
        <pt x="842" y="226" on="1"/>
      </contour>
      <contour>
        <pt x="284" y="368" on="1"/>
        <pt x="700" y="368" on="1"/>
        <pt x="700" y="1447" on="1"/>
        <pt x="284" y="1447" on="1"/>
      </contour>
    </TTGlyph>
    <TTGlyph name="hehinitialaltonearabic" xMin="142" yMin="226" xMax="842" yMax="1588">
      <contour>
        <pt x="142" y="226" on="1"/>
        <pt x="142" y="1588" on="1"/>
        <pt x="842" y="1588" on="1"/>
        <pt x="842" y="226" on="1"/>
      </contour>
      <contour>
        <pt x="284" y="368" on="1"/>
        <pt x="700" y="368" on="1"/>
        <pt x="700" y="1447" on="1"/>
        <pt x="284" y="1447" on="1"/>
      </contour>
    </TTGlyph>
    <TTGlyph name="hehmedialaltonearabic" xMin="142" yMin="226" xMax="842" yMax="1588">
      <contour>
        <pt x="142" y="226" on="1"/>
        <pt x="142" y="1588" on="1"/>
        <pt x="842" y="1588" on="1"/>
        <pt x="842" y="226" on="1"/>
      </contour>
      <contour>
        <pt x="284" y="368" on="1"/>
        <pt x="700" y="368" on="1"/>
        <pt x="700" y="1447" on="1"/>
        <pt x="284" y="1447" on="1"/>
      </contour>
    </TTGlyph>
    <TTGlyph name="hyphen" xMin="349" yMin="-969" xMax="3450" yMax="1911">
      <contour>
        <pt x="3195" y="1452" on="1"/>
        <pt x="3195" y="1402" on="0"/>
        <pt x="2669" y="1090" on="1"/>
        <pt x="2635" y="1090" on="1"/>
        <pt x="2627" y="1094" on="0"/>
        <pt x="2612" y="1104" on="0"/>
        <pt x="2612" y="1120" on="1"/>
        <pt x="2612" y="1171" on="0"/>
        <pt x="2860" y="1321" on="1"/>
        <pt x="3089" y="1460" on="0"/>
        <pt x="3183" y="1488" on="1"/>
        <pt x="3183" y="1484" on="0"/>
        <pt x="3195" y="1467" on="0"/>
      </contour>
      <contour>
        <pt x="2448" y="644" on="1"/>
        <pt x="2448" y="609" on="0"/>
        <pt x="2394" y="537" on="0"/>
        <pt x="2366" y="537" on="1"/>
        <pt x="2337" y="537" on="0"/>
        <pt x="2299" y="570" on="1"/>
        <pt x="2263" y="601" on="0"/>
        <pt x="2263" y="618" on="1"/>
        <pt x="2263" y="652" on="0"/>
        <pt x="2329" y="721" on="0"/>
        <pt x="2356" y="721" on="1"/>
        <pt x="2381" y="721" on="0"/>
        <pt x="2448" y="663" on="0"/>
      </contour>
      <contour>
        <pt x="1414" y="1560" on="1"/>
        <pt x="1414" y="1509" on="0"/>
        <pt x="1367" y="1509" on="1"/>
        <pt x="1355" y="1509" on="0"/>
        <pt x="1262" y="1550" on="0"/>
        <pt x="1250" y="1550" on="1"/>
        <pt x="1239" y="1550" on="0"/>
        <pt x="1109" y="1452" on="1"/>
        <pt x="966" y="1344" on="0"/>
        <pt x="887" y="1315" on="1"/>
        <pt x="853" y="1315" on="1"/>
        <pt x="841" y="1316" on="0"/>
        <pt x="841" y="1340" on="1"/>
        <pt x="841" y="1355" on="0"/>
        <pt x="949" y="1442" on="1"/>
        <pt x="1106" y="1567" on="0"/>
        <pt x="1127" y="1586" on="1"/>
        <pt x="1105" y="1619" on="0"/>
        <pt x="1061" y="1657" on="1"/>
        <pt x="1035" y="1680" on="0"/>
        <pt x="1035" y="1709" on="1"/>
        <pt x="1035" y="1765" on="0"/>
        <pt x="1094" y="1835" on="1"/>
        <pt x="1158" y="1911" on="0"/>
        <pt x="1223" y="1911" on="1"/>
        <pt x="1235" y="1911" on="0"/>
        <pt x="1248" y="1907" on="1"/>
        <pt x="1280" y="1872" on="0"/>
        <pt x="1283" y="1821" on="1"/>
        <pt x="1283" y="1774" on="0"/>
        <pt x="1284" y="1727" on="1"/>
        <pt x="1286" y="1706" on="0"/>
        <pt x="1293" y="1690" on="1"/>
        <pt x="1303" y="1666" on="0"/>
        <pt x="1363" y="1631" on="1"/>
        <pt x="1414" y="1601" on="0"/>
      </contour>
      <contour>
        <pt x="3450" y="371" on="1"/>
        <pt x="3441" y="334" on="0"/>
        <pt x="3414" y="282" on="1"/>
        <pt x="3281" y="170" on="0"/>
        <pt x="3067" y="101" on="1"/>
        <pt x="2866" y="34" on="0"/>
        <pt x="2689" y="34" on="1"/>
        <pt x="2593" y="34" on="0"/>
        <pt x="2436" y="127" on="0"/>
        <pt x="2438" y="127" on="1"/>
        <pt x="2426" y="127" on="0"/>
        <pt x="2390" y="103" on="1"/>
        <pt x="2346" y="75" on="0"/>
        <pt x="2332" y="68" on="1"/>
        <pt x="2229" y="25" on="0"/>
        <pt x="2095" y="25" on="1"/>
        <pt x="1981" y="25" on="0"/>
        <pt x="1869" y="86" on="1"/>
        <pt x="1799" y="125" on="0"/>
        <pt x="1684" y="220" on="1"/>
        <pt x="1566" y="319" on="0"/>
        <pt x="1510" y="352" on="1"/>
        <pt x="1483" y="352" on="1"/>
        <pt x="1479" y="338" on="0"/>
        <pt x="1480" y="224" on="1"/>
        <pt x="1480" y="140" on="0"/>
        <pt x="1400" y="37" on="0"/>
        <pt x="1324" y="16" on="1"/>
        <pt x="1298" y="10" on="0"/>
        <pt x="1194" y="-4" on="1"/>
        <pt x="1179" y="-5" on="0"/>
        <pt x="1161" y="-5" on="1"/>
        <pt x="1140" y="-5" on="0"/>
        <pt x="1055" y="1" on="0"/>
        <pt x="1034" y="1" on="1"/>
        <pt x="975" y="1" on="0"/>
        <pt x="940" y="-19" on="1"/>
        <pt x="926" y="-27" on="0"/>
        <pt x="908" y="-86" on="1"/>
        <pt x="881" y="-174" on="0"/>
        <pt x="875" y="-186" on="1"/>
        <pt x="875" y="-186" on="0"/>
        <pt x="849" y="-200" on="0"/>
        <pt x="830" y="-200" on="1"/>
        <pt x="732" y="-200" on="0"/>
        <pt x="685" y="-52" on="1"/>
        <pt x="677" y="-27" on="0"/>
        <pt x="680" y="18" on="1"/>
        <pt x="684" y="75" on="0"/>
        <pt x="683" y="89" on="1"/>
        <pt x="668" y="116" on="0"/>
        <pt x="636" y="116" on="1"/>
        <pt x="611" y="116" on="0"/>
        <pt x="482" y="61" on="0"/>
        <pt x="474" y="48" on="1"/>
        <pt x="456" y="16" on="0"/>
        <pt x="461" y="-10" on="1"/>
        <pt x="595" y="-850" on="1"/>
        <pt x="595" y="-891" on="0"/>
        <pt x="573" y="-956" on="1"/>
        <pt x="566" y="-957" on="0"/>
        <pt x="549" y="-969" on="1"/>
        <pt x="536" y="-956" on="0"/>
        <pt x="516" y="-934" on="1"/>
        <pt x="369" y="-136" on="0"/>
        <pt x="369" y="-16" on="1"/>
        <pt x="369" y="98" on="0"/>
        <pt x="522" y="263" on="0"/>
        <pt x="650" y="283" on="1"/>
        <pt x="664" y="285" on="0"/>
        <pt x="732" y="321" on="0"/>
        <pt x="743" y="321" on="1"/>
        <pt x="755" y="321" on="0"/>
        <pt x="814" y="272" on="1"/>
        <pt x="883" y="215" on="0"/>
        <pt x="909" y="201" on="1"/>
        <pt x="969" y="168" on="0"/>
        <pt x="1112" y="168" on="1"/>
        <pt x="1393" y="168" on="0"/>
        <pt x="1393" y="239" on="1"/>
        <pt x="1393" y="271" on="0"/>
        <pt x="1308" y="384" on="1"/>
        <pt x="1238" y="478" on="0"/>
        <pt x="1217" y="496" on="1"/>
        <pt x="1162" y="551" on="0"/>
        <pt x="1026" y="667" on="1"/>
        <pt x="927" y="741" on="0"/>
        <pt x="908" y="762" on="1"/>
        <pt x="861" y="810" on="0"/>
        <pt x="861" y="869" on="1"/>
        <pt x="861" y="918" on="0"/>
        <pt x="900" y="993" on="1"/>
        <pt x="945" y="1081" on="0"/>
        <pt x="1017" y="1135" on="1"/>
        <pt x="1103" y="1203" on="0"/>
        <pt x="1222" y="1259" on="1"/>
        <pt x="1347" y="1318" on="0"/>
        <pt x="1715" y="1472" on="1"/>
        <pt x="2144" y="1652" on="0"/>
        <pt x="2192" y="1652" on="1"/>
        <pt x="2254" y="1652" on="0"/>
        <pt x="2254" y="1596" on="1"/>
        <pt x="2254" y="1534" on="0"/>
        <pt x="2009" y="1434" on="1"/>
        <pt x="1973" y="1420" on="0"/>
        <pt x="1697" y="1321" on="1"/>
        <pt x="1566" y="1275" on="0"/>
        <pt x="1308" y="1144" on="1"/>
        <pt x="1215" y="1100" on="0"/>
        <pt x="1121" y="1056" on="1"/>
        <pt x="963" y="976" on="0"/>
        <pt x="963" y="936" on="1"/>
        <pt x="963" y="906" on="0"/>
        <pt x="1131" y="802" on="1"/>
        <pt x="1360" y="659" on="0"/>
        <pt x="1381" y="644" on="1"/>
        <pt x="1552" y="499" on="0"/>
        <pt x="1903" y="241" on="1"/>
        <pt x="1922" y="229" on="0"/>
        <pt x="1983" y="215" on="1"/>
        <pt x="2097" y="188" on="0"/>
        <pt x="2156" y="188" on="1"/>
        <pt x="2254" y="188" on="0"/>
        <pt x="2306" y="206" on="1"/>
        <pt x="2399" y="238" on="0"/>
        <pt x="2471" y="341" on="1"/>
        <pt x="2508" y="341" on="1"/>
        <pt x="2507" y="332" on="0"/>
        <pt x="2507" y="323" on="1"/>
        <pt x="2507" y="263" on="0"/>
        <pt x="2570" y="226" on="1"/>
        <pt x="2624" y="195" on="0"/>
        <pt x="2692" y="195" on="1"/>
        <pt x="2712" y="195" on="0"/>
        <pt x="2728" y="198" on="1"/>
        <pt x="2748" y="208" on="0"/>
        <pt x="2748" y="233" on="1"/>
        <pt x="2748" y="244" on="0"/>
        <pt x="2735" y="303" on="0"/>
        <pt x="2735" y="318" on="1"/>
        <pt x="2735" y="329" on="0"/>
        <pt x="2737" y="338" on="1"/>
        <pt x="2766" y="455" on="0"/>
        <pt x="2861" y="582" on="1"/>
        <pt x="2926" y="669" on="0"/>
        <pt x="3031" y="669" on="1"/>
        <pt x="3103" y="669" on="0"/>
        <pt x="3165" y="628" on="1"/>
        <pt x="3197" y="607" on="0"/>
        <pt x="3276" y="533" on="1"/>
        <pt x="3276" y="496" on="1"/>
        <pt x="3273" y="496" on="0"/>
        <pt x="3256" y="485" on="0"/>
        <pt x="3242" y="485" on="1"/>
        <pt x="3228" y="485" on="0"/>
        <pt x="3101" y="537" on="0"/>
        <pt x="3088" y="537" on="1"/>
        <pt x="2996" y="537" on="0"/>
        <pt x="2857" y="437" on="1"/>
        <pt x="2853" y="424" on="0"/>
        <pt x="2853" y="411" on="1"/>
        <pt x="2853" y="347" on="0"/>
        <pt x="2923" y="291" on="1"/>
        <pt x="2988" y="239" on="0"/>
        <pt x="3047" y="239" on="1"/>
        <pt x="3100" y="239" on="0"/>
        <pt x="3252" y="306" on="1"/>
        <pt x="3401" y="370" on="0"/>
        <pt x="3396" y="371" on="1"/>
      </contour>
      <contour>
        <pt x="738" y="890" on="1"/>
        <pt x="738" y="830" on="0"/>
        <pt x="614" y="760" on="1"/>
        <pt x="507" y="700" on="0"/>
        <pt x="472" y="700" on="1"/>
        <pt x="460" y="700" on="0"/>
        <pt x="411" y="722" on="1"/>
        <pt x="411" y="750" on="1"/>
        <pt x="418" y="756" on="0"/>
        <pt x="513" y="820" on="1"/>
        <pt x="509" y="854" on="0"/>
        <pt x="472" y="854" on="1"/>
        <pt x="437" y="854" on="0"/>
        <pt x="375" y="813" on="1"/>
        <pt x="360" y="824" on="0"/>
        <pt x="350" y="824" on="1"/>
        <pt x="350" y="858" on="1"/>
        <pt x="349" y="875" on="0"/>
        <pt x="433" y="952" on="0"/>
        <pt x="465" y="963" on="1"/>
        <pt x="477" y="967" on="0"/>
        <pt x="533" y="967" on="1"/>
        <pt x="587" y="967" on="0"/>
        <pt x="654" y="947" on="1"/>
        <pt x="738" y="923" on="0"/>
      </contour>
      <contour>
        <pt x="1208" y="1736" on="1"/>
        <pt x="1208" y="1763" on="1"/>
        <pt x="1159" y="1774" on="1"/>
        <pt x="1159" y="1736" on="1"/>
      </contour>
    </TTGlyph>
    <TTGlyph name="irghizufinal" xMin="142" yMin="226" xMax="842" yMax="1588">
      <contour>
        <pt x="142" y="226" on="1"/>
        <pt x="142" y="1588" on="1"/>
        <pt x="842" y="1588" on="1"/>
        <pt x="842" y="226" on="1"/>
      </contour>
      <contour>
        <pt x="284" y="368" on="1"/>
        <pt x="700" y="368" on="1"/>
        <pt x="700" y="1447" on="1"/>
        <pt x="284" y="1447" on="1"/>
      </contour>
    </TTGlyph>
    <TTGlyph name="jehfinalarabic" xMin="142" yMin="226" xMax="842" yMax="1588">
      <contour>
        <pt x="142" y="226" on="1"/>
        <pt x="142" y="1588" on="1"/>
        <pt x="842" y="1588" on="1"/>
        <pt x="842" y="226" on="1"/>
      </contour>
      <contour>
        <pt x="284" y="368" on="1"/>
        <pt x="700" y="368" on="1"/>
        <pt x="700" y="1447" on="1"/>
        <pt x="284" y="1447" on="1"/>
      </contour>
    </TTGlyph>
    <TTGlyph name="kafringfinal" xMin="142" yMin="226" xMax="842" yMax="1588">
      <contour>
        <pt x="142" y="226" on="1"/>
        <pt x="142" y="1588" on="1"/>
        <pt x="842" y="1588" on="1"/>
        <pt x="842" y="226" on="1"/>
      </contour>
      <contour>
        <pt x="284" y="368" on="1"/>
        <pt x="700" y="368" on="1"/>
        <pt x="700" y="1447" on="1"/>
        <pt x="284" y="1447" on="1"/>
      </contour>
    </TTGlyph>
    <TTGlyph name="kafringinitial" xMin="142" yMin="226" xMax="842" yMax="1588">
      <contour>
        <pt x="142" y="226" on="1"/>
        <pt x="142" y="1588" on="1"/>
        <pt x="842" y="1588" on="1"/>
        <pt x="842" y="226" on="1"/>
      </contour>
      <contour>
        <pt x="284" y="368" on="1"/>
        <pt x="700" y="368" on="1"/>
        <pt x="700" y="1447" on="1"/>
        <pt x="284" y="1447" on="1"/>
      </contour>
    </TTGlyph>
    <TTGlyph name="kafringmedial" xMin="142" yMin="226" xMax="842" yMax="1588">
      <contour>
        <pt x="142" y="226" on="1"/>
        <pt x="142" y="1588" on="1"/>
        <pt x="842" y="1588" on="1"/>
        <pt x="842" y="226" on="1"/>
      </contour>
      <contour>
        <pt x="284" y="368" on="1"/>
        <pt x="700" y="368" on="1"/>
        <pt x="700" y="1447" on="1"/>
        <pt x="284" y="1447" on="1"/>
      </contour>
    </TTGlyph>
    <TTGlyph name="kashidaautoarabic" xMin="142" yMin="226" xMax="842" yMax="1588">
      <contour>
        <pt x="142" y="226" on="1"/>
        <pt x="142" y="1588" on="1"/>
        <pt x="842" y="1588" on="1"/>
        <pt x="842" y="226" on="1"/>
      </contour>
      <contour>
        <pt x="284" y="368" on="1"/>
        <pt x="700" y="368" on="1"/>
        <pt x="700" y="1447" on="1"/>
        <pt x="284" y="1447" on="1"/>
      </contour>
    </TTGlyph>
    <TTGlyph name="kashidaautonosidebearingarabic" xMin="142" yMin="226" xMax="842" yMax="1588">
      <contour>
        <pt x="142" y="226" on="1"/>
        <pt x="142" y="1588" on="1"/>
        <pt x="842" y="1588" on="1"/>
        <pt x="842" y="226" on="1"/>
      </contour>
      <contour>
        <pt x="284" y="368" on="1"/>
        <pt x="700" y="368" on="1"/>
        <pt x="700" y="1447" on="1"/>
        <pt x="284" y="1447" on="1"/>
      </contour>
    </TTGlyph>
    <TTGlyph name="kehehfinalarabic" xMin="142" yMin="226" xMax="842" yMax="1588">
      <contour>
        <pt x="142" y="226" on="1"/>
        <pt x="142" y="1588" on="1"/>
        <pt x="842" y="1588" on="1"/>
        <pt x="842" y="226" on="1"/>
      </contour>
      <contour>
        <pt x="284" y="368" on="1"/>
        <pt x="700" y="368" on="1"/>
        <pt x="700" y="1447" on="1"/>
        <pt x="284" y="1447" on="1"/>
      </contour>
    </TTGlyph>
    <TTGlyph name="kehehinitialarabic" xMin="142" yMin="226" xMax="842" yMax="1588">
      <contour>
        <pt x="142" y="226" on="1"/>
        <pt x="142" y="1588" on="1"/>
        <pt x="842" y="1588" on="1"/>
        <pt x="842" y="226" on="1"/>
      </contour>
      <contour>
        <pt x="284" y="368" on="1"/>
        <pt x="700" y="368" on="1"/>
        <pt x="700" y="1447" on="1"/>
        <pt x="284" y="1447" on="1"/>
      </contour>
    </TTGlyph>
    <TTGlyph name="kehehmedialarabic" xMin="142" yMin="226" xMax="842" yMax="1588">
      <contour>
        <pt x="142" y="226" on="1"/>
        <pt x="142" y="1588" on="1"/>
        <pt x="842" y="1588" on="1"/>
        <pt x="842" y="226" on="1"/>
      </contour>
      <contour>
        <pt x="284" y="368" on="1"/>
        <pt x="700" y="368" on="1"/>
        <pt x="700" y="1447" on="1"/>
        <pt x="284" y="1447" on="1"/>
      </contour>
    </TTGlyph>
    <TTGlyph name="kirghizyifinal" xMin="142" yMin="226" xMax="842" yMax="1588">
      <contour>
        <pt x="142" y="226" on="1"/>
        <pt x="142" y="1588" on="1"/>
        <pt x="842" y="1588" on="1"/>
        <pt x="842" y="226" on="1"/>
      </contour>
      <contour>
        <pt x="284" y="368" on="1"/>
        <pt x="700" y="368" on="1"/>
        <pt x="700" y="1447" on="1"/>
        <pt x="284" y="1447" on="1"/>
      </contour>
    </TTGlyph>
    <TTGlyph name="lammeemjeeminitialarabic" xMin="142" yMin="226" xMax="842" yMax="1588">
      <contour>
        <pt x="142" y="226" on="1"/>
        <pt x="142" y="1588" on="1"/>
        <pt x="842" y="1588" on="1"/>
        <pt x="842" y="226" on="1"/>
      </contour>
      <contour>
        <pt x="284" y="368" on="1"/>
        <pt x="700" y="368" on="1"/>
        <pt x="700" y="1447" on="1"/>
        <pt x="284" y="1447" on="1"/>
      </contour>
    </TTGlyph>
    <TTGlyph name="lammeemkhahinitialarabic" xMin="142" yMin="226" xMax="842" yMax="1588">
      <contour>
        <pt x="142" y="226" on="1"/>
        <pt x="142" y="1588" on="1"/>
        <pt x="842" y="1588" on="1"/>
        <pt x="842" y="226" on="1"/>
      </contour>
      <contour>
        <pt x="284" y="368" on="1"/>
        <pt x="700" y="368" on="1"/>
        <pt x="700" y="1447" on="1"/>
        <pt x="284" y="1447" on="1"/>
      </contour>
    </TTGlyph>
    <TTGlyph name="lamthreedotsabovefinal" xMin="142" yMin="226" xMax="842" yMax="1588">
      <contour>
        <pt x="142" y="226" on="1"/>
        <pt x="142" y="1588" on="1"/>
        <pt x="842" y="1588" on="1"/>
        <pt x="842" y="226" on="1"/>
      </contour>
      <contour>
        <pt x="284" y="368" on="1"/>
        <pt x="700" y="368" on="1"/>
        <pt x="700" y="1447" on="1"/>
        <pt x="284" y="1447" on="1"/>
      </contour>
    </TTGlyph>
    <TTGlyph name="lamthreedotsaboveinitial" xMin="142" yMin="226" xMax="842" yMax="1588">
      <contour>
        <pt x="142" y="226" on="1"/>
        <pt x="142" y="1588" on="1"/>
        <pt x="842" y="1588" on="1"/>
        <pt x="842" y="226" on="1"/>
      </contour>
      <contour>
        <pt x="284" y="368" on="1"/>
        <pt x="700" y="368" on="1"/>
        <pt x="700" y="1447" on="1"/>
        <pt x="284" y="1447" on="1"/>
      </contour>
    </TTGlyph>
    <TTGlyph name="lamthreedotsabovemedial" xMin="142" yMin="226" xMax="842" yMax="1588">
      <contour>
        <pt x="142" y="226" on="1"/>
        <pt x="142" y="1588" on="1"/>
        <pt x="842" y="1588" on="1"/>
        <pt x="842" y="226" on="1"/>
      </contour>
      <contour>
        <pt x="284" y="368" on="1"/>
        <pt x="700" y="368" on="1"/>
        <pt x="700" y="1447" on="1"/>
        <pt x="284" y="1447" on="1"/>
      </contour>
    </TTGlyph>
    <TTGlyph name="less" xMin="142" yMin="226" xMax="842" yMax="1588">
      <contour>
        <pt x="142" y="226" on="1"/>
        <pt x="142" y="1588" on="1"/>
        <pt x="842" y="1588" on="1"/>
        <pt x="842" y="226" on="1"/>
      </contour>
      <contour>
        <pt x="284" y="368" on="1"/>
        <pt x="700" y="368" on="1"/>
        <pt x="700" y="1447" on="1"/>
        <pt x="284" y="1447" on="1"/>
      </contour>
    </TTGlyph>
    <TTGlyph name="meemmeemisolatedarabic" xMin="142" yMin="226" xMax="842" yMax="1588">
      <contour>
        <pt x="142" y="226" on="1"/>
        <pt x="142" y="1588" on="1"/>
        <pt x="842" y="1588" on="1"/>
        <pt x="842" y="226" on="1"/>
      </contour>
      <contour>
        <pt x="284" y="368" on="1"/>
        <pt x="700" y="368" on="1"/>
        <pt x="700" y="1447" on="1"/>
        <pt x="284" y="1447" on="1"/>
      </contour>
    </TTGlyph>
    <TTGlyph name="multiply" xMin="142" yMin="226" xMax="842" yMax="1588">
      <contour>
        <pt x="142" y="226" on="1"/>
        <pt x="142" y="1588" on="1"/>
        <pt x="842" y="1588" on="1"/>
        <pt x="842" y="226" on="1"/>
      </contour>
      <contour>
        <pt x="284" y="368" on="1"/>
        <pt x="700" y="368" on="1"/>
        <pt x="700" y="1447" on="1"/>
        <pt x="284" y="1447" on="1"/>
      </contour>
    </TTGlyph>
    <TTGlyph name="noonghunnafinalarabic" xMin="142" yMin="226" xMax="842" yMax="1588">
      <contour>
        <pt x="142" y="226" on="1"/>
        <pt x="142" y="1588" on="1"/>
        <pt x="842" y="1588" on="1"/>
        <pt x="842" y="226" on="1"/>
      </contour>
      <contour>
        <pt x="284" y="368" on="1"/>
        <pt x="700" y="368" on="1"/>
        <pt x="700" y="1447" on="1"/>
        <pt x="284" y="1447" on="1"/>
      </contour>
    </TTGlyph>
    <TTGlyph name="noonjeemisolatedarabic" xMin="142" yMin="226" xMax="842" yMax="1588">
      <contour>
        <pt x="142" y="226" on="1"/>
        <pt x="142" y="1588" on="1"/>
        <pt x="842" y="1588" on="1"/>
        <pt x="842" y="226" on="1"/>
      </contour>
      <contour>
        <pt x="284" y="368" on="1"/>
        <pt x="700" y="368" on="1"/>
        <pt x="700" y="1447" on="1"/>
        <pt x="284" y="1447" on="1"/>
      </contour>
    </TTGlyph>
    <TTGlyph name="noonmeemisolatedarabic" xMin="142" yMin="226" xMax="842" yMax="1588">
      <contour>
        <pt x="142" y="226" on="1"/>
        <pt x="142" y="1588" on="1"/>
        <pt x="842" y="1588" on="1"/>
        <pt x="842" y="226" on="1"/>
      </contour>
      <contour>
        <pt x="284" y="368" on="1"/>
        <pt x="700" y="368" on="1"/>
        <pt x="700" y="1447" on="1"/>
        <pt x="284" y="1447" on="1"/>
      </contour>
    </TTGlyph>
    <TTGlyph name="noonringfinal" xMin="142" yMin="226" xMax="842" yMax="1588">
      <contour>
        <pt x="142" y="226" on="1"/>
        <pt x="142" y="1588" on="1"/>
        <pt x="842" y="1588" on="1"/>
        <pt x="842" y="226" on="1"/>
      </contour>
      <contour>
        <pt x="284" y="368" on="1"/>
        <pt x="700" y="368" on="1"/>
        <pt x="700" y="1447" on="1"/>
        <pt x="284" y="1447" on="1"/>
      </contour>
    </TTGlyph>
    <TTGlyph name="noonringinitial" xMin="142" yMin="226" xMax="842" yMax="1588">
      <contour>
        <pt x="142" y="226" on="1"/>
        <pt x="142" y="1588" on="1"/>
        <pt x="842" y="1588" on="1"/>
        <pt x="842" y="226" on="1"/>
      </contour>
      <contour>
        <pt x="284" y="368" on="1"/>
        <pt x="700" y="368" on="1"/>
        <pt x="700" y="1447" on="1"/>
        <pt x="284" y="1447" on="1"/>
      </contour>
    </TTGlyph>
    <TTGlyph name="noonringmedial" xMin="142" yMin="226" xMax="842" yMax="1588">
      <contour>
        <pt x="142" y="226" on="1"/>
        <pt x="142" y="1588" on="1"/>
        <pt x="842" y="1588" on="1"/>
        <pt x="842" y="226" on="1"/>
      </contour>
      <contour>
        <pt x="284" y="368" on="1"/>
        <pt x="700" y="368" on="1"/>
        <pt x="700" y="1447" on="1"/>
        <pt x="284" y="1447" on="1"/>
      </contour>
    </TTGlyph>
    <TTGlyph name="numbersign" xMin="142" yMin="226" xMax="842" yMax="1588">
      <contour>
        <pt x="142" y="226" on="1"/>
        <pt x="142" y="1588" on="1"/>
        <pt x="842" y="1588" on="1"/>
        <pt x="842" y="226" on="1"/>
      </contour>
      <contour>
        <pt x="284" y="368" on="1"/>
        <pt x="700" y="368" on="1"/>
        <pt x="700" y="1447" on="1"/>
        <pt x="284" y="1447" on="1"/>
      </contour>
    </TTGlyph>
    <TTGlyph name="parenleft" xMin="142" yMin="226" xMax="842" yMax="1588">
      <contour>
        <pt x="142" y="226" on="1"/>
        <pt x="142" y="1588" on="1"/>
        <pt x="842" y="1588" on="1"/>
        <pt x="842" y="226" on="1"/>
      </contour>
      <contour>
        <pt x="284" y="368" on="1"/>
        <pt x="700" y="368" on="1"/>
        <pt x="700" y="1447" on="1"/>
        <pt x="284" y="1447" on="1"/>
      </contour>
    </TTGlyph>
    <TTGlyph name="parenright" xMin="142" yMin="226" xMax="842" yMax="1588">
      <contour>
        <pt x="142" y="226" on="1"/>
        <pt x="142" y="1588" on="1"/>
        <pt x="842" y="1588" on="1"/>
        <pt x="842" y="226" on="1"/>
      </contour>
      <contour>
        <pt x="284" y="368" on="1"/>
        <pt x="700" y="368" on="1"/>
        <pt x="700" y="1447" on="1"/>
        <pt x="284" y="1447" on="1"/>
      </contour>
    </TTGlyph>
    <TTGlyph name="pashtoefinal" xMin="142" yMin="226" xMax="842" yMax="1588">
      <contour>
        <pt x="142" y="226" on="1"/>
        <pt x="142" y="1588" on="1"/>
        <pt x="842" y="1588" on="1"/>
        <pt x="842" y="226" on="1"/>
      </contour>
      <contour>
        <pt x="284" y="368" on="1"/>
        <pt x="700" y="368" on="1"/>
        <pt x="700" y="1447" on="1"/>
        <pt x="284" y="1447" on="1"/>
      </contour>
    </TTGlyph>
    <TTGlyph name="pashtoeinitial" xMin="142" yMin="226" xMax="842" yMax="1588">
      <contour>
        <pt x="142" y="226" on="1"/>
        <pt x="142" y="1588" on="1"/>
        <pt x="842" y="1588" on="1"/>
        <pt x="842" y="226" on="1"/>
      </contour>
      <contour>
        <pt x="284" y="368" on="1"/>
        <pt x="700" y="368" on="1"/>
        <pt x="700" y="1447" on="1"/>
        <pt x="284" y="1447" on="1"/>
      </contour>
    </TTGlyph>
    <TTGlyph name="pashtoemedial" xMin="142" yMin="226" xMax="842" yMax="1588">
      <contour>
        <pt x="142" y="226" on="1"/>
        <pt x="142" y="1588" on="1"/>
        <pt x="842" y="1588" on="1"/>
        <pt x="842" y="226" on="1"/>
      </contour>
      <contour>
        <pt x="284" y="368" on="1"/>
        <pt x="700" y="368" on="1"/>
        <pt x="700" y="1447" on="1"/>
        <pt x="284" y="1447" on="1"/>
      </contour>
    </TTGlyph>
    <TTGlyph name="pehfinalarabic" xMin="142" yMin="226" xMax="842" yMax="1588">
      <contour>
        <pt x="142" y="226" on="1"/>
        <pt x="142" y="1588" on="1"/>
        <pt x="842" y="1588" on="1"/>
        <pt x="842" y="226" on="1"/>
      </contour>
      <contour>
        <pt x="284" y="368" on="1"/>
        <pt x="700" y="368" on="1"/>
        <pt x="700" y="1447" on="1"/>
        <pt x="284" y="1447" on="1"/>
      </contour>
    </TTGlyph>
    <TTGlyph name="pehinitialarabic" xMin="142" yMin="226" xMax="842" yMax="1588">
      <contour>
        <pt x="142" y="226" on="1"/>
        <pt x="142" y="1588" on="1"/>
        <pt x="842" y="1588" on="1"/>
        <pt x="842" y="226" on="1"/>
      </contour>
      <contour>
        <pt x="284" y="368" on="1"/>
        <pt x="700" y="368" on="1"/>
        <pt x="700" y="1447" on="1"/>
        <pt x="284" y="1447" on="1"/>
      </contour>
    </TTGlyph>
    <TTGlyph name="pehmedialarabic" xMin="142" yMin="226" xMax="842" yMax="1588">
      <contour>
        <pt x="142" y="226" on="1"/>
        <pt x="142" y="1588" on="1"/>
        <pt x="842" y="1588" on="1"/>
        <pt x="842" y="226" on="1"/>
      </contour>
      <contour>
        <pt x="284" y="368" on="1"/>
        <pt x="700" y="368" on="1"/>
        <pt x="700" y="1447" on="1"/>
        <pt x="284" y="1447" on="1"/>
      </contour>
    </TTGlyph>
    <TTGlyph name="percent" xMin="142" yMin="226" xMax="842" yMax="1588">
      <contour>
        <pt x="142" y="226" on="1"/>
        <pt x="142" y="1588" on="1"/>
        <pt x="842" y="1588" on="1"/>
        <pt x="842" y="226" on="1"/>
      </contour>
      <contour>
        <pt x="284" y="368" on="1"/>
        <pt x="700" y="368" on="1"/>
        <pt x="700" y="1447" on="1"/>
        <pt x="284" y="1447" on="1"/>
      </contour>
    </TTGlyph>
    <TTGlyph name="period" xMin="142" yMin="226" xMax="842" yMax="1588">
      <contour>
        <pt x="142" y="226" on="1"/>
        <pt x="142" y="1588" on="1"/>
        <pt x="842" y="1588" on="1"/>
        <pt x="842" y="226" on="1"/>
      </contour>
      <contour>
        <pt x="284" y="368" on="1"/>
        <pt x="700" y="368" on="1"/>
        <pt x="700" y="1447" on="1"/>
        <pt x="284" y="1447" on="1"/>
      </contour>
    </TTGlyph>
    <TTGlyph name="plus" xMin="142" yMin="226" xMax="842" yMax="1588">
      <contour>
        <pt x="142" y="226" on="1"/>
        <pt x="142" y="1588" on="1"/>
        <pt x="842" y="1588" on="1"/>
        <pt x="842" y="226" on="1"/>
      </contour>
      <contour>
        <pt x="284" y="368" on="1"/>
        <pt x="700" y="368" on="1"/>
        <pt x="700" y="1447" on="1"/>
        <pt x="284" y="1447" on="1"/>
      </contour>
    </TTGlyph>
    <TTGlyph name="quotedbl" xMin="142" yMin="226" xMax="842" yMax="1588">
      <contour>
        <pt x="142" y="226" on="1"/>
        <pt x="142" y="1588" on="1"/>
        <pt x="842" y="1588" on="1"/>
        <pt x="842" y="226" on="1"/>
      </contour>
      <contour>
        <pt x="284" y="368" on="1"/>
        <pt x="700" y="368" on="1"/>
        <pt x="700" y="1447" on="1"/>
        <pt x="284" y="1447" on="1"/>
      </contour>
    </TTGlyph>
    <TTGlyph name="quotesingle" xMin="142" yMin="226" xMax="842" yMax="1588">
      <contour>
        <pt x="142" y="226" on="1"/>
        <pt x="142" y="1588" on="1"/>
        <pt x="842" y="1588" on="1"/>
        <pt x="842" y="226" on="1"/>
      </contour>
      <contour>
        <pt x="284" y="368" on="1"/>
        <pt x="700" y="368" on="1"/>
        <pt x="700" y="1447" on="1"/>
        <pt x="284" y="1447" on="1"/>
      </contour>
    </TTGlyph>
    <TTGlyph name="rehdotbelowdotabovefinal" xMin="142" yMin="226" xMax="842" yMax="1588">
      <contour>
        <pt x="142" y="226" on="1"/>
        <pt x="142" y="1588" on="1"/>
        <pt x="842" y="1588" on="1"/>
        <pt x="842" y="226" on="1"/>
      </contour>
      <contour>
        <pt x="284" y="368" on="1"/>
        <pt x="700" y="368" on="1"/>
        <pt x="700" y="1447" on="1"/>
        <pt x="284" y="1447" on="1"/>
      </contour>
    </TTGlyph>
    <TTGlyph name="rehringfinal" xMin="142" yMin="226" xMax="842" yMax="1588">
      <contour>
        <pt x="142" y="226" on="1"/>
        <pt x="142" y="1588" on="1"/>
        <pt x="842" y="1588" on="1"/>
        <pt x="842" y="226" on="1"/>
      </contour>
      <contour>
        <pt x="284" y="368" on="1"/>
        <pt x="700" y="368" on="1"/>
        <pt x="700" y="1447" on="1"/>
        <pt x="284" y="1447" on="1"/>
      </contour>
    </TTGlyph>
    <TTGlyph name="rrehfinalarabic" xMin="142" yMin="226" xMax="842" yMax="1588">
      <contour>
        <pt x="142" y="226" on="1"/>
        <pt x="142" y="1588" on="1"/>
        <pt x="842" y="1588" on="1"/>
        <pt x="842" y="226" on="1"/>
      </contour>
      <contour>
        <pt x="284" y="368" on="1"/>
        <pt x="700" y="368" on="1"/>
        <pt x="700" y="1447" on="1"/>
        <pt x="284" y="1447" on="1"/>
      </contour>
    </TTGlyph>
    <TTGlyph name="seendotbelowdotabovefinal" xMin="142" yMin="226" xMax="842" yMax="1588">
      <contour>
        <pt x="142" y="226" on="1"/>
        <pt x="142" y="1588" on="1"/>
        <pt x="842" y="1588" on="1"/>
        <pt x="842" y="226" on="1"/>
      </contour>
      <contour>
        <pt x="284" y="368" on="1"/>
        <pt x="700" y="368" on="1"/>
        <pt x="700" y="1447" on="1"/>
        <pt x="284" y="1447" on="1"/>
      </contour>
    </TTGlyph>
    <TTGlyph name="seendotbelowdotaboveinitial" xMin="142" yMin="226" xMax="842" yMax="1588">
      <contour>
        <pt x="142" y="226" on="1"/>
        <pt x="142" y="1588" on="1"/>
        <pt x="842" y="1588" on="1"/>
        <pt x="842" y="226" on="1"/>
      </contour>
      <contour>
        <pt x="284" y="368" on="1"/>
        <pt x="700" y="368" on="1"/>
        <pt x="700" y="1447" on="1"/>
        <pt x="284" y="1447" on="1"/>
      </contour>
    </TTGlyph>
    <TTGlyph name="seendotbelowdotabovemedial" xMin="142" yMin="226" xMax="842" yMax="1588">
      <contour>
        <pt x="142" y="226" on="1"/>
        <pt x="142" y="1588" on="1"/>
        <pt x="842" y="1588" on="1"/>
        <pt x="842" y="226" on="1"/>
      </contour>
      <contour>
        <pt x="284" y="368" on="1"/>
        <pt x="700" y="368" on="1"/>
        <pt x="700" y="1447" on="1"/>
        <pt x="284" y="1447" on="1"/>
      </contour>
    </TTGlyph>
    <TTGlyph name="shaddadammaarabic" xMin="142" yMin="226" xMax="842" yMax="1588">
      <contour>
        <pt x="142" y="226" on="1"/>
        <pt x="142" y="1588" on="1"/>
        <pt x="842" y="1588" on="1"/>
        <pt x="842" y="226" on="1"/>
      </contour>
      <contour>
        <pt x="284" y="368" on="1"/>
        <pt x="700" y="368" on="1"/>
        <pt x="700" y="1447" on="1"/>
        <pt x="284" y="1447" on="1"/>
      </contour>
    </TTGlyph>
    <TTGlyph name="shaddadammatanarabic" xMin="142" yMin="226" xMax="842" yMax="1588">
      <contour>
        <pt x="142" y="226" on="1"/>
        <pt x="142" y="1588" on="1"/>
        <pt x="842" y="1588" on="1"/>
        <pt x="842" y="226" on="1"/>
      </contour>
      <contour>
        <pt x="284" y="368" on="1"/>
        <pt x="700" y="368" on="1"/>
        <pt x="700" y="1447" on="1"/>
        <pt x="284" y="1447" on="1"/>
      </contour>
    </TTGlyph>
    <TTGlyph name="shaddafathaarabic" xMin="142" yMin="226" xMax="842" yMax="1588">
      <contour>
        <pt x="142" y="226" on="1"/>
        <pt x="142" y="1588" on="1"/>
        <pt x="842" y="1588" on="1"/>
        <pt x="842" y="226" on="1"/>
      </contour>
      <contour>
        <pt x="284" y="368" on="1"/>
        <pt x="700" y="368" on="1"/>
        <pt x="700" y="1447" on="1"/>
        <pt x="284" y="1447" on="1"/>
      </contour>
    </TTGlyph>
    <TTGlyph name="shaddakasraarabic" xMin="142" yMin="226" xMax="842" yMax="1588">
      <contour>
        <pt x="142" y="226" on="1"/>
        <pt x="142" y="1588" on="1"/>
        <pt x="842" y="1588" on="1"/>
        <pt x="842" y="226" on="1"/>
      </contour>
      <contour>
        <pt x="284" y="368" on="1"/>
        <pt x="700" y="368" on="1"/>
        <pt x="700" y="1447" on="1"/>
        <pt x="284" y="1447" on="1"/>
      </contour>
    </TTGlyph>
    <TTGlyph name="shaddakasratanarabic" xMin="142" yMin="226" xMax="842" yMax="1588">
      <contour>
        <pt x="142" y="226" on="1"/>
        <pt x="142" y="1588" on="1"/>
        <pt x="842" y="1588" on="1"/>
        <pt x="842" y="226" on="1"/>
      </contour>
      <contour>
        <pt x="284" y="368" on="1"/>
        <pt x="700" y="368" on="1"/>
        <pt x="700" y="1447" on="1"/>
        <pt x="284" y="1447" on="1"/>
      </contour>
    </TTGlyph>
    <TTGlyph name="slash" xMin="142" yMin="226" xMax="842" yMax="1588">
      <contour>
        <pt x="142" y="226" on="1"/>
        <pt x="142" y="1588" on="1"/>
        <pt x="842" y="1588" on="1"/>
        <pt x="842" y="226" on="1"/>
      </contour>
      <contour>
        <pt x="284" y="368" on="1"/>
        <pt x="700" y="368" on="1"/>
        <pt x="700" y="1447" on="1"/>
        <pt x="284" y="1447" on="1"/>
      </contour>
    </TTGlyph>
    <TTGlyph name="space" xMin="142" yMin="226" xMax="842" yMax="1588">
      <contour>
        <pt x="142" y="226" on="1"/>
        <pt x="142" y="1588" on="1"/>
        <pt x="842" y="1588" on="1"/>
        <pt x="842" y="226" on="1"/>
      </contour>
      <contour>
        <pt x="284" y="368" on="1"/>
        <pt x="700" y="368" on="1"/>
        <pt x="700" y="1447" on="1"/>
        <pt x="284" y="1447" on="1"/>
      </contour>
    </TTGlyph>
    <TTGlyph name="tchehfinalarabic" xMin="142" yMin="226" xMax="842" yMax="1588">
      <contour>
        <pt x="142" y="226" on="1"/>
        <pt x="142" y="1588" on="1"/>
        <pt x="842" y="1588" on="1"/>
        <pt x="842" y="226" on="1"/>
      </contour>
      <contour>
        <pt x="284" y="368" on="1"/>
        <pt x="700" y="368" on="1"/>
        <pt x="700" y="1447" on="1"/>
        <pt x="284" y="1447" on="1"/>
      </contour>
    </TTGlyph>
    <TTGlyph name="tchehinitialarabic" xMin="142" yMin="226" xMax="842" yMax="1588">
      <contour>
        <pt x="142" y="226" on="1"/>
        <pt x="142" y="1588" on="1"/>
        <pt x="842" y="1588" on="1"/>
        <pt x="842" y="226" on="1"/>
      </contour>
      <contour>
        <pt x="284" y="368" on="1"/>
        <pt x="700" y="368" on="1"/>
        <pt x="700" y="1447" on="1"/>
        <pt x="284" y="1447" on="1"/>
      </contour>
    </TTGlyph>
    <TTGlyph name="tchehmedialarabic" xMin="142" yMin="226" xMax="842" yMax="1588">
      <contour>
        <pt x="142" y="226" on="1"/>
        <pt x="142" y="1588" on="1"/>
        <pt x="842" y="1588" on="1"/>
        <pt x="842" y="226" on="1"/>
      </contour>
      <contour>
        <pt x="284" y="368" on="1"/>
        <pt x="700" y="368" on="1"/>
        <pt x="700" y="1447" on="1"/>
        <pt x="284" y="1447" on="1"/>
      </contour>
    </TTGlyph>
    <TTGlyph name="tehhahisolatedarabic" xMin="142" yMin="226" xMax="842" yMax="1588">
      <contour>
        <pt x="142" y="226" on="1"/>
        <pt x="142" y="1588" on="1"/>
        <pt x="842" y="1588" on="1"/>
        <pt x="842" y="226" on="1"/>
      </contour>
      <contour>
        <pt x="284" y="368" on="1"/>
        <pt x="700" y="368" on="1"/>
        <pt x="700" y="1447" on="1"/>
        <pt x="284" y="1447" on="1"/>
      </contour>
    </TTGlyph>
    <TTGlyph name="tehjeemisolatedarabic" xMin="142" yMin="226" xMax="842" yMax="1588">
      <contour>
        <pt x="142" y="226" on="1"/>
        <pt x="142" y="1588" on="1"/>
        <pt x="842" y="1588" on="1"/>
        <pt x="842" y="226" on="1"/>
      </contour>
      <contour>
        <pt x="284" y="368" on="1"/>
        <pt x="700" y="368" on="1"/>
        <pt x="700" y="1447" on="1"/>
        <pt x="284" y="1447" on="1"/>
      </contour>
    </TTGlyph>
    <TTGlyph name="tehmeemisolatedarabic" xMin="142" yMin="226" xMax="842" yMax="1588">
      <contour>
        <pt x="142" y="226" on="1"/>
        <pt x="142" y="1588" on="1"/>
        <pt x="842" y="1588" on="1"/>
        <pt x="842" y="226" on="1"/>
      </contour>
      <contour>
        <pt x="284" y="368" on="1"/>
        <pt x="700" y="368" on="1"/>
        <pt x="700" y="1447" on="1"/>
        <pt x="284" y="1447" on="1"/>
      </contour>
    </TTGlyph>
    <TTGlyph name="tehnoonfinalarabic" xMin="142" yMin="226" xMax="842" yMax="1588">
      <contour>
        <pt x="142" y="226" on="1"/>
        <pt x="142" y="1588" on="1"/>
        <pt x="842" y="1588" on="1"/>
        <pt x="842" y="226" on="1"/>
      </contour>
      <contour>
        <pt x="284" y="368" on="1"/>
        <pt x="700" y="368" on="1"/>
        <pt x="700" y="1447" on="1"/>
        <pt x="284" y="1447" on="1"/>
      </contour>
    </TTGlyph>
    <TTGlyph name="tehringfinal" xMin="142" yMin="226" xMax="842" yMax="1588">
      <contour>
        <pt x="142" y="226" on="1"/>
        <pt x="142" y="1588" on="1"/>
        <pt x="842" y="1588" on="1"/>
        <pt x="842" y="226" on="1"/>
      </contour>
      <contour>
        <pt x="284" y="368" on="1"/>
        <pt x="700" y="368" on="1"/>
        <pt x="700" y="1447" on="1"/>
        <pt x="284" y="1447" on="1"/>
      </contour>
    </TTGlyph>
    <TTGlyph name="tehringinitial" xMin="142" yMin="226" xMax="842" yMax="1588">
      <contour>
        <pt x="142" y="226" on="1"/>
        <pt x="142" y="1588" on="1"/>
        <pt x="842" y="1588" on="1"/>
        <pt x="842" y="226" on="1"/>
      </contour>
      <contour>
        <pt x="284" y="368" on="1"/>
        <pt x="700" y="368" on="1"/>
        <pt x="700" y="1447" on="1"/>
        <pt x="284" y="1447" on="1"/>
      </contour>
    </TTGlyph>
    <TTGlyph name="tehringmedial" xMin="142" yMin="226" xMax="842" yMax="1588">
      <contour>
        <pt x="142" y="226" on="1"/>
        <pt x="142" y="1588" on="1"/>
        <pt x="842" y="1588" on="1"/>
        <pt x="842" y="226" on="1"/>
      </contour>
      <contour>
        <pt x="284" y="368" on="1"/>
        <pt x="700" y="368" on="1"/>
        <pt x="700" y="1447" on="1"/>
        <pt x="284" y="1447" on="1"/>
      </contour>
    </TTGlyph>
    <TTGlyph name="ttehfinalarabic" xMin="142" yMin="226" xMax="842" yMax="1588">
      <contour>
        <pt x="142" y="226" on="1"/>
        <pt x="142" y="1588" on="1"/>
        <pt x="842" y="1588" on="1"/>
        <pt x="842" y="226" on="1"/>
      </contour>
      <contour>
        <pt x="284" y="368" on="1"/>
        <pt x="700" y="368" on="1"/>
        <pt x="700" y="1447" on="1"/>
        <pt x="284" y="1447" on="1"/>
      </contour>
    </TTGlyph>
    <TTGlyph name="ttehinitialarabic" xMin="142" yMin="226" xMax="842" yMax="1588">
      <contour>
        <pt x="142" y="226" on="1"/>
        <pt x="142" y="1588" on="1"/>
        <pt x="842" y="1588" on="1"/>
        <pt x="842" y="226" on="1"/>
      </contour>
      <contour>
        <pt x="284" y="368" on="1"/>
        <pt x="700" y="368" on="1"/>
        <pt x="700" y="1447" on="1"/>
        <pt x="284" y="1447" on="1"/>
      </contour>
    </TTGlyph>
    <TTGlyph name="ttehmedialarabic" xMin="142" yMin="226" xMax="842" yMax="1588">
      <contour>
        <pt x="142" y="226" on="1"/>
        <pt x="142" y="1588" on="1"/>
        <pt x="842" y="1588" on="1"/>
        <pt x="842" y="226" on="1"/>
      </contour>
      <contour>
        <pt x="284" y="368" on="1"/>
        <pt x="700" y="368" on="1"/>
        <pt x="700" y="1447" on="1"/>
        <pt x="284" y="1447" on="1"/>
      </contour>
    </TTGlyph>
    <TTGlyph name="uni000D" xMin="142" yMin="226" xMax="842" yMax="1588">
      <contour>
        <pt x="142" y="226" on="1"/>
        <pt x="142" y="1588" on="1"/>
        <pt x="842" y="1588" on="1"/>
        <pt x="842" y="226" on="1"/>
      </contour>
      <contour>
        <pt x="284" y="368" on="1"/>
        <pt x="700" y="368" on="1"/>
        <pt x="700" y="1447" on="1"/>
        <pt x="284" y="1447" on="1"/>
      </contour>
    </TTGlyph>
    <TTGlyph name="uni00A0" xMin="142" yMin="226" xMax="842" yMax="1588">
      <contour>
        <pt x="142" y="226" on="1"/>
        <pt x="142" y="1588" on="1"/>
        <pt x="842" y="1588" on="1"/>
        <pt x="842" y="226" on="1"/>
      </contour>
      <contour>
        <pt x="284" y="368" on="1"/>
        <pt x="700" y="368" on="1"/>
        <pt x="700" y="1447" on="1"/>
        <pt x="284" y="1447" on="1"/>
      </contour>
    </TTGlyph>
    <TTGlyph name="uni00AD" xMin="142" yMin="226" xMax="842" yMax="1588">
      <contour>
        <pt x="142" y="226" on="1"/>
        <pt x="142" y="1588" on="1"/>
        <pt x="842" y="1588" on="1"/>
        <pt x="842" y="226" on="1"/>
      </contour>
      <contour>
        <pt x="284" y="368" on="1"/>
        <pt x="700" y="368" on="1"/>
        <pt x="700" y="1447" on="1"/>
        <pt x="284" y="1447" on="1"/>
      </contour>
    </TTGlyph>
    <TTGlyph name="uni0653" xMin="142" yMin="226" xMax="842" yMax="1588">
      <contour>
        <pt x="142" y="226" on="1"/>
        <pt x="142" y="1588" on="1"/>
        <pt x="842" y="1588" on="1"/>
        <pt x="842" y="226" on="1"/>
      </contour>
      <contour>
        <pt x="284" y="368" on="1"/>
        <pt x="700" y="368" on="1"/>
        <pt x="700" y="1447" on="1"/>
        <pt x="284" y="1447" on="1"/>
      </contour>
    </TTGlyph>
    <TTGlyph name="uni0654" xMin="142" yMin="226" xMax="842" yMax="1588">
      <contour>
        <pt x="142" y="226" on="1"/>
        <pt x="142" y="1588" on="1"/>
        <pt x="842" y="1588" on="1"/>
        <pt x="842" y="226" on="1"/>
      </contour>
      <contour>
        <pt x="284" y="368" on="1"/>
        <pt x="700" y="368" on="1"/>
        <pt x="700" y="1447" on="1"/>
        <pt x="284" y="1447" on="1"/>
      </contour>
    </TTGlyph>
    <TTGlyph name="uni0655" xMin="142" yMin="226" xMax="842" yMax="1588">
      <contour>
        <pt x="142" y="226" on="1"/>
        <pt x="142" y="1588" on="1"/>
        <pt x="842" y="1588" on="1"/>
        <pt x="842" y="226" on="1"/>
      </contour>
      <contour>
        <pt x="284" y="368" on="1"/>
        <pt x="700" y="368" on="1"/>
        <pt x="700" y="1447" on="1"/>
        <pt x="284" y="1447" on="1"/>
      </contour>
    </TTGlyph>
    <TTGlyph name="uni066B" xMin="142" yMin="226" xMax="842" yMax="1588">
      <contour>
        <pt x="142" y="226" on="1"/>
        <pt x="142" y="1588" on="1"/>
        <pt x="842" y="1588" on="1"/>
        <pt x="842" y="226" on="1"/>
      </contour>
      <contour>
        <pt x="284" y="368" on="1"/>
        <pt x="700" y="368" on="1"/>
        <pt x="700" y="1447" on="1"/>
        <pt x="284" y="1447" on="1"/>
      </contour>
    </TTGlyph>
    <TTGlyph name="uni066C" xMin="142" yMin="226" xMax="842" yMax="1588">
      <contour>
        <pt x="142" y="226" on="1"/>
        <pt x="142" y="1588" on="1"/>
        <pt x="842" y="1588" on="1"/>
        <pt x="842" y="226" on="1"/>
      </contour>
      <contour>
        <pt x="284" y="368" on="1"/>
        <pt x="700" y="368" on="1"/>
        <pt x="700" y="1447" on="1"/>
        <pt x="284" y="1447" on="1"/>
      </contour>
    </TTGlyph>
    <TTGlyph name="uni0671" xMin="142" yMin="226" xMax="842" yMax="1588">
      <contour>
        <pt x="142" y="226" on="1"/>
        <pt x="142" y="1588" on="1"/>
        <pt x="842" y="1588" on="1"/>
        <pt x="842" y="226" on="1"/>
      </contour>
      <contour>
        <pt x="284" y="368" on="1"/>
        <pt x="700" y="368" on="1"/>
        <pt x="700" y="1447" on="1"/>
        <pt x="284" y="1447" on="1"/>
      </contour>
    </TTGlyph>
    <TTGlyph name="uni067C" xMin="142" yMin="226" xMax="842" yMax="1588">
      <contour>
        <pt x="142" y="226" on="1"/>
        <pt x="142" y="1588" on="1"/>
        <pt x="842" y="1588" on="1"/>
        <pt x="842" y="226" on="1"/>
      </contour>
      <contour>
        <pt x="284" y="368" on="1"/>
        <pt x="700" y="368" on="1"/>
        <pt x="700" y="1447" on="1"/>
        <pt x="284" y="1447" on="1"/>
      </contour>
    </TTGlyph>
    <TTGlyph name="uni0681" xMin="142" yMin="226" xMax="842" yMax="1588">
      <contour>
        <pt x="142" y="226" on="1"/>
        <pt x="142" y="1588" on="1"/>
        <pt x="842" y="1588" on="1"/>
        <pt x="842" y="226" on="1"/>
      </contour>
      <contour>
        <pt x="284" y="368" on="1"/>
        <pt x="700" y="368" on="1"/>
        <pt x="700" y="1447" on="1"/>
        <pt x="284" y="1447" on="1"/>
      </contour>
    </TTGlyph>
    <TTGlyph name="uni0685" xMin="142" yMin="226" xMax="842" yMax="1588">
      <contour>
        <pt x="142" y="226" on="1"/>
        <pt x="142" y="1588" on="1"/>
        <pt x="842" y="1588" on="1"/>
        <pt x="842" y="226" on="1"/>
      </contour>
      <contour>
        <pt x="284" y="368" on="1"/>
        <pt x="700" y="368" on="1"/>
        <pt x="700" y="1447" on="1"/>
        <pt x="284" y="1447" on="1"/>
      </contour>
    </TTGlyph>
    <TTGlyph name="uni0689" xMin="142" yMin="226" xMax="842" yMax="1588">
      <contour>
        <pt x="142" y="226" on="1"/>
        <pt x="142" y="1588" on="1"/>
        <pt x="842" y="1588" on="1"/>
        <pt x="842" y="226" on="1"/>
      </contour>
      <contour>
        <pt x="284" y="368" on="1"/>
        <pt x="700" y="368" on="1"/>
        <pt x="700" y="1447" on="1"/>
        <pt x="284" y="1447" on="1"/>
      </contour>
    </TTGlyph>
    <TTGlyph name="uni0693" xMin="142" yMin="226" xMax="842" yMax="1588">
      <contour>
        <pt x="142" y="226" on="1"/>
        <pt x="142" y="1588" on="1"/>
        <pt x="842" y="1588" on="1"/>
        <pt x="842" y="226" on="1"/>
      </contour>
      <contour>
        <pt x="284" y="368" on="1"/>
        <pt x="700" y="368" on="1"/>
        <pt x="700" y="1447" on="1"/>
        <pt x="284" y="1447" on="1"/>
      </contour>
    </TTGlyph>
    <TTGlyph name="uni0696" xMin="142" yMin="226" xMax="842" yMax="1588">
      <contour>
        <pt x="142" y="226" on="1"/>
        <pt x="142" y="1588" on="1"/>
        <pt x="842" y="1588" on="1"/>
        <pt x="842" y="226" on="1"/>
      </contour>
      <contour>
        <pt x="284" y="368" on="1"/>
        <pt x="700" y="368" on="1"/>
        <pt x="700" y="1447" on="1"/>
        <pt x="284" y="1447" on="1"/>
      </contour>
    </TTGlyph>
    <TTGlyph name="uni069A" xMin="142" yMin="226" xMax="842" yMax="1588">
      <contour>
        <pt x="142" y="226" on="1"/>
        <pt x="142" y="1588" on="1"/>
        <pt x="842" y="1588" on="1"/>
        <pt x="842" y="226" on="1"/>
      </contour>
      <contour>
        <pt x="284" y="368" on="1"/>
        <pt x="700" y="368" on="1"/>
        <pt x="700" y="1447" on="1"/>
        <pt x="284" y="1447" on="1"/>
      </contour>
    </TTGlyph>
    <TTGlyph name="uni06A9" xMin="142" yMin="226" xMax="842" yMax="1588">
      <contour>
        <pt x="142" y="226" on="1"/>
        <pt x="142" y="1588" on="1"/>
        <pt x="842" y="1588" on="1"/>
        <pt x="842" y="226" on="1"/>
      </contour>
      <contour>
        <pt x="284" y="368" on="1"/>
        <pt x="700" y="368" on="1"/>
        <pt x="700" y="1447" on="1"/>
        <pt x="284" y="1447" on="1"/>
      </contour>
    </TTGlyph>
    <TTGlyph name="uni06AB" xMin="142" yMin="226" xMax="842" yMax="1588">
      <contour>
        <pt x="142" y="226" on="1"/>
        <pt x="142" y="1588" on="1"/>
        <pt x="842" y="1588" on="1"/>
        <pt x="842" y="226" on="1"/>
      </contour>
      <contour>
        <pt x="284" y="368" on="1"/>
        <pt x="700" y="368" on="1"/>
        <pt x="700" y="1447" on="1"/>
        <pt x="284" y="1447" on="1"/>
      </contour>
    </TTGlyph>
    <TTGlyph name="uni06B7" xMin="142" yMin="226" xMax="842" yMax="1588">
      <contour>
        <pt x="142" y="226" on="1"/>
        <pt x="142" y="1588" on="1"/>
        <pt x="842" y="1588" on="1"/>
        <pt x="842" y="226" on="1"/>
      </contour>
      <contour>
        <pt x="284" y="368" on="1"/>
        <pt x="700" y="368" on="1"/>
        <pt x="700" y="1447" on="1"/>
        <pt x="284" y="1447" on="1"/>
      </contour>
    </TTGlyph>
    <TTGlyph name="uni06BC" xMin="142" yMin="226" xMax="842" yMax="1588">
      <contour>
        <pt x="142" y="226" on="1"/>
        <pt x="142" y="1588" on="1"/>
        <pt x="842" y="1588" on="1"/>
        <pt x="842" y="226" on="1"/>
      </contour>
      <contour>
        <pt x="284" y="368" on="1"/>
        <pt x="700" y="368" on="1"/>
        <pt x="700" y="1447" on="1"/>
        <pt x="284" y="1447" on="1"/>
      </contour>
    </TTGlyph>
    <TTGlyph name="uni06BE" xMin="142" yMin="226" xMax="842" yMax="1588">
      <contour>
        <pt x="142" y="226" on="1"/>
        <pt x="142" y="1588" on="1"/>
        <pt x="842" y="1588" on="1"/>
        <pt x="842" y="226" on="1"/>
      </contour>
      <contour>
        <pt x="284" y="368" on="1"/>
        <pt x="700" y="368" on="1"/>
        <pt x="700" y="1447" on="1"/>
        <pt x="284" y="1447" on="1"/>
      </contour>
    </TTGlyph>
    <TTGlyph name="uni06C2" xMin="142" yMin="226" xMax="842" yMax="1588">
      <contour>
        <pt x="142" y="226" on="1"/>
        <pt x="142" y="1588" on="1"/>
        <pt x="842" y="1588" on="1"/>
        <pt x="842" y="226" on="1"/>
      </contour>
      <contour>
        <pt x="284" y="368" on="1"/>
        <pt x="700" y="368" on="1"/>
        <pt x="700" y="1447" on="1"/>
        <pt x="284" y="1447" on="1"/>
      </contour>
    </TTGlyph>
    <TTGlyph name="uni06C7" xMin="142" yMin="226" xMax="842" yMax="1588">
      <contour>
        <pt x="142" y="226" on="1"/>
        <pt x="142" y="1588" on="1"/>
        <pt x="842" y="1588" on="1"/>
        <pt x="842" y="226" on="1"/>
      </contour>
      <contour>
        <pt x="284" y="368" on="1"/>
        <pt x="700" y="368" on="1"/>
        <pt x="700" y="1447" on="1"/>
        <pt x="284" y="1447" on="1"/>
      </contour>
    </TTGlyph>
    <TTGlyph name="uni06C9" xMin="142" yMin="226" xMax="842" yMax="1588">
      <contour>
        <pt x="142" y="226" on="1"/>
        <pt x="142" y="1588" on="1"/>
        <pt x="842" y="1588" on="1"/>
        <pt x="842" y="226" on="1"/>
      </contour>
      <contour>
        <pt x="284" y="368" on="1"/>
        <pt x="700" y="368" on="1"/>
        <pt x="700" y="1447" on="1"/>
        <pt x="284" y="1447" on="1"/>
      </contour>
    </TTGlyph>
    <TTGlyph name="uni06CC" xMin="142" yMin="226" xMax="842" yMax="1588">
      <contour>
        <pt x="142" y="226" on="1"/>
        <pt x="142" y="1588" on="1"/>
        <pt x="842" y="1588" on="1"/>
        <pt x="842" y="226" on="1"/>
      </contour>
      <contour>
        <pt x="284" y="368" on="1"/>
        <pt x="700" y="368" on="1"/>
        <pt x="700" y="1447" on="1"/>
        <pt x="284" y="1447" on="1"/>
      </contour>
    </TTGlyph>
    <TTGlyph name="uni06CD" xMin="142" yMin="226" xMax="842" yMax="1588">
      <contour>
        <pt x="142" y="226" on="1"/>
        <pt x="142" y="1588" on="1"/>
        <pt x="842" y="1588" on="1"/>
        <pt x="842" y="226" on="1"/>
      </contour>
      <contour>
        <pt x="284" y="368" on="1"/>
        <pt x="700" y="368" on="1"/>
        <pt x="700" y="1447" on="1"/>
        <pt x="284" y="1447" on="1"/>
      </contour>
    </TTGlyph>
    <TTGlyph name="uni06D0" xMin="142" yMin="226" xMax="842" yMax="1588">
      <contour>
        <pt x="142" y="226" on="1"/>
        <pt x="142" y="1588" on="1"/>
        <pt x="842" y="1588" on="1"/>
        <pt x="842" y="226" on="1"/>
      </contour>
      <contour>
        <pt x="284" y="368" on="1"/>
        <pt x="700" y="368" on="1"/>
        <pt x="700" y="1447" on="1"/>
        <pt x="284" y="1447" on="1"/>
      </contour>
    </TTGlyph>
    <TTGlyph name="uni06D1" xMin="142" yMin="226" xMax="842" yMax="1588">
      <contour>
        <pt x="142" y="226" on="1"/>
        <pt x="142" y="1588" on="1"/>
        <pt x="842" y="1588" on="1"/>
        <pt x="842" y="226" on="1"/>
      </contour>
      <contour>
        <pt x="284" y="368" on="1"/>
        <pt x="700" y="368" on="1"/>
        <pt x="700" y="1447" on="1"/>
        <pt x="284" y="1447" on="1"/>
      </contour>
    </TTGlyph>
    <TTGlyph name="uni06D3" xMin="142" yMin="226" xMax="842" yMax="1588">
      <contour>
        <pt x="142" y="226" on="1"/>
        <pt x="142" y="1588" on="1"/>
        <pt x="842" y="1588" on="1"/>
        <pt x="842" y="226" on="1"/>
      </contour>
      <contour>
        <pt x="284" y="368" on="1"/>
        <pt x="700" y="368" on="1"/>
        <pt x="700" y="1447" on="1"/>
        <pt x="284" y="1447" on="1"/>
      </contour>
    </TTGlyph>
    <TTGlyph name="uni06D4" xMin="142" yMin="226" xMax="842" yMax="1588">
      <contour>
        <pt x="142" y="226" on="1"/>
        <pt x="142" y="1588" on="1"/>
        <pt x="842" y="1588" on="1"/>
        <pt x="842" y="226" on="1"/>
      </contour>
      <contour>
        <pt x="284" y="368" on="1"/>
        <pt x="700" y="368" on="1"/>
        <pt x="700" y="1447" on="1"/>
        <pt x="284" y="1447" on="1"/>
      </contour>
    </TTGlyph>
    <TTGlyph name="uni06F0" xMin="142" yMin="226" xMax="842" yMax="1588">
      <contour>
        <pt x="142" y="226" on="1"/>
        <pt x="142" y="1588" on="1"/>
        <pt x="842" y="1588" on="1"/>
        <pt x="842" y="226" on="1"/>
      </contour>
      <contour>
        <pt x="284" y="368" on="1"/>
        <pt x="700" y="368" on="1"/>
        <pt x="700" y="1447" on="1"/>
        <pt x="284" y="1447" on="1"/>
      </contour>
    </TTGlyph>
    <TTGlyph name="uni06F1" xMin="142" yMin="226" xMax="842" yMax="1588">
      <contour>
        <pt x="142" y="226" on="1"/>
        <pt x="142" y="1588" on="1"/>
        <pt x="842" y="1588" on="1"/>
        <pt x="842" y="226" on="1"/>
      </contour>
      <contour>
        <pt x="284" y="368" on="1"/>
        <pt x="700" y="368" on="1"/>
        <pt x="700" y="1447" on="1"/>
        <pt x="284" y="1447" on="1"/>
      </contour>
    </TTGlyph>
    <TTGlyph name="uni06F2" xMin="142" yMin="226" xMax="842" yMax="1588">
      <contour>
        <pt x="142" y="226" on="1"/>
        <pt x="142" y="1588" on="1"/>
        <pt x="842" y="1588" on="1"/>
        <pt x="842" y="226" on="1"/>
      </contour>
      <contour>
        <pt x="284" y="368" on="1"/>
        <pt x="700" y="368" on="1"/>
        <pt x="700" y="1447" on="1"/>
        <pt x="284" y="1447" on="1"/>
      </contour>
    </TTGlyph>
    <TTGlyph name="uni06F3" xMin="142" yMin="226" xMax="842" yMax="1588">
      <contour>
        <pt x="142" y="226" on="1"/>
        <pt x="142" y="1588" on="1"/>
        <pt x="842" y="1588" on="1"/>
        <pt x="842" y="226" on="1"/>
      </contour>
      <contour>
        <pt x="284" y="368" on="1"/>
        <pt x="700" y="368" on="1"/>
        <pt x="700" y="1447" on="1"/>
        <pt x="284" y="1447" on="1"/>
      </contour>
    </TTGlyph>
    <TTGlyph name="uni06F4" xMin="142" yMin="226" xMax="842" yMax="1588">
      <contour>
        <pt x="142" y="226" on="1"/>
        <pt x="142" y="1588" on="1"/>
        <pt x="842" y="1588" on="1"/>
        <pt x="842" y="226" on="1"/>
      </contour>
      <contour>
        <pt x="284" y="368" on="1"/>
        <pt x="700" y="368" on="1"/>
        <pt x="700" y="1447" on="1"/>
        <pt x="284" y="1447" on="1"/>
      </contour>
    </TTGlyph>
    <TTGlyph name="uni06F5" xMin="142" yMin="226" xMax="842" yMax="1588">
      <contour>
        <pt x="142" y="226" on="1"/>
        <pt x="142" y="1588" on="1"/>
        <pt x="842" y="1588" on="1"/>
        <pt x="842" y="226" on="1"/>
      </contour>
      <contour>
        <pt x="284" y="368" on="1"/>
        <pt x="700" y="368" on="1"/>
        <pt x="700" y="1447" on="1"/>
        <pt x="284" y="1447" on="1"/>
      </contour>
    </TTGlyph>
    <TTGlyph name="uni06F6" xMin="142" yMin="226" xMax="842" yMax="1588">
      <contour>
        <pt x="142" y="226" on="1"/>
        <pt x="142" y="1588" on="1"/>
        <pt x="842" y="1588" on="1"/>
        <pt x="842" y="226" on="1"/>
      </contour>
      <contour>
        <pt x="284" y="368" on="1"/>
        <pt x="700" y="368" on="1"/>
        <pt x="700" y="1447" on="1"/>
        <pt x="284" y="1447" on="1"/>
      </contour>
    </TTGlyph>
    <TTGlyph name="uni06F7" xMin="142" yMin="226" xMax="842" yMax="1588">
      <contour>
        <pt x="142" y="226" on="1"/>
        <pt x="142" y="1588" on="1"/>
        <pt x="842" y="1588" on="1"/>
        <pt x="842" y="226" on="1"/>
      </contour>
      <contour>
        <pt x="284" y="368" on="1"/>
        <pt x="700" y="368" on="1"/>
        <pt x="700" y="1447" on="1"/>
        <pt x="284" y="1447" on="1"/>
      </contour>
    </TTGlyph>
    <TTGlyph name="uni06F8" xMin="142" yMin="226" xMax="842" yMax="1588">
      <contour>
        <pt x="142" y="226" on="1"/>
        <pt x="142" y="1588" on="1"/>
        <pt x="842" y="1588" on="1"/>
        <pt x="842" y="226" on="1"/>
      </contour>
      <contour>
        <pt x="284" y="368" on="1"/>
        <pt x="700" y="368" on="1"/>
        <pt x="700" y="1447" on="1"/>
        <pt x="284" y="1447" on="1"/>
      </contour>
    </TTGlyph>
    <TTGlyph name="uni06F9" xMin="142" yMin="226" xMax="842" yMax="1588">
      <contour>
        <pt x="142" y="226" on="1"/>
        <pt x="142" y="1588" on="1"/>
        <pt x="842" y="1588" on="1"/>
        <pt x="842" y="226" on="1"/>
      </contour>
      <contour>
        <pt x="284" y="368" on="1"/>
        <pt x="700" y="368" on="1"/>
        <pt x="700" y="1447" on="1"/>
        <pt x="284" y="1447" on="1"/>
      </contour>
    </TTGlyph>
    <TTGlyph name="uni2010" xMin="349" yMin="-969" xMax="3450" yMax="1911">
      <contour>
        <pt x="3195" y="1452" on="1"/>
        <pt x="3195" y="1402" on="0"/>
        <pt x="2669" y="1090" on="1"/>
        <pt x="2635" y="1090" on="1"/>
        <pt x="2627" y="1094" on="0"/>
        <pt x="2612" y="1104" on="0"/>
        <pt x="2612" y="1120" on="1"/>
        <pt x="2612" y="1171" on="0"/>
        <pt x="2860" y="1321" on="1"/>
        <pt x="3089" y="1460" on="0"/>
        <pt x="3183" y="1488" on="1"/>
        <pt x="3183" y="1484" on="0"/>
        <pt x="3195" y="1467" on="0"/>
      </contour>
      <contour>
        <pt x="2448" y="644" on="1"/>
        <pt x="2448" y="609" on="0"/>
        <pt x="2394" y="537" on="0"/>
        <pt x="2366" y="537" on="1"/>
        <pt x="2337" y="537" on="0"/>
        <pt x="2299" y="570" on="1"/>
        <pt x="2263" y="601" on="0"/>
        <pt x="2263" y="618" on="1"/>
        <pt x="2263" y="652" on="0"/>
        <pt x="2329" y="721" on="0"/>
        <pt x="2356" y="721" on="1"/>
        <pt x="2381" y="721" on="0"/>
        <pt x="2448" y="663" on="0"/>
      </contour>
      <contour>
        <pt x="1414" y="1560" on="1"/>
        <pt x="1414" y="1509" on="0"/>
        <pt x="1367" y="1509" on="1"/>
        <pt x="1355" y="1509" on="0"/>
        <pt x="1262" y="1550" on="0"/>
        <pt x="1250" y="1550" on="1"/>
        <pt x="1239" y="1550" on="0"/>
        <pt x="1109" y="1452" on="1"/>
        <pt x="966" y="1344" on="0"/>
        <pt x="887" y="1315" on="1"/>
        <pt x="853" y="1315" on="1"/>
        <pt x="841" y="1316" on="0"/>
        <pt x="841" y="1340" on="1"/>
        <pt x="841" y="1355" on="0"/>
        <pt x="949" y="1442" on="1"/>
        <pt x="1106" y="1567" on="0"/>
        <pt x="1127" y="1586" on="1"/>
        <pt x="1105" y="1619" on="0"/>
        <pt x="1061" y="1657" on="1"/>
        <pt x="1035" y="1680" on="0"/>
        <pt x="1035" y="1709" on="1"/>
        <pt x="1035" y="1765" on="0"/>
        <pt x="1094" y="1835" on="1"/>
        <pt x="1158" y="1911" on="0"/>
        <pt x="1223" y="1911" on="1"/>
        <pt x="1235" y="1911" on="0"/>
        <pt x="1248" y="1907" on="1"/>
        <pt x="1280" y="1872" on="0"/>
        <pt x="1283" y="1821" on="1"/>
        <pt x="1283" y="1774" on="0"/>
        <pt x="1284" y="1727" on="1"/>
        <pt x="1286" y="1706" on="0"/>
        <pt x="1293" y="1690" on="1"/>
        <pt x="1303" y="1666" on="0"/>
        <pt x="1363" y="1631" on="1"/>
        <pt x="1414" y="1601" on="0"/>
      </contour>
      <contour>
        <pt x="3450" y="371" on="1"/>
        <pt x="3441" y="334" on="0"/>
        <pt x="3414" y="282" on="1"/>
        <pt x="3281" y="170" on="0"/>
        <pt x="3067" y="101" on="1"/>
        <pt x="2866" y="34" on="0"/>
        <pt x="2689" y="34" on="1"/>
        <pt x="2593" y="34" on="0"/>
        <pt x="2436" y="127" on="0"/>
        <pt x="2438" y="127" on="1"/>
        <pt x="2426" y="127" on="0"/>
        <pt x="2390" y="103" on="1"/>
        <pt x="2346" y="75" on="0"/>
        <pt x="2332" y="68" on="1"/>
        <pt x="2229" y="25" on="0"/>
        <pt x="2095" y="25" on="1"/>
        <pt x="1981" y="25" on="0"/>
        <pt x="1869" y="86" on="1"/>
        <pt x="1799" y="125" on="0"/>
        <pt x="1684" y="220" on="1"/>
        <pt x="1566" y="319" on="0"/>
        <pt x="1510" y="352" on="1"/>
        <pt x="1483" y="352" on="1"/>
        <pt x="1479" y="338" on="0"/>
        <pt x="1480" y="224" on="1"/>
        <pt x="1480" y="140" on="0"/>
        <pt x="1400" y="37" on="0"/>
        <pt x="1324" y="16" on="1"/>
        <pt x="1298" y="10" on="0"/>
        <pt x="1194" y="-4" on="1"/>
        <pt x="1179" y="-5" on="0"/>
        <pt x="1161" y="-5" on="1"/>
        <pt x="1140" y="-5" on="0"/>
        <pt x="1055" y="1" on="0"/>
        <pt x="1034" y="1" on="1"/>
        <pt x="975" y="1" on="0"/>
        <pt x="940" y="-19" on="1"/>
        <pt x="926" y="-27" on="0"/>
        <pt x="908" y="-86" on="1"/>
        <pt x="881" y="-174" on="0"/>
        <pt x="875" y="-186" on="1"/>
        <pt x="875" y="-186" on="0"/>
        <pt x="849" y="-200" on="0"/>
        <pt x="830" y="-200" on="1"/>
        <pt x="732" y="-200" on="0"/>
        <pt x="685" y="-52" on="1"/>
        <pt x="677" y="-27" on="0"/>
        <pt x="680" y="18" on="1"/>
        <pt x="684" y="75" on="0"/>
        <pt x="683" y="89" on="1"/>
        <pt x="668" y="116" on="0"/>
        <pt x="636" y="116" on="1"/>
        <pt x="611" y="116" on="0"/>
        <pt x="482" y="61" on="0"/>
        <pt x="474" y="48" on="1"/>
        <pt x="456" y="16" on="0"/>
        <pt x="461" y="-10" on="1"/>
        <pt x="595" y="-850" on="1"/>
        <pt x="595" y="-891" on="0"/>
        <pt x="573" y="-956" on="1"/>
        <pt x="566" y="-957" on="0"/>
        <pt x="549" y="-969" on="1"/>
        <pt x="536" y="-956" on="0"/>
        <pt x="516" y="-934" on="1"/>
        <pt x="369" y="-136" on="0"/>
        <pt x="369" y="-16" on="1"/>
        <pt x="369" y="98" on="0"/>
        <pt x="522" y="263" on="0"/>
        <pt x="650" y="283" on="1"/>
        <pt x="664" y="285" on="0"/>
        <pt x="732" y="321" on="0"/>
        <pt x="743" y="321" on="1"/>
        <pt x="755" y="321" on="0"/>
        <pt x="814" y="272" on="1"/>
        <pt x="883" y="215" on="0"/>
        <pt x="909" y="201" on="1"/>
        <pt x="969" y="168" on="0"/>
        <pt x="1112" y="168" on="1"/>
        <pt x="1393" y="168" on="0"/>
        <pt x="1393" y="239" on="1"/>
        <pt x="1393" y="271" on="0"/>
        <pt x="1308" y="384" on="1"/>
        <pt x="1238" y="478" on="0"/>
        <pt x="1217" y="496" on="1"/>
        <pt x="1162" y="551" on="0"/>
        <pt x="1026" y="667" on="1"/>
        <pt x="927" y="741" on="0"/>
        <pt x="908" y="762" on="1"/>
        <pt x="861" y="810" on="0"/>
        <pt x="861" y="869" on="1"/>
        <pt x="861" y="918" on="0"/>
        <pt x="900" y="993" on="1"/>
        <pt x="945" y="1081" on="0"/>
        <pt x="1017" y="1135" on="1"/>
        <pt x="1103" y="1203" on="0"/>
        <pt x="1222" y="1259" on="1"/>
        <pt x="1347" y="1318" on="0"/>
        <pt x="1715" y="1472" on="1"/>
        <pt x="2144" y="1652" on="0"/>
        <pt x="2192" y="1652" on="1"/>
        <pt x="2254" y="1652" on="0"/>
        <pt x="2254" y="1596" on="1"/>
        <pt x="2254" y="1534" on="0"/>
        <pt x="2009" y="1434" on="1"/>
        <pt x="1973" y="1420" on="0"/>
        <pt x="1697" y="1321" on="1"/>
        <pt x="1566" y="1275" on="0"/>
        <pt x="1308" y="1144" on="1"/>
        <pt x="1215" y="1100" on="0"/>
        <pt x="1121" y="1056" on="1"/>
        <pt x="963" y="976" on="0"/>
        <pt x="963" y="936" on="1"/>
        <pt x="963" y="906" on="0"/>
        <pt x="1131" y="802" on="1"/>
        <pt x="1360" y="659" on="0"/>
        <pt x="1381" y="644" on="1"/>
        <pt x="1552" y="499" on="0"/>
        <pt x="1903" y="241" on="1"/>
        <pt x="1922" y="229" on="0"/>
        <pt x="1983" y="215" on="1"/>
        <pt x="2097" y="188" on="0"/>
        <pt x="2156" y="188" on="1"/>
        <pt x="2254" y="188" on="0"/>
        <pt x="2306" y="206" on="1"/>
        <pt x="2399" y="238" on="0"/>
        <pt x="2471" y="341" on="1"/>
        <pt x="2508" y="341" on="1"/>
        <pt x="2507" y="332" on="0"/>
        <pt x="2507" y="323" on="1"/>
        <pt x="2507" y="263" on="0"/>
        <pt x="2570" y="226" on="1"/>
        <pt x="2624" y="195" on="0"/>
        <pt x="2692" y="195" on="1"/>
        <pt x="2712" y="195" on="0"/>
        <pt x="2728" y="198" on="1"/>
        <pt x="2748" y="208" on="0"/>
        <pt x="2748" y="233" on="1"/>
        <pt x="2748" y="244" on="0"/>
        <pt x="2735" y="303" on="0"/>
        <pt x="2735" y="318" on="1"/>
        <pt x="2735" y="329" on="0"/>
        <pt x="2737" y="338" on="1"/>
        <pt x="2766" y="455" on="0"/>
        <pt x="2861" y="582" on="1"/>
        <pt x="2926" y="669" on="0"/>
        <pt x="3031" y="669" on="1"/>
        <pt x="3103" y="669" on="0"/>
        <pt x="3165" y="628" on="1"/>
        <pt x="3197" y="607" on="0"/>
        <pt x="3276" y="533" on="1"/>
        <pt x="3276" y="496" on="1"/>
        <pt x="3273" y="496" on="0"/>
        <pt x="3256" y="485" on="0"/>
        <pt x="3242" y="485" on="1"/>
        <pt x="3228" y="485" on="0"/>
        <pt x="3101" y="537" on="0"/>
        <pt x="3088" y="537" on="1"/>
        <pt x="2996" y="537" on="0"/>
        <pt x="2857" y="437" on="1"/>
        <pt x="2853" y="424" on="0"/>
        <pt x="2853" y="411" on="1"/>
        <pt x="2853" y="347" on="0"/>
        <pt x="2923" y="291" on="1"/>
        <pt x="2988" y="239" on="0"/>
        <pt x="3047" y="239" on="1"/>
        <pt x="3100" y="239" on="0"/>
        <pt x="3252" y="306" on="1"/>
        <pt x="3401" y="370" on="0"/>
        <pt x="3396" y="371" on="1"/>
      </contour>
      <contour>
        <pt x="738" y="890" on="1"/>
        <pt x="738" y="830" on="0"/>
        <pt x="614" y="760" on="1"/>
        <pt x="507" y="700" on="0"/>
        <pt x="472" y="700" on="1"/>
        <pt x="460" y="700" on="0"/>
        <pt x="411" y="722" on="1"/>
        <pt x="411" y="750" on="1"/>
        <pt x="418" y="756" on="0"/>
        <pt x="513" y="820" on="1"/>
        <pt x="509" y="854" on="0"/>
        <pt x="472" y="854" on="1"/>
        <pt x="437" y="854" on="0"/>
        <pt x="375" y="813" on="1"/>
        <pt x="360" y="824" on="0"/>
        <pt x="350" y="824" on="1"/>
        <pt x="350" y="858" on="1"/>
        <pt x="349" y="875" on="0"/>
        <pt x="433" y="952" on="0"/>
        <pt x="465" y="963" on="1"/>
        <pt x="477" y="967" on="0"/>
        <pt x="533" y="967" on="1"/>
        <pt x="587" y="967" on="0"/>
        <pt x="654" y="947" on="1"/>
        <pt x="738" y="923" on="0"/>
      </contour>
      <contour>
        <pt x="1208" y="1736" on="1"/>
        <pt x="1208" y="1763" on="1"/>
        <pt x="1159" y="1774" on="1"/>
        <pt x="1159" y="1736" on="1"/>
      </contour>
    </TTGlyph>
    <TTGlyph name="uni2011" xMin="349" yMin="-969" xMax="3450" yMax="1911">
      <contour>
        <pt x="3195" y="1452" on="1"/>
        <pt x="3195" y="1402" on="0"/>
        <pt x="2669" y="1090" on="1"/>
        <pt x="2635" y="1090" on="1"/>
        <pt x="2627" y="1094" on="0"/>
        <pt x="2612" y="1104" on="0"/>
        <pt x="2612" y="1120" on="1"/>
        <pt x="2612" y="1171" on="0"/>
        <pt x="2860" y="1321" on="1"/>
        <pt x="3089" y="1460" on="0"/>
        <pt x="3183" y="1488" on="1"/>
        <pt x="3183" y="1484" on="0"/>
        <pt x="3195" y="1467" on="0"/>
      </contour>
      <contour>
        <pt x="2448" y="644" on="1"/>
        <pt x="2448" y="609" on="0"/>
        <pt x="2394" y="537" on="0"/>
        <pt x="2366" y="537" on="1"/>
        <pt x="2337" y="537" on="0"/>
        <pt x="2299" y="570" on="1"/>
        <pt x="2263" y="601" on="0"/>
        <pt x="2263" y="618" on="1"/>
        <pt x="2263" y="652" on="0"/>
        <pt x="2329" y="721" on="0"/>
        <pt x="2356" y="721" on="1"/>
        <pt x="2381" y="721" on="0"/>
        <pt x="2448" y="663" on="0"/>
      </contour>
      <contour>
        <pt x="1414" y="1560" on="1"/>
        <pt x="1414" y="1509" on="0"/>
        <pt x="1367" y="1509" on="1"/>
        <pt x="1355" y="1509" on="0"/>
        <pt x="1262" y="1550" on="0"/>
        <pt x="1250" y="1550" on="1"/>
        <pt x="1239" y="1550" on="0"/>
        <pt x="1109" y="1452" on="1"/>
        <pt x="966" y="1344" on="0"/>
        <pt x="887" y="1315" on="1"/>
        <pt x="853" y="1315" on="1"/>
        <pt x="841" y="1316" on="0"/>
        <pt x="841" y="1340" on="1"/>
        <pt x="841" y="1355" on="0"/>
        <pt x="949" y="1442" on="1"/>
        <pt x="1106" y="1567" on="0"/>
        <pt x="1127" y="1586" on="1"/>
        <pt x="1105" y="1619" on="0"/>
        <pt x="1061" y="1657" on="1"/>
        <pt x="1035" y="1680" on="0"/>
        <pt x="1035" y="1709" on="1"/>
        <pt x="1035" y="1765" on="0"/>
        <pt x="1094" y="1835" on="1"/>
        <pt x="1158" y="1911" on="0"/>
        <pt x="1223" y="1911" on="1"/>
        <pt x="1235" y="1911" on="0"/>
        <pt x="1248" y="1907" on="1"/>
        <pt x="1280" y="1872" on="0"/>
        <pt x="1283" y="1821" on="1"/>
        <pt x="1283" y="1774" on="0"/>
        <pt x="1284" y="1727" on="1"/>
        <pt x="1286" y="1706" on="0"/>
        <pt x="1293" y="1690" on="1"/>
        <pt x="1303" y="1666" on="0"/>
        <pt x="1363" y="1631" on="1"/>
        <pt x="1414" y="1601" on="0"/>
      </contour>
      <contour>
        <pt x="3450" y="371" on="1"/>
        <pt x="3441" y="334" on="0"/>
        <pt x="3414" y="282" on="1"/>
        <pt x="3281" y="170" on="0"/>
        <pt x="3067" y="101" on="1"/>
        <pt x="2866" y="34" on="0"/>
        <pt x="2689" y="34" on="1"/>
        <pt x="2593" y="34" on="0"/>
        <pt x="2436" y="127" on="0"/>
        <pt x="2438" y="127" on="1"/>
        <pt x="2426" y="127" on="0"/>
        <pt x="2390" y="103" on="1"/>
        <pt x="2346" y="75" on="0"/>
        <pt x="2332" y="68" on="1"/>
        <pt x="2229" y="25" on="0"/>
        <pt x="2095" y="25" on="1"/>
        <pt x="1981" y="25" on="0"/>
        <pt x="1869" y="86" on="1"/>
        <pt x="1799" y="125" on="0"/>
        <pt x="1684" y="220" on="1"/>
        <pt x="1566" y="319" on="0"/>
        <pt x="1510" y="352" on="1"/>
        <pt x="1483" y="352" on="1"/>
        <pt x="1479" y="338" on="0"/>
        <pt x="1480" y="224" on="1"/>
        <pt x="1480" y="140" on="0"/>
        <pt x="1400" y="37" on="0"/>
        <pt x="1324" y="16" on="1"/>
        <pt x="1298" y="10" on="0"/>
        <pt x="1194" y="-4" on="1"/>
        <pt x="1179" y="-5" on="0"/>
        <pt x="1161" y="-5" on="1"/>
        <pt x="1140" y="-5" on="0"/>
        <pt x="1055" y="1" on="0"/>
        <pt x="1034" y="1" on="1"/>
        <pt x="975" y="1" on="0"/>
        <pt x="940" y="-19" on="1"/>
        <pt x="926" y="-27" on="0"/>
        <pt x="908" y="-86" on="1"/>
        <pt x="881" y="-174" on="0"/>
        <pt x="875" y="-186" on="1"/>
        <pt x="875" y="-186" on="0"/>
        <pt x="849" y="-200" on="0"/>
        <pt x="830" y="-200" on="1"/>
        <pt x="732" y="-200" on="0"/>
        <pt x="685" y="-52" on="1"/>
        <pt x="677" y="-27" on="0"/>
        <pt x="680" y="18" on="1"/>
        <pt x="684" y="75" on="0"/>
        <pt x="683" y="89" on="1"/>
        <pt x="668" y="116" on="0"/>
        <pt x="636" y="116" on="1"/>
        <pt x="611" y="116" on="0"/>
        <pt x="482" y="61" on="0"/>
        <pt x="474" y="48" on="1"/>
        <pt x="456" y="16" on="0"/>
        <pt x="461" y="-10" on="1"/>
        <pt x="595" y="-850" on="1"/>
        <pt x="595" y="-891" on="0"/>
        <pt x="573" y="-956" on="1"/>
        <pt x="566" y="-957" on="0"/>
        <pt x="549" y="-969" on="1"/>
        <pt x="536" y="-956" on="0"/>
        <pt x="516" y="-934" on="1"/>
        <pt x="369" y="-136" on="0"/>
        <pt x="369" y="-16" on="1"/>
        <pt x="369" y="98" on="0"/>
        <pt x="522" y="263" on="0"/>
        <pt x="650" y="283" on="1"/>
        <pt x="664" y="285" on="0"/>
        <pt x="732" y="321" on="0"/>
        <pt x="743" y="321" on="1"/>
        <pt x="755" y="321" on="0"/>
        <pt x="814" y="272" on="1"/>
        <pt x="883" y="215" on="0"/>
        <pt x="909" y="201" on="1"/>
        <pt x="969" y="168" on="0"/>
        <pt x="1112" y="168" on="1"/>
        <pt x="1393" y="168" on="0"/>
        <pt x="1393" y="239" on="1"/>
        <pt x="1393" y="271" on="0"/>
        <pt x="1308" y="384" on="1"/>
        <pt x="1238" y="478" on="0"/>
        <pt x="1217" y="496" on="1"/>
        <pt x="1162" y="551" on="0"/>
        <pt x="1026" y="667" on="1"/>
        <pt x="927" y="741" on="0"/>
        <pt x="908" y="762" on="1"/>
        <pt x="861" y="810" on="0"/>
        <pt x="861" y="869" on="1"/>
        <pt x="861" y="918" on="0"/>
        <pt x="900" y="993" on="1"/>
        <pt x="945" y="1081" on="0"/>
        <pt x="1017" y="1135" on="1"/>
        <pt x="1103" y="1203" on="0"/>
        <pt x="1222" y="1259" on="1"/>
        <pt x="1347" y="1318" on="0"/>
        <pt x="1715" y="1472" on="1"/>
        <pt x="2144" y="1652" on="0"/>
        <pt x="2192" y="1652" on="1"/>
        <pt x="2254" y="1652" on="0"/>
        <pt x="2254" y="1596" on="1"/>
        <pt x="2254" y="1534" on="0"/>
        <pt x="2009" y="1434" on="1"/>
        <pt x="1973" y="1420" on="0"/>
        <pt x="1697" y="1321" on="1"/>
        <pt x="1566" y="1275" on="0"/>
        <pt x="1308" y="1144" on="1"/>
        <pt x="1215" y="1100" on="0"/>
        <pt x="1121" y="1056" on="1"/>
        <pt x="963" y="976" on="0"/>
        <pt x="963" y="936" on="1"/>
        <pt x="963" y="906" on="0"/>
        <pt x="1131" y="802" on="1"/>
        <pt x="1360" y="659" on="0"/>
        <pt x="1381" y="644" on="1"/>
        <pt x="1552" y="499" on="0"/>
        <pt x="1903" y="241" on="1"/>
        <pt x="1922" y="229" on="0"/>
        <pt x="1983" y="215" on="1"/>
        <pt x="2097" y="188" on="0"/>
        <pt x="2156" y="188" on="1"/>
        <pt x="2254" y="188" on="0"/>
        <pt x="2306" y="206" on="1"/>
        <pt x="2399" y="238" on="0"/>
        <pt x="2471" y="341" on="1"/>
        <pt x="2508" y="341" on="1"/>
        <pt x="2507" y="332" on="0"/>
        <pt x="2507" y="323" on="1"/>
        <pt x="2507" y="263" on="0"/>
        <pt x="2570" y="226" on="1"/>
        <pt x="2624" y="195" on="0"/>
        <pt x="2692" y="195" on="1"/>
        <pt x="2712" y="195" on="0"/>
        <pt x="2728" y="198" on="1"/>
        <pt x="2748" y="208" on="0"/>
        <pt x="2748" y="233" on="1"/>
        <pt x="2748" y="244" on="0"/>
        <pt x="2735" y="303" on="0"/>
        <pt x="2735" y="318" on="1"/>
        <pt x="2735" y="329" on="0"/>
        <pt x="2737" y="338" on="1"/>
        <pt x="2766" y="455" on="0"/>
        <pt x="2861" y="582" on="1"/>
        <pt x="2926" y="669" on="0"/>
        <pt x="3031" y="669" on="1"/>
        <pt x="3103" y="669" on="0"/>
        <pt x="3165" y="628" on="1"/>
        <pt x="3197" y="607" on="0"/>
        <pt x="3276" y="533" on="1"/>
        <pt x="3276" y="496" on="1"/>
        <pt x="3273" y="496" on="0"/>
        <pt x="3256" y="485" on="0"/>
        <pt x="3242" y="485" on="1"/>
        <pt x="3228" y="485" on="0"/>
        <pt x="3101" y="537" on="0"/>
        <pt x="3088" y="537" on="1"/>
        <pt x="2996" y="537" on="0"/>
        <pt x="2857" y="437" on="1"/>
        <pt x="2853" y="424" on="0"/>
        <pt x="2853" y="411" on="1"/>
        <pt x="2853" y="347" on="0"/>
        <pt x="2923" y="291" on="1"/>
        <pt x="2988" y="239" on="0"/>
        <pt x="3047" y="239" on="1"/>
        <pt x="3100" y="239" on="0"/>
        <pt x="3252" y="306" on="1"/>
        <pt x="3401" y="370" on="0"/>
        <pt x="3396" y="371" on="1"/>
      </contour>
      <contour>
        <pt x="738" y="890" on="1"/>
        <pt x="738" y="830" on="0"/>
        <pt x="614" y="760" on="1"/>
        <pt x="507" y="700" on="0"/>
        <pt x="472" y="700" on="1"/>
        <pt x="460" y="700" on="0"/>
        <pt x="411" y="722" on="1"/>
        <pt x="411" y="750" on="1"/>
        <pt x="418" y="756" on="0"/>
        <pt x="513" y="820" on="1"/>
        <pt x="509" y="854" on="0"/>
        <pt x="472" y="854" on="1"/>
        <pt x="437" y="854" on="0"/>
        <pt x="375" y="813" on="1"/>
        <pt x="360" y="824" on="0"/>
        <pt x="350" y="824" on="1"/>
        <pt x="350" y="858" on="1"/>
        <pt x="349" y="875" on="0"/>
        <pt x="433" y="952" on="0"/>
        <pt x="465" y="963" on="1"/>
        <pt x="477" y="967" on="0"/>
        <pt x="533" y="967" on="1"/>
        <pt x="587" y="967" on="0"/>
        <pt x="654" y="947" on="1"/>
        <pt x="738" y="923" on="0"/>
      </contour>
      <contour>
        <pt x="1208" y="1736" on="1"/>
        <pt x="1208" y="1763" on="1"/>
        <pt x="1159" y="1774" on="1"/>
        <pt x="1159" y="1736" on="1"/>
      </contour>
    </TTGlyph>
    <TTGlyph name="uniE000" xMin="0" yMin="0" xMax="1665" yMax="1665">
      <contour>
        <pt x="0" y="1665" on="1"/>
        <pt x="1665" y="1665" on="1"/>
        <pt x="1665" y="0" on="1"/>
        <pt x="0" y="0" on="1"/>
      </contour>
    </TTGlyph>
    <TTGlyph name="uniFB51" xMin="394" yMin="-540" xMax="3169" yMax="1825">
      <contour>
        <pt x="3128" y="1303" on="1"/>
        <pt x="3128" y="1253" on="0"/>
        <pt x="2924" y="1148" on="1"/>
        <pt x="2789" y="1081" on="0"/>
        <pt x="2653" y="1016" on="1"/>
        <pt x="2608" y="1016" on="1"/>
        <pt x="2595" y="1029" on="0"/>
        <pt x="2595" y="1051" on="1"/>
        <pt x="2595" y="1094" on="0"/>
        <pt x="2649" y="1124" on="1"/>
        <pt x="3043" y="1343" on="0"/>
        <pt x="3082" y="1343" on="1"/>
        <pt x="3128" y="1343" on="0"/>
      </contour>
      <contour>
        <pt x="2124" y="1793" on="1"/>
        <pt x="2124" y="1758" on="0"/>
        <pt x="2071" y="1725" on="1"/>
        <pt x="1746" y="1527" on="0"/>
        <pt x="1708" y="1529" on="1"/>
        <pt x="1654" y="1529" on="1"/>
        <pt x="1654" y="1572" on="1"/>
        <pt x="1653" y="1599" on="0"/>
        <pt x="1860" y="1714" on="1"/>
        <pt x="2060" y="1825" on="0"/>
        <pt x="2069" y="1824" on="1"/>
        <pt x="2113" y="1824" on="1"/>
        <pt x="2113" y="1819" on="0"/>
        <pt x="2124" y="1808" on="0"/>
      </contour>
      <contour>
        <pt x="2124" y="1284" on="1"/>
        <pt x="2099" y="1246" on="0"/>
        <pt x="2026" y="1228" on="1"/>
        <pt x="1976" y="1217" on="0"/>
        <pt x="1926" y="1207" on="1"/>
        <pt x="1924" y="1206" on="0"/>
        <pt x="1887" y="1185" on="1"/>
        <pt x="1856" y="1169" on="0"/>
        <pt x="1842" y="1170" on="1"/>
        <pt x="1778" y="1170" on="1"/>
        <pt x="1746" y="1302" on="0"/>
        <pt x="1746" y="1303" on="1"/>
        <pt x="1746" y="1348" on="0"/>
        <pt x="1892" y="1497" on="0"/>
        <pt x="1935" y="1497" on="1"/>
        <pt x="1973" y="1497" on="0"/>
        <pt x="1995" y="1463" on="1"/>
        <pt x="2012" y="1439" on="0"/>
        <pt x="2012" y="1415" on="1"/>
        <pt x="2012" y="1364" on="0"/>
        <pt x="1955" y="1364" on="1"/>
        <pt x="1941" y="1364" on="0"/>
        <pt x="1905" y="1375" on="0"/>
        <pt x="1896" y="1375" on="1"/>
        <pt x="1878" y="1358" on="1"/>
        <pt x="1922" y="1323" on="0"/>
        <pt x="1990" y="1321" on="1"/>
        <pt x="2050" y="1321" on="0"/>
        <pt x="2111" y="1322" on="1"/>
        <pt x="2124" y="1310" on="1"/>
      </contour>
      <contour>
        <pt x="2769" y="866" on="1"/>
        <pt x="2769" y="831" on="0"/>
        <pt x="2668" y="768" on="1"/>
        <pt x="2576" y="710" on="0"/>
        <pt x="2530" y="700" on="1"/>
        <pt x="2467" y="688" on="0"/>
        <pt x="2426" y="688" on="1"/>
        <pt x="2413" y="688" on="0"/>
        <pt x="2295" y="709" on="0"/>
        <pt x="2283" y="709" on="1"/>
        <pt x="2278" y="709" on="0"/>
        <pt x="2213" y="679" on="1"/>
        <pt x="2156" y="679" on="1"/>
        <pt x="2203" y="831" on="0"/>
        <pt x="2299" y="831" on="1"/>
        <pt x="2309" y="831" on="0"/>
        <pt x="2439" y="800" on="0"/>
        <pt x="2452" y="800" on="1"/>
        <pt x="2510" y="800" on="0"/>
        <pt x="2594" y="836" on="1"/>
        <pt x="2673" y="870" on="0"/>
        <pt x="2721" y="912" on="1"/>
        <pt x="2769" y="912" on="1"/>
      </contour>
      <contour>
        <pt x="3117" y="283" on="1"/>
        <pt x="3117" y="134" on="0"/>
        <pt x="3023" y="67" on="1"/>
        <pt x="2976" y="34" on="0"/>
        <pt x="2853" y="16" on="1"/>
        <pt x="2763" y="7" on="0"/>
        <pt x="2672" y="-1" on="1"/>
        <pt x="2426" y="-28" on="0"/>
        <pt x="2299" y="-28" on="1"/>
        <pt x="2131" y="-28" on="0"/>
        <pt x="2065" y="5" on="1"/>
        <pt x="1982" y="48" on="0"/>
        <pt x="1960" y="158" on="1"/>
        <pt x="1955" y="183" on="0"/>
        <pt x="1950" y="334" on="1"/>
        <pt x="1940" y="630" on="0"/>
        <pt x="1905" y="845" on="1"/>
        <pt x="1902" y="864" on="0"/>
        <pt x="1879" y="947" on="1"/>
        <pt x="1858" y="1022" on="0"/>
        <pt x="1858" y="1036" on="1"/>
        <pt x="1858" y="1072" on="0"/>
        <pt x="1901" y="1138" on="1"/>
        <pt x="1937" y="1138" on="1"/>
        <pt x="1984" y="1046" on="0"/>
        <pt x="1994" y="939" on="1"/>
        <pt x="2014" y="790" on="0"/>
        <pt x="2041" y="490" on="1"/>
        <pt x="2041" y="401" on="0"/>
        <pt x="2041" y="313" on="1"/>
        <pt x="2049" y="198" on="0"/>
        <pt x="2111" y="168" on="1"/>
        <pt x="2200" y="125" on="0"/>
        <pt x="2345" y="125" on="1"/>
        <pt x="2523" y="125" on="0"/>
        <pt x="2720" y="146" on="1"/>
        <pt x="3015" y="177" on="0"/>
        <pt x="3015" y="238" on="1"/>
        <pt x="3015" y="247" on="0"/>
        <pt x="2933" y="403" on="0"/>
        <pt x="2933" y="416" on="1"/>
        <pt x="2933" y="441" on="0"/>
        <pt x="2949" y="469" on="1"/>
        <pt x="2967" y="504" on="0"/>
        <pt x="2989" y="504" on="1"/>
        <pt x="3046" y="504" on="0"/>
        <pt x="3087" y="399" on="1"/>
        <pt x="3117" y="322" on="0"/>
      </contour>
      <contour>
        <pt x="2595" y="427" on="1"/>
        <pt x="2595" y="361" on="0"/>
        <pt x="2549" y="299" on="1"/>
        <pt x="2527" y="319" on="0"/>
        <pt x="2521" y="361" on="1"/>
        <pt x="2512" y="420" on="0"/>
        <pt x="2510" y="425" on="1"/>
        <pt x="2503" y="441" on="0"/>
        <pt x="2469" y="514" on="1"/>
        <pt x="2441" y="571" on="0"/>
        <pt x="2441" y="586" on="1"/>
        <pt x="2441" y="613" on="0"/>
        <pt x="2475" y="646" on="1"/>
        <pt x="2517" y="651" on="0"/>
        <pt x="2558" y="561" on="1"/>
        <pt x="2595" y="481" on="0"/>
      </contour>
      <contour>
        <pt x="3169" y="-279" on="1"/>
        <pt x="3169" y="-312" on="0"/>
        <pt x="3136" y="-341" on="1"/>
        <pt x="3106" y="-367" on="0"/>
        <pt x="3082" y="-367" on="1"/>
        <pt x="3069" y="-367" on="0"/>
        <pt x="3007" y="-335" on="0"/>
        <pt x="2994" y="-335" on="1"/>
        <pt x="2982" y="-335" on="0"/>
        <pt x="2915" y="-367" on="0"/>
        <pt x="2902" y="-367" on="1"/>
        <pt x="2877" y="-367" on="0"/>
        <pt x="2789" y="-294" on="0"/>
        <pt x="2789" y="-274" on="1"/>
        <pt x="2789" y="-239" on="0"/>
        <pt x="2825" y="-208" on="1"/>
        <pt x="2857" y="-182" on="0"/>
        <pt x="2887" y="-182" on="1"/>
        <pt x="2900" y="-182" on="0"/>
        <pt x="2961" y="-203" on="0"/>
        <pt x="2974" y="-203" on="1"/>
        <pt x="2984" y="-203" on="0"/>
        <pt x="3051" y="-182" on="0"/>
        <pt x="3066" y="-182" on="1"/>
        <pt x="3101" y="-182" on="0"/>
        <pt x="3169" y="-250" on="0"/>
      </contour>
      <contour>
        <pt x="1551" y="1256" on="1"/>
        <pt x="1551" y="1239" on="0"/>
        <pt x="1516" y="1200" on="0"/>
        <pt x="1500" y="1200" on="1"/>
        <pt x="1487" y="1200" on="0"/>
        <pt x="1430" y="1221" on="0"/>
        <pt x="1418" y="1221" on="1"/>
        <pt x="1401" y="1221" on="0"/>
        <pt x="1151" y="1026" on="0"/>
        <pt x="1052" y="1026" on="1"/>
        <pt x="1034" y="1026" on="0"/>
        <pt x="1018" y="1041" on="1"/>
        <pt x="1095" y="1096" on="0"/>
        <pt x="1172" y="1151" on="1"/>
        <pt x="1305" y="1248" on="0"/>
        <pt x="1305" y="1282" on="1"/>
        <pt x="1305" y="1291" on="0"/>
        <pt x="1234" y="1376" on="0"/>
        <pt x="1234" y="1399" on="1"/>
        <pt x="1234" y="1444" on="0"/>
        <pt x="1288" y="1513" on="1"/>
        <pt x="1348" y="1589" on="0"/>
        <pt x="1407" y="1589" on="1"/>
        <pt x="1459" y="1589" on="0"/>
        <pt x="1475" y="1544" on="1"/>
        <pt x="1484" y="1519" on="0"/>
        <pt x="1484" y="1491" on="1"/>
        <pt x="1484" y="1468" on="0"/>
        <pt x="1468" y="1396" on="0"/>
        <pt x="1468" y="1381" on="1"/>
        <pt x="1468" y="1370" on="0"/>
        <pt x="1475" y="1348" on="0"/>
        <pt x="1515" y="1312" on="1"/>
        <pt x="1551" y="1277" on="0"/>
      </contour>
      <contour>
        <pt x="1151" y="1629" on="1"/>
        <pt x="1145" y="1605" on="0"/>
        <pt x="1136" y="1570" on="1"/>
        <pt x="1017" y="1493" on="0"/>
        <pt x="899" y="1415" on="1"/>
        <pt x="756" y="1325" on="0"/>
        <pt x="655" y="1282" on="1"/>
        <pt x="641" y="1294" on="0"/>
        <pt x="630" y="1294" on="1"/>
        <pt x="630" y="1326" on="1"/>
        <pt x="630" y="1356" on="0"/>
        <pt x="847" y="1494" on="1"/>
        <pt x="1061" y="1629" on="0"/>
        <pt x="1086" y="1629" on="1"/>
      </contour>
      <contour>
        <pt x="1611" y="886" on="1"/>
        <pt x="1612" y="827" on="0"/>
        <pt x="1497" y="768" on="1"/>
        <pt x="1400" y="718" on="0"/>
        <pt x="1357" y="718" on="1"/>
        <pt x="1320" y="718" on="0"/>
        <pt x="1264" y="768" on="0"/>
        <pt x="1264" y="795" on="1"/>
        <pt x="1264" y="828" on="0"/>
        <pt x="1308" y="892" on="1"/>
        <pt x="1318" y="892" on="0"/>
        <pt x="1362" y="852" on="0"/>
        <pt x="1377" y="852" on="1"/>
        <pt x="1412" y="852" on="0"/>
        <pt x="1440" y="932" on="1"/>
        <pt x="1490" y="932" on="0"/>
        <pt x="1524" y="913" on="1"/>
        <pt x="1539" y="933" on="0"/>
        <pt x="1574" y="973" on="1"/>
        <pt x="1611" y="973" on="1"/>
      </contour>
      <contour>
        <pt x="1674" y="192" on="1"/>
        <pt x="1674" y="159" on="0"/>
        <pt x="1655" y="129" on="1"/>
        <pt x="1632" y="94" on="0"/>
        <pt x="1597" y="94" on="1"/>
        <pt x="1584" y="94" on="0"/>
        <pt x="1482" y="135" on="0"/>
        <pt x="1469" y="135" on="1"/>
        <pt x="1327" y="135" on="0"/>
        <pt x="1208" y="55" on="1"/>
        <pt x="1066" y="-40" on="0"/>
        <pt x="1072" y="-197" on="1"/>
        <pt x="1073" y="-210" on="0"/>
        <pt x="1083" y="-271" on="1"/>
        <pt x="1092" y="-328" on="0"/>
        <pt x="1092" y="-362" on="1"/>
        <pt x="1092" y="-392" on="0"/>
        <pt x="1086" y="-413" on="1"/>
        <pt x="1079" y="-443" on="0"/>
        <pt x="986" y="-540" on="0"/>
        <pt x="967" y="-540" on="1"/>
        <pt x="916" y="-540" on="0"/>
        <pt x="878" y="-394" on="1"/>
        <pt x="852" y="-294" on="0"/>
        <pt x="847" y="-218" on="1"/>
        <pt x="851" y="-167" on="0"/>
        <pt x="851" y="-67" on="1"/>
        <pt x="849" y="-63" on="0"/>
        <pt x="837" y="-53" on="1"/>
        <pt x="757" y="-44" on="0"/>
        <pt x="677" y="-36" on="1"/>
        <pt x="567" y="-12" on="0"/>
        <pt x="520" y="66" on="1"/>
        <pt x="475" y="140" on="0"/>
        <pt x="464" y="313" on="1"/>
        <pt x="460" y="426" on="0"/>
        <pt x="455" y="539" on="1"/>
        <pt x="394" y="1047" on="0"/>
        <pt x="394" y="1098" on="1"/>
        <pt x="394" y="1133" on="0"/>
        <pt x="438" y="1199" on="1"/>
        <pt x="484" y="1180" on="0"/>
        <pt x="500" y="1099" on="1"/>
        <pt x="506" y="1035" on="0"/>
        <pt x="513" y="970" on="1"/>
        <pt x="517" y="938" on="0"/>
        <pt x="537" y="587" on="1"/>
        <pt x="551" y="349" on="0"/>
        <pt x="591" y="224" on="1"/>
        <pt x="625" y="115" on="0"/>
        <pt x="809" y="115" on="1"/>
        <pt x="956" y="115" on="0"/>
        <pt x="1031" y="237" on="1"/>
        <pt x="1077" y="237" on="1"/>
        <pt x="1090" y="224" on="0"/>
        <pt x="1090" y="202" on="1"/>
        <pt x="1090" y="186" on="0"/>
        <pt x="1047" y="107" on="0"/>
        <pt x="1046" y="63" on="1"/>
        <pt x="1148" y="161" on="0"/>
        <pt x="1280" y="228" on="1"/>
        <pt x="1420" y="299" on="0"/>
        <pt x="1525" y="299" on="1"/>
        <pt x="1572" y="299" on="0"/>
        <pt x="1617" y="274" on="1"/>
        <pt x="1674" y="243" on="0"/>
      </contour>
      <contour>
        <pt x="1756" y="-351" on="1"/>
        <pt x="1756" y="-384" on="0"/>
        <pt x="1695" y="-438" on="0"/>
        <pt x="1664" y="-438" on="1"/>
        <pt x="1652" y="-438" on="0"/>
        <pt x="1578" y="-407" on="0"/>
        <pt x="1566" y="-407" on="1"/>
        <pt x="1556" y="-407" on="0"/>
        <pt x="1490" y="-448" on="0"/>
        <pt x="1474" y="-448" on="1"/>
        <pt x="1451" y="-448" on="0"/>
        <pt x="1411" y="-415" on="1"/>
        <pt x="1366" y="-379" on="0"/>
        <pt x="1366" y="-351" on="1"/>
        <pt x="1366" y="-331" on="0"/>
        <pt x="1444" y="-253" on="0"/>
        <pt x="1464" y="-253" on="1"/>
        <pt x="1477" y="-253" on="0"/>
        <pt x="1548" y="-294" on="0"/>
        <pt x="1561" y="-294" on="1"/>
        <pt x="1573" y="-294" on="0"/>
        <pt x="1647" y="-253" on="0"/>
        <pt x="1658" y="-253" on="1"/>
        <pt x="1676" y="-253" on="0"/>
        <pt x="1756" y="-332" on="0"/>
      </contour>
      <contour>
        <pt x="1396" y="1432" on="1"/>
        <pt x="1396" y="1449" on="1"/>
        <pt x="1358" y="1449" on="1"/>
        <pt x="1358" y="1432" on="1"/>
      </contour>
      <contour>
        <pt x="1005" y="2" on="1"/>
        <pt x="967" y="-36" on="0"/>
        <pt x="967" y="-49" on="1"/>
        <pt x="967" y="-68" on="0"/>
        <pt x="995" y="-68" on="1"/>
        <pt x="1005" y="-49" on="0"/>
      </contour>
    </TTGlyph>
    <TTGlyph name="uniFB52" xMin="206" yMin="-516" xMax="4250" yMax="1992">
      <contour>
        <pt x="4250" y="1506" on="1"/>
        <pt x="4250" y="1444" on="0"/>
        <pt x="4129" y="1318" on="0"/>
        <pt x="4052" y="1298" on="1"/>
        <pt x="4037" y="1295" on="0"/>
        <pt x="3947" y="1298" on="1"/>
        <pt x="3883" y="1299" on="0"/>
        <pt x="3847" y="1266" on="1"/>
        <pt x="3801" y="1266" on="1"/>
        <pt x="3815" y="1348" on="0"/>
        <pt x="3884" y="1398" on="1"/>
        <pt x="3920" y="1413" on="0"/>
        <pt x="3986" y="1451" on="1"/>
        <pt x="4040" y="1513" on="0"/>
        <pt x="4131" y="1588" on="1"/>
        <pt x="4141" y="1593" on="0"/>
        <pt x="4164" y="1593" on="1"/>
        <pt x="4196" y="1593" on="0"/>
        <pt x="4222" y="1570" on="1"/>
        <pt x="4250" y="1545" on="0"/>
      </contour>
      <contour>
        <pt x="3635" y="1933" on="1"/>
        <pt x="3538" y="1860" on="0"/>
        <pt x="3367" y="1769" on="1"/>
        <pt x="3108" y="1629" on="0"/>
        <pt x="3099" y="1624" on="1"/>
        <pt x="3054" y="1624" on="1"/>
        <pt x="3042" y="1625" on="0"/>
        <pt x="3042" y="1649" on="1"/>
        <pt x="3042" y="1701" on="0"/>
        <pt x="3096" y="1732" on="1"/>
        <pt x="3548" y="1992" on="0"/>
        <pt x="3600" y="1992" on="1"/>
        <pt x="3615" y="1992" on="0"/>
        <pt x="3631" y="1981" on="0"/>
        <pt x="3635" y="1981" on="1"/>
      </contour>
      <contour>
        <pt x="3584" y="1552" on="1"/>
        <pt x="3584" y="1445" on="0"/>
        <pt x="3457" y="1387" on="1"/>
        <pt x="3369" y="1348" on="0"/>
        <pt x="3288" y="1348" on="1"/>
        <pt x="3206" y="1348" on="0"/>
        <pt x="3206" y="1419" on="1"/>
        <pt x="3206" y="1454" on="0"/>
        <pt x="3250" y="1521" on="1"/>
        <pt x="3265" y="1516" on="0"/>
        <pt x="3286" y="1492" on="1"/>
        <pt x="3305" y="1470" on="0"/>
        <pt x="3319" y="1470" on="1"/>
        <pt x="3345" y="1470" on="0"/>
        <pt x="3368" y="1500" on="1"/>
        <pt x="3411" y="1558" on="0"/>
        <pt x="3415" y="1562" on="1"/>
        <pt x="3435" y="1542" on="0"/>
        <pt x="3477" y="1511" on="1"/>
        <pt x="3503" y="1547" on="0"/>
        <pt x="3570" y="1603" on="1"/>
        <pt x="3584" y="1588" on="0"/>
      </contour>
      <contour>
        <pt x="4117" y="196" on="1"/>
        <pt x="4117" y="120" on="0"/>
        <pt x="4084" y="38" on="1"/>
        <pt x="4079" y="38" on="0"/>
        <pt x="4042" y="38" on="0"/>
        <pt x="4037" y="38" on="1"/>
        <pt x="3902" y="999" on="1"/>
        <pt x="3910" y="1046" on="0"/>
        <pt x="3916" y="1094" on="1"/>
        <pt x="3929" y="1154" on="0"/>
        <pt x="3982" y="1172" on="1"/>
      </contour>
      <contour>
        <pt x="3185" y="938" on="1"/>
        <pt x="3185" y="898" on="0"/>
        <pt x="3134" y="845" on="0"/>
        <pt x="3104" y="845" on="1"/>
        <pt x="3076" y="845" on="0"/>
        <pt x="3045" y="870" on="1"/>
        <pt x="3012" y="896" on="0"/>
        <pt x="3012" y="922" on="1"/>
        <pt x="3012" y="943" on="0"/>
        <pt x="3069" y="1009" on="0"/>
        <pt x="3094" y="1009" on="1"/>
        <pt x="3131" y="1009" on="0"/>
        <pt x="3161" y="979" on="1"/>
        <pt x="3185" y="954" on="0"/>
      </contour>
      <contour>
        <pt x="3687" y="231" on="1"/>
        <pt x="3687" y="153" on="0"/>
        <pt x="3650" y="70" on="1"/>
        <pt x="3603" y="-35" on="0"/>
        <pt x="3529" y="-35" on="1"/>
        <pt x="3431" y="-35" on="0"/>
        <pt x="3266" y="119" on="0"/>
        <pt x="3262" y="119" on="1"/>
        <pt x="3249" y="119" on="0"/>
        <pt x="3206" y="82" on="1"/>
        <pt x="3153" y="36" on="0"/>
        <pt x="3142" y="29" on="1"/>
        <pt x="3103" y="5" on="0"/>
        <pt x="2930" y="-35" on="0"/>
        <pt x="2868" y="-35" on="1"/>
        <pt x="2809" y="-35" on="0"/>
        <pt x="2750" y="-16" on="1"/>
        <pt x="2673" y="8" on="0"/>
        <pt x="2673" y="52" on="1"/>
        <pt x="2673" y="77" on="0"/>
        <pt x="2697" y="116" on="1"/>
        <pt x="2723" y="160" on="0"/>
        <pt x="2746" y="160" on="1"/>
        <pt x="2758" y="160" on="0"/>
        <pt x="2901" y="129" on="0"/>
        <pt x="2914" y="129" on="1"/>
        <pt x="3010" y="129" on="0"/>
        <pt x="3101" y="160" on="1"/>
        <pt x="3226" y="203" on="0"/>
        <pt x="3226" y="283" on="1"/>
        <pt x="3226" y="292" on="0"/>
        <pt x="3155" y="591" on="0"/>
        <pt x="3155" y="605" on="1"/>
        <pt x="3155" y="659" on="0"/>
        <pt x="3188" y="712" on="1"/>
        <pt x="3196" y="712" on="0"/>
        <pt x="3221" y="696" on="1"/>
        <pt x="3267" y="519" on="0"/>
        <pt x="3314" y="341" on="1"/>
        <pt x="3383" y="139" on="0"/>
        <pt x="3529" y="139" on="1"/>
        <pt x="3601" y="139" on="0"/>
        <pt x="3595" y="195" on="1"/>
        <pt x="3421" y="1044" on="1"/>
        <pt x="3416" y="1078" on="0"/>
        <pt x="3462" y="1169" on="0"/>
        <pt x="3498" y="1194" on="1"/>
        <pt x="3511" y="1159" on="0"/>
        <pt x="3546" y="1089" on="1"/>
        <pt x="3553" y="1076" on="0"/>
        <pt x="3597" y="1042" on="1"/>
        <pt x="3636" y="1013" on="0"/>
        <pt x="3636" y="999" on="1"/>
        <pt x="3636" y="986" on="0"/>
        <pt x="3584" y="843" on="0"/>
        <pt x="3584" y="830" on="1"/>
        <pt x="3584" y="818" on="0"/>
        <pt x="3687" y="244" on="0"/>
      </contour>
      <contour>
        <pt x="3349" y="-289" on="1"/>
        <pt x="3329" y="-308" on="0"/>
        <pt x="3285" y="-339" on="1"/>
        <pt x="2872" y="-516" on="0"/>
        <pt x="2851" y="-516" on="1"/>
        <pt x="2819" y="-516" on="1"/>
        <pt x="2796" y="-490" on="1"/>
        <pt x="2806" y="-459" on="0"/>
        <pt x="2841" y="-417" on="1"/>
        <pt x="3268" y="-229" on="0"/>
        <pt x="3294" y="-229" on="1"/>
        <pt x="3336" y="-229" on="1"/>
        <pt x="3349" y="-242" on="1"/>
      </contour>
      <contour>
        <pt x="2100" y="1373" on="1"/>
        <pt x="2100" y="1309" on="0"/>
        <pt x="2067" y="1289" on="1"/>
        <pt x="1948" y="1236" on="0"/>
        <pt x="1708" y="1125" on="1"/>
        <pt x="1389" y="973" on="0"/>
        <pt x="643" y="591" on="1"/>
        <pt x="596" y="591" on="1"/>
        <pt x="596" y="634" on="1"/>
        <pt x="595" y="692" on="0"/>
        <pt x="784" y="795" on="1"/>
        <pt x="890" y="850" on="0"/>
        <pt x="997" y="903" on="1"/>
        <pt x="1345" y="1095" on="0"/>
        <pt x="1530" y="1179" on="1"/>
        <pt x="1536" y="1181" on="0"/>
        <pt x="1833" y="1321" on="1"/>
        <pt x="2020" y="1408" on="0"/>
        <pt x="2035" y="1408" on="1"/>
        <pt x="2087" y="1408" on="1"/>
        <pt x="2100" y="1395" on="0"/>
      </contour>
      <contour>
        <pt x="2705" y="-254" on="1"/>
        <pt x="2705" y="-290" on="0"/>
        <pt x="2651" y="-342" on="0"/>
        <pt x="2617" y="-342" on="1"/>
        <pt x="2606" y="-342" on="0"/>
        <pt x="2538" y="-321" on="0"/>
        <pt x="2525" y="-321" on="1"/>
        <pt x="2512" y="-321" on="0"/>
        <pt x="2446" y="-352" on="0"/>
        <pt x="2433" y="-352" on="1"/>
        <pt x="2391" y="-352" on="0"/>
        <pt x="2325" y="-303" on="0"/>
        <pt x="2325" y="-270" on="1"/>
        <pt x="2325" y="-234" on="0"/>
        <pt x="2357" y="-210" on="1"/>
        <pt x="2386" y="-188" on="0"/>
        <pt x="2423" y="-188" on="1"/>
        <pt x="2438" y="-188" on="0"/>
        <pt x="2497" y="-208" on="0"/>
        <pt x="2510" y="-208" on="1"/>
        <pt x="2523" y="-208" on="0"/>
        <pt x="2600" y="-167" on="0"/>
        <pt x="2612" y="-167" on="1"/>
        <pt x="2638" y="-167" on="0"/>
        <pt x="2705" y="-232" on="0"/>
      </contour>
      <contour>
        <pt x="1558" y="385" on="1"/>
        <pt x="1558" y="347" on="0"/>
        <pt x="1524" y="318" on="1"/>
        <pt x="1496" y="292" on="0"/>
        <pt x="1476" y="292" on="1"/>
        <pt x="1443" y="292" on="0"/>
        <pt x="1373" y="356" on="0"/>
        <pt x="1373" y="380" on="1"/>
        <pt x="1373" y="410" on="0"/>
        <pt x="1439" y="477" on="0"/>
        <pt x="1465" y="477" on="1"/>
        <pt x="1501" y="477" on="0"/>
        <pt x="1532" y="434" on="1"/>
        <pt x="1558" y="400" on="0"/>
      </contour>
      <contour>
        <pt x="2705" y="513" on="1"/>
        <pt x="2705" y="404" on="0"/>
        <pt x="2641" y="348" on="1"/>
        <pt x="2603" y="333" on="0"/>
        <pt x="2528" y="300" on="1"/>
        <pt x="2495" y="283" on="0"/>
        <pt x="2480" y="245" on="1"/>
        <pt x="2473" y="215" on="0"/>
        <pt x="2465" y="184" on="1"/>
        <pt x="2434" y="71" on="0"/>
        <pt x="2273" y="-40" on="1"/>
        <pt x="2137" y="-134" on="0"/>
        <pt x="2015" y="-165" on="1"/>
        <pt x="1902" y="-198" on="0"/>
        <pt x="1686" y="-247" on="1"/>
        <pt x="1477" y="-280" on="0"/>
        <pt x="1291" y="-280" on="1"/>
        <pt x="1235" y="-280" on="0"/>
        <pt x="1095" y="-262" on="1"/>
        <pt x="941" y="-243" on="0"/>
        <pt x="938" y="-243" on="1"/>
        <pt x="729" y="-230" on="0"/>
        <pt x="531" y="-117" on="1"/>
        <pt x="299" y="14" on="0"/>
        <pt x="206" y="227" on="1"/>
        <pt x="221" y="242" on="0"/>
        <pt x="237" y="242" on="1"/>
        <pt x="249" y="242" on="0"/>
        <pt x="312" y="189" on="1"/>
        <pt x="389" y="127" on="0"/>
        <pt x="418" y="111" on="1"/>
        <pt x="612" y="2" on="0"/>
        <pt x="735" y="-42" on="1"/>
        <pt x="797" y="-52" on="0"/>
        <pt x="919" y="-80" on="1"/>
        <pt x="1045" y="-117" on="0"/>
        <pt x="1287" y="-117" on="1"/>
        <pt x="1528" y="-117" on="0"/>
        <pt x="1757" y="-83" on="1"/>
        <pt x="1896" y="-63" on="0"/>
        <pt x="2102" y="13" on="1"/>
        <pt x="2397" y="124" on="0"/>
        <pt x="2397" y="237" on="1"/>
        <pt x="2397" y="247" on="0"/>
        <pt x="2315" y="432" on="0"/>
        <pt x="2315" y="446" on="1"/>
        <pt x="2315" y="493" on="0"/>
        <pt x="2360" y="538" on="1"/>
        <pt x="2379" y="532" on="0"/>
        <pt x="2424" y="496" on="1"/>
        <pt x="2460" y="467" on="0"/>
        <pt x="2500" y="467" on="1"/>
        <pt x="2541" y="467" on="0"/>
        <pt x="2582" y="494" on="1"/>
        <pt x="2577" y="514" on="0"/>
        <pt x="2552" y="560" on="1"/>
        <pt x="2530" y="602" on="0"/>
        <pt x="2530" y="615" on="1"/>
        <pt x="2530" y="635" on="0"/>
        <pt x="2545" y="669" on="1"/>
        <pt x="2564" y="713" on="0"/>
        <pt x="2587" y="713" on="1"/>
        <pt x="2637" y="713" on="0"/>
        <pt x="2674" y="634" on="1"/>
        <pt x="2705" y="569" on="0"/>
      </contour>
      <contour>
        <pt x="4118" y="1449" on="1"/>
        <pt x="4112" y="1463" on="1"/>
        <pt x="4088" y="1451" on="1"/>
        <pt x="4088" y="1436" on="1"/>
      </contour>
    </TTGlyph>
    <TTGlyph name="uniFB53" xMin="236" yMin="-430" xMax="3359" yMax="1577">
      <contour>
        <pt x="3247" y="1484" on="1"/>
        <pt x="3247" y="1449" on="0"/>
        <pt x="3114" y="1362" on="1"/>
        <pt x="3035" y="1314" on="0"/>
        <pt x="2957" y="1266" on="1"/>
        <pt x="2890" y="1217" on="0"/>
        <pt x="2751" y="1126" on="1"/>
        <pt x="2717" y="1126" on="1"/>
        <pt x="2703" y="1128" on="0"/>
        <pt x="2703" y="1152" on="1"/>
        <pt x="2703" y="1210" on="0"/>
        <pt x="2944" y="1365" on="1"/>
        <pt x="3143" y="1493" on="0"/>
        <pt x="3222" y="1525" on="1"/>
        <pt x="3247" y="1501" on="0"/>
      </contour>
      <contour>
        <pt x="3359" y="242" on="1"/>
        <pt x="3357" y="206" on="0"/>
        <pt x="3295" y="167" on="1"/>
        <pt x="3243" y="134" on="0"/>
        <pt x="3211" y="129" on="1"/>
        <pt x="3093" y="110" on="0"/>
        <pt x="2976" y="52" on="1"/>
        <pt x="2942" y="52" on="1"/>
        <pt x="2935" y="62" on="0"/>
        <pt x="2942" y="83" on="1"/>
        <pt x="2949" y="110" on="0"/>
        <pt x="2949" y="118" on="1"/>
        <pt x="2949" y="127" on="0"/>
        <pt x="2939" y="133" on="1"/>
        <pt x="2937" y="134" on="0"/>
        <pt x="2936" y="136" on="1"/>
        <pt x="2930" y="143" on="0"/>
        <pt x="2889" y="185" on="1"/>
        <pt x="2867" y="207" on="0"/>
        <pt x="2867" y="230" on="1"/>
        <pt x="2867" y="289" on="0"/>
        <pt x="2973" y="387" on="1"/>
        <pt x="3075" y="481" on="0"/>
        <pt x="3124" y="481" on="1"/>
        <pt x="3162" y="481" on="0"/>
        <pt x="3192" y="446" on="1"/>
        <pt x="3215" y="417" on="0"/>
        <pt x="3215" y="394" on="1"/>
        <pt x="3215" y="367" on="0"/>
        <pt x="3156" y="297" on="0"/>
        <pt x="3134" y="297" on="1"/>
        <pt x="3120" y="297" on="0"/>
        <pt x="3088" y="328" on="0"/>
        <pt x="3076" y="328" on="1"/>
        <pt x="3028" y="328" on="1"/>
        <pt x="3011" y="310" on="1"/>
        <pt x="3022" y="280" on="0"/>
        <pt x="3077" y="256" on="1"/>
        <pt x="3126" y="235" on="0"/>
        <pt x="3165" y="235" on="1"/>
        <pt x="3178" y="235" on="0"/>
        <pt x="3300" y="266" on="0"/>
        <pt x="3313" y="266" on="1"/>
        <pt x="3335" y="266" on="0"/>
      </contour>
      <contour>
        <pt x="2243" y="1439" on="1"/>
        <pt x="2243" y="1395" on="0"/>
        <pt x="2054" y="1268" on="1"/>
        <pt x="1773" y="1080" on="0"/>
        <pt x="1769" y="1076" on="1"/>
        <pt x="1722" y="1076" on="1"/>
        <pt x="1722" y="1133" on="1"/>
        <pt x="1802" y="1216" on="0"/>
        <pt x="1979" y="1330" on="1"/>
        <pt x="2123" y="1423" on="0"/>
        <pt x="2228" y="1474" on="1"/>
        <pt x="2243" y="1460" on="0"/>
      </contour>
      <contour>
        <pt x="2642" y="225" on="1"/>
        <pt x="2642" y="129" on="0"/>
        <pt x="2584" y="103" on="1"/>
        <pt x="2468" y="1018" on="1"/>
        <pt x="2468" y="1080" on="0"/>
        <pt x="2501" y="1146" on="1"/>
        <pt x="2528" y="1146" on="0"/>
        <pt x="2535" y="1133" on="1"/>
        <pt x="2560" y="1018" on="0"/>
        <pt x="2603" y="640" on="1"/>
        <pt x="2642" y="284" on="0"/>
      </contour>
      <contour>
        <pt x="1454" y="1179" on="1"/>
        <pt x="1429" y="1157" on="0"/>
        <pt x="1408" y="1157" on="1"/>
        <pt x="1398" y="1157" on="0"/>
        <pt x="1321" y="1188" on="0"/>
        <pt x="1306" y="1188" on="1"/>
        <pt x="1303" y="1188" on="0"/>
        <pt x="1268" y="1174" on="1"/>
        <pt x="1238" y="1140" on="0"/>
        <pt x="1167" y="1068" on="1"/>
        <pt x="1113" y="1020" on="0"/>
        <pt x="1031" y="963" on="1"/>
        <pt x="945" y="901" on="0"/>
        <pt x="927" y="902" on="1"/>
        <pt x="863" y="902" on="1"/>
        <pt x="859" y="936" on="0"/>
        <pt x="1178" y="1188" on="0"/>
        <pt x="1178" y="1223" on="1"/>
        <pt x="1178" y="1242" on="0"/>
        <pt x="1170" y="1250" on="1"/>
        <pt x="1086" y="1306" on="0"/>
        <pt x="1086" y="1366" on="1"/>
        <pt x="1086" y="1402" on="0"/>
        <pt x="1130" y="1471" on="1"/>
        <pt x="1184" y="1556" on="0"/>
        <pt x="1245" y="1556" on="1"/>
        <pt x="1312" y="1556" on="0"/>
        <pt x="1326" y="1455" on="1"/>
        <pt x="1330" y="1392" on="0"/>
        <pt x="1334" y="1329" on="1"/>
        <pt x="1375" y="1298" on="0"/>
        <pt x="1454" y="1237" on="1"/>
      </contour>
      <contour>
        <pt x="1485" y="696" on="1"/>
        <pt x="1485" y="666" on="0"/>
        <pt x="1451" y="639" on="1"/>
        <pt x="1421" y="614" on="0"/>
        <pt x="1398" y="614" on="1"/>
        <pt x="1301" y="614" on="0"/>
        <pt x="1301" y="691" on="1"/>
        <pt x="1301" y="724" on="0"/>
        <pt x="1352" y="788" on="0"/>
        <pt x="1383" y="788" on="1"/>
        <pt x="1408" y="788" on="0"/>
        <pt x="1485" y="714" on="0"/>
      </contour>
      <contour>
        <pt x="502" y="1443" on="1"/>
        <pt x="502" y="1370" on="0"/>
        <pt x="455" y="1307" on="1"/>
        <pt x="404" y="1239" on="0"/>
        <pt x="333" y="1239" on="1"/>
        <pt x="236" y="1239" on="0"/>
        <pt x="236" y="1331" on="1"/>
        <pt x="236" y="1377" on="0"/>
        <pt x="287" y="1471" on="1"/>
        <pt x="342" y="1577" on="0"/>
        <pt x="390" y="1577" on="1"/>
        <pt x="434" y="1577" on="0"/>
        <pt x="471" y="1523" on="1"/>
        <pt x="502" y="1477" on="0"/>
      </contour>
      <contour>
        <pt x="2223" y="292" on="1"/>
        <pt x="2223" y="123" on="0"/>
        <pt x="2095" y="123" on="1"/>
        <pt x="2016" y="123" on="0"/>
        <pt x="1896" y="184" on="0"/>
        <pt x="1879" y="184" on="1"/>
        <pt x="1875" y="184" on="0"/>
        <pt x="1718" y="51" on="0"/>
        <pt x="1629" y="51" on="1"/>
        <pt x="1557" y="51" on="0"/>
        <pt x="1446" y="133" on="0"/>
        <pt x="1429" y="133" on="1"/>
        <pt x="1416" y="133" on="0"/>
        <pt x="1374" y="108" on="1"/>
        <pt x="1325" y="79" on="0"/>
        <pt x="1308" y="75" on="1"/>
        <pt x="1275" y="63" on="0"/>
        <pt x="1241" y="52" on="1"/>
        <pt x="1194" y="33" on="0"/>
        <pt x="1170" y="2" on="1"/>
        <pt x="1142" y="-57" on="0"/>
        <pt x="1081" y="-152" on="1"/>
        <pt x="885" y="-362" on="0"/>
        <pt x="852" y="-384" on="1"/>
        <pt x="784" y="-430" on="0"/>
        <pt x="620" y="-430" on="1"/>
        <pt x="523" y="-430" on="0"/>
        <pt x="415" y="-407" on="1"/>
        <pt x="373" y="-398" on="0"/>
        <pt x="338" y="-364" on="1"/>
        <pt x="365" y="-317" on="0"/>
        <pt x="390" y="-317" on="1"/>
        <pt x="401" y="-317" on="0"/>
        <pt x="489" y="-327" on="0"/>
        <pt x="502" y="-327" on="1"/>
        <pt x="835" y="-327" on="0"/>
        <pt x="1045" y="-13" on="1"/>
        <pt x="1045" y="2" on="0"/>
        <pt x="1038" y="7" on="1"/>
        <pt x="967" y="21" on="0"/>
        <pt x="895" y="35" on="1"/>
        <pt x="800" y="61" on="0"/>
        <pt x="800" y="143" on="1"/>
        <pt x="800" y="220" on="0"/>
        <pt x="855" y="315" on="1"/>
        <pt x="918" y="419" on="0"/>
        <pt x="984" y="419" on="1"/>
        <pt x="1025" y="419" on="0"/>
        <pt x="1168" y="194" on="0"/>
        <pt x="1209" y="194" on="1"/>
        <pt x="1277" y="194" on="0"/>
        <pt x="1468" y="297" on="0"/>
        <pt x="1470" y="297" on="1"/>
        <pt x="1477" y="297" on="0"/>
        <pt x="1620" y="205" on="0"/>
        <pt x="1665" y="205" on="1"/>
        <pt x="1721" y="205" on="0"/>
        <pt x="1785" y="238" on="1"/>
        <pt x="1787" y="238" on="0"/>
        <pt x="1919" y="402" on="1"/>
        <pt x="2042" y="553" on="0"/>
        <pt x="2100" y="553" on="1"/>
        <pt x="2150" y="553" on="0"/>
        <pt x="2191" y="427" on="1"/>
        <pt x="2223" y="331" on="0"/>
      </contour>
      <contour>
        <pt x="523" y="204" on="1"/>
        <pt x="517" y="164" on="0"/>
        <pt x="490" y="83" on="1"/>
        <pt x="453" y="83" on="1"/>
        <pt x="308" y="1019" on="1"/>
        <pt x="323" y="1080" on="0"/>
        <pt x="361" y="1156" on="1"/>
        <pt x="399" y="1156" on="1"/>
      </contour>
      <contour>
        <pt x="1249" y="1411" on="1"/>
        <pt x="1202" y="1422" on="1"/>
        <pt x="1192" y="1403" on="0"/>
        <pt x="1200" y="1387" on="1"/>
        <pt x="1203" y="1385" on="0"/>
        <pt x="1218" y="1379" on="1"/>
        <pt x="1231" y="1372" on="0"/>
        <pt x="1236" y="1372" on="1"/>
        <pt x="1249" y="1384" on="0"/>
      </contour>
      <contour>
        <pt x="2089" y="309" on="1"/>
        <pt x="2089" y="344" on="1"/>
        <pt x="2073" y="378" on="0"/>
        <pt x="2038" y="378" on="1"/>
        <pt x="2021" y="378" on="0"/>
        <pt x="1998" y="356" on="1"/>
        <pt x="1998" y="319" on="1"/>
        <pt x="2064" y="297" on="0"/>
      </contour>
      <contour>
        <pt x="410" y="1374" on="1"/>
        <pt x="410" y="1420" on="1"/>
        <pt x="387" y="1443" on="0"/>
        <pt x="370" y="1443" on="1"/>
        <pt x="347" y="1443" on="0"/>
        <pt x="319" y="1410" on="1"/>
        <pt x="319" y="1364" on="1"/>
        <pt x="361" y="1350" on="0"/>
      </contour>
      <contour>
        <pt x="994" y="204" on="1"/>
        <pt x="962" y="244" on="0"/>
        <pt x="935" y="244" on="1"/>
        <pt x="923" y="197" on="1"/>
        <pt x="960" y="179" on="0"/>
      </contour>
    </TTGlyph>
    <TTGlyph name="uniFB54" xMin="23" yMin="-471" xMax="2389" yMax="1597">
      <contour>
        <pt x="2256" y="1259" on="1"/>
        <pt x="2256" y="1244" on="0"/>
        <pt x="2244" y="1223" on="0"/>
        <pt x="2244" y="1220" on="1"/>
        <pt x="2241" y="1220" on="0"/>
        <pt x="2214" y="1208" on="0"/>
        <pt x="2200" y="1208" on="1"/>
        <pt x="2188" y="1208" on="0"/>
        <pt x="2115" y="1239" on="0"/>
        <pt x="2102" y="1239" on="1"/>
        <pt x="2094" y="1239" on="0"/>
        <pt x="2060" y="1226" on="1"/>
        <pt x="1954" y="1072" on="0"/>
        <pt x="1688" y="954" on="1"/>
        <pt x="1680" y="955" on="0"/>
        <pt x="1652" y="966" on="1"/>
        <pt x="1666" y="991" on="0"/>
        <pt x="1833" y="1126" on="1"/>
        <pt x="1990" y="1254" on="0"/>
        <pt x="1990" y="1280" on="1"/>
        <pt x="1990" y="1294" on="0"/>
        <pt x="1978" y="1300" on="0"/>
        <pt x="1976" y="1303" on="1"/>
        <pt x="1949" y="1324" on="0"/>
        <pt x="1922" y="1346" on="1"/>
        <pt x="1897" y="1366" on="0"/>
        <pt x="1897" y="1402" on="1"/>
        <pt x="1897" y="1452" on="0"/>
        <pt x="1956" y="1523" on="1"/>
        <pt x="2019" y="1597" on="0"/>
        <pt x="2072" y="1597" on="1"/>
        <pt x="2141" y="1597" on="0"/>
        <pt x="2141" y="1482" on="1"/>
        <pt x="2141" y="1380" on="0"/>
        <pt x="2135" y="1390" on="1"/>
        <pt x="2149" y="1370" on="0"/>
        <pt x="2208" y="1316" on="1"/>
        <pt x="2256" y="1273" on="0"/>
      </contour>
      <contour>
        <pt x="2327" y="829" on="1"/>
        <pt x="2327" y="791" on="0"/>
        <pt x="2294" y="762" on="1"/>
        <pt x="2266" y="737" on="0"/>
        <pt x="2245" y="737" on="1"/>
        <pt x="2234" y="737" on="0"/>
        <pt x="2167" y="768" on="0"/>
        <pt x="2154" y="768" on="1"/>
        <pt x="2141" y="768" on="0"/>
        <pt x="2069" y="727" on="0"/>
        <pt x="2056" y="727" on="1"/>
        <pt x="2023" y="727" on="0"/>
        <pt x="1959" y="782" on="0"/>
        <pt x="1959" y="809" on="1"/>
        <pt x="1959" y="846" on="0"/>
        <pt x="2002" y="872" on="1"/>
        <pt x="2034" y="890" on="0"/>
        <pt x="2051" y="890" on="1"/>
        <pt x="2062" y="890" on="0"/>
        <pt x="2125" y="870" on="0"/>
        <pt x="2138" y="870" on="1"/>
        <pt x="2150" y="870" on="0"/>
        <pt x="2227" y="911" on="0"/>
        <pt x="2241" y="911" on="1"/>
        <pt x="2269" y="911" on="0"/>
        <pt x="2300" y="878" on="1"/>
        <pt x="2327" y="848" on="0"/>
      </contour>
      <contour>
        <pt x="1365" y="1128" on="1"/>
        <pt x="1343" y="1106" on="0"/>
        <pt x="1314" y="1106" on="1"/>
        <pt x="1301" y="1106" on="0"/>
        <pt x="1224" y="1136" on="0"/>
        <pt x="1212" y="1136" on="1"/>
        <pt x="1180" y="1136" on="0"/>
        <pt x="1154" y="1102" on="1"/>
        <pt x="1116" y="1049" on="0"/>
        <pt x="1086" y="1027" on="1"/>
        <pt x="1045" y="997" on="0"/>
        <pt x="859" y="890" on="1"/>
        <pt x="792" y="904" on="1"/>
        <pt x="807" y="937" on="0"/>
        <pt x="845" y="967" on="1"/>
        <pt x="912" y="1013" on="0"/>
        <pt x="980" y="1059" on="1"/>
        <pt x="1099" y="1147" on="0"/>
        <pt x="1099" y="1182" on="1"/>
        <pt x="1099" y="1192" on="0"/>
        <pt x="1095" y="1200" on="1"/>
        <pt x="1071" y="1227" on="0"/>
        <pt x="1045" y="1254" on="1"/>
        <pt x="1017" y="1287" on="0"/>
        <pt x="1017" y="1316" on="1"/>
        <pt x="1017" y="1352" on="0"/>
        <pt x="1067" y="1427" on="1"/>
        <pt x="1126" y="1516" on="0"/>
        <pt x="1185" y="1516" on="1"/>
        <pt x="1271" y="1516" on="0"/>
        <pt x="1271" y="1377" on="1"/>
        <pt x="1271" y="1302" on="0"/>
        <pt x="1259" y="1285" on="1"/>
        <pt x="1281" y="1246" on="0"/>
        <pt x="1365" y="1186" on="1"/>
      </contour>
      <contour>
        <pt x="2389" y="256" on="1"/>
        <pt x="2389" y="188" on="0"/>
        <pt x="2383" y="169" on="1"/>
        <pt x="2368" y="115" on="0"/>
        <pt x="2304" y="75" on="1"/>
        <pt x="2273" y="55" on="0"/>
        <pt x="2191" y="36" on="1"/>
        <pt x="2105" y="16" on="0"/>
        <pt x="2069" y="-3" on="1"/>
        <pt x="2050" y="-13" on="0"/>
        <pt x="1996" y="-140" on="1"/>
        <pt x="1956" y="-231" on="0"/>
        <pt x="1849" y="-335" on="1"/>
        <pt x="1736" y="-444" on="0"/>
        <pt x="1648" y="-468" on="1"/>
        <pt x="1638" y="-471" on="0"/>
        <pt x="1529" y="-471" on="1"/>
        <pt x="1420" y="-471" on="0"/>
        <pt x="1389" y="-464" on="1"/>
        <pt x="1383" y="-462" on="0"/>
        <pt x="1212" y="-407" on="1"/>
        <pt x="1212" y="-370" on="1"/>
        <pt x="1218" y="-368" on="0"/>
        <pt x="1365" y="-368" on="1"/>
        <pt x="1497" y="-368" on="0"/>
        <pt x="1650" y="-294" on="1"/>
        <pt x="1833" y="-208" on="0"/>
        <pt x="1918" y="-65" on="1"/>
        <pt x="1918" y="-37" on="1"/>
        <pt x="1886" y="-15" on="0"/>
        <pt x="1747" y="2" on="0"/>
        <pt x="1724" y="17" on="1"/>
        <pt x="1683" y="43" on="0"/>
        <pt x="1683" y="118" on="1"/>
        <pt x="1683" y="184" on="0"/>
        <pt x="1732" y="276" on="1"/>
        <pt x="1788" y="378" on="0"/>
        <pt x="1847" y="378" on="1"/>
        <pt x="1903" y="378" on="0"/>
        <pt x="2019" y="164" on="0"/>
        <pt x="2072" y="164" on="1"/>
        <pt x="2168" y="164" on="0"/>
        <pt x="2288" y="233" on="1"/>
        <pt x="2291" y="238" on="0"/>
        <pt x="2291" y="247" on="1"/>
        <pt x="2291" y="277" on="0"/>
        <pt x="2184" y="428" on="0"/>
        <pt x="2184" y="451" on="1"/>
        <pt x="2184" y="473" on="0"/>
        <pt x="2201" y="510" on="1"/>
        <pt x="2221" y="553" on="0"/>
        <pt x="2245" y="553" on="1"/>
        <pt x="2304" y="553" on="0"/>
        <pt x="2352" y="406" on="1"/>
        <pt x="2389" y="295" on="0"/>
      </contour>
      <contour>
        <pt x="925" y="1296" on="1"/>
        <pt x="907" y="1226" on="0"/>
        <pt x="752" y="1153" on="1"/>
        <pt x="608" y="1085" on="0"/>
        <pt x="520" y="1085" on="1"/>
        <pt x="509" y="1085" on="0"/>
        <pt x="472" y="1095" on="0"/>
        <pt x="459" y="1095" on="1"/>
        <pt x="400" y="1095" on="0"/>
        <pt x="376" y="1075" on="1"/>
        <pt x="341" y="1044" on="0"/>
        <pt x="311" y="1035" on="1"/>
        <pt x="311" y="1079" on="1"/>
        <pt x="311" y="1113" on="0"/>
        <pt x="365" y="1173" on="1"/>
        <pt x="415" y="1229" on="0"/>
        <pt x="433" y="1229" on="1"/>
        <pt x="442" y="1229" on="0"/>
        <pt x="530" y="1208" on="0"/>
        <pt x="556" y="1208" on="1"/>
        <pt x="680" y="1208" on="0"/>
        <pt x="900" y="1321" on="1"/>
      </contour>
      <contour>
        <pt x="279" y="1331" on="1"/>
        <pt x="279" y="1262" on="0"/>
        <pt x="168" y="1147" on="0"/>
        <pt x="106" y="1147" on="1"/>
        <pt x="67" y="1147" on="0"/>
        <pt x="25" y="1189" on="1"/>
        <pt x="23" y="1199" on="0"/>
        <pt x="23" y="1211" on="1"/>
        <pt x="23" y="1297" on="0"/>
        <pt x="62" y="1380" on="1"/>
        <pt x="106" y="1475" on="0"/>
        <pt x="167" y="1475" on="1"/>
        <pt x="218" y="1475" on="0"/>
        <pt x="253" y="1410" on="1"/>
        <pt x="279" y="1361" on="0"/>
      </contour>
      <contour>
        <pt x="1375" y="-138" on="1"/>
        <pt x="1375" y="-174" on="0"/>
        <pt x="1342" y="-202" on="1"/>
        <pt x="1314" y="-225" on="0"/>
        <pt x="1294" y="-225" on="1"/>
        <pt x="1265" y="-225" on="0"/>
        <pt x="1212" y="-175" on="0"/>
        <pt x="1212" y="-154" on="1"/>
        <pt x="1212" y="-126" on="0"/>
        <pt x="1235" y="-95" on="1"/>
        <pt x="1261" y="-61" on="0"/>
        <pt x="1294" y="-61" on="1"/>
        <pt x="1324" y="-61" on="0"/>
        <pt x="1351" y="-89" on="1"/>
        <pt x="1375" y="-115" on="0"/>
      </contour>
      <contour>
        <pt x="1406" y="276" on="1"/>
        <pt x="1406" y="169" on="0"/>
        <pt x="1355" y="118" on="1"/>
        <pt x="1321" y="84" on="0"/>
        <pt x="1231" y="57" on="1"/>
        <pt x="1121" y="22" on="0"/>
        <pt x="1076" y="-3" on="1"/>
        <pt x="1062" y="-11" on="0"/>
        <pt x="1038" y="-73" on="1"/>
        <pt x="1008" y="-147" on="0"/>
        <pt x="991" y="-172" on="1"/>
        <pt x="869" y="-349" on="0"/>
        <pt x="791" y="-405" on="1"/>
        <pt x="700" y="-471" on="0"/>
        <pt x="551" y="-471" on="1"/>
        <pt x="305" y="-471" on="0"/>
        <pt x="229" y="-385" on="1"/>
        <pt x="229" y="-367" on="0"/>
        <pt x="252" y="-353" on="1"/>
        <pt x="261" y="-348" on="0"/>
        <pt x="300" y="-348" on="1"/>
        <pt x="313" y="-348" on="0"/>
        <pt x="451" y="-368" on="0"/>
        <pt x="464" y="-368" on="1"/>
        <pt x="581" y="-368" on="0"/>
        <pt x="731" y="-277" on="1"/>
        <pt x="893" y="-178" on="0"/>
        <pt x="955" y="-46" on="1"/>
        <pt x="926" y="-16" on="0"/>
        <pt x="857" y="0" on="1"/>
        <pt x="777" y="16" on="0"/>
        <pt x="756" y="29" on="1"/>
        <pt x="709" y="57" on="0"/>
        <pt x="709" y="128" on="1"/>
        <pt x="709" y="198" on="0"/>
        <pt x="760" y="287" on="1"/>
        <pt x="818" y="389" on="0"/>
        <pt x="889" y="389" on="1"/>
        <pt x="941" y="389" on="0"/>
        <pt x="1044" y="174" on="0"/>
        <pt x="1104" y="174" on="1"/>
        <pt x="1210" y="174" on="0"/>
        <pt x="1304" y="242" on="1"/>
        <pt x="1305" y="248" on="0"/>
        <pt x="1305" y="256" on="1"/>
        <pt x="1305" y="292" on="0"/>
        <pt x="1221" y="447" on="0"/>
        <pt x="1221" y="486" on="1"/>
        <pt x="1221" y="523" on="0"/>
        <pt x="1256" y="573" on="1"/>
        <pt x="1317" y="543" on="0"/>
        <pt x="1363" y="446" on="1"/>
        <pt x="1406" y="356" on="0"/>
      </contour>
      <contour>
        <pt x="259" y="148" on="1"/>
        <pt x="259" y="93" on="0"/>
        <pt x="237" y="21" on="1"/>
        <pt x="232" y="21" on="0"/>
        <pt x="205" y="11" on="0"/>
        <pt x="200" y="11" on="1"/>
        <pt x="85" y="910" on="1"/>
        <pt x="79" y="939" on="0"/>
        <pt x="91" y="984" on="1"/>
        <pt x="105" y="1033" on="0"/>
        <pt x="130" y="1054" on="1"/>
        <pt x="161" y="1042" on="0"/>
        <pt x="177" y="927" on="1"/>
        <pt x="185" y="835" on="0"/>
        <pt x="194" y="743" on="1"/>
        <pt x="196" y="727" on="0"/>
        <pt x="234" y="467" on="1"/>
        <pt x="259" y="292" on="0"/>
      </contour>
      <contour>
        <pt x="1201" y="1358" on="1"/>
        <pt x="1178" y="1382" on="1"/>
        <pt x="1150" y="1382" on="1"/>
        <pt x="1125" y="1382" on="0"/>
        <pt x="1121" y="1370" on="1"/>
        <pt x="1121" y="1332" on="1"/>
        <pt x="1143" y="1332" on="0"/>
        <pt x="1164" y="1311" on="1"/>
        <pt x="1201" y="1329" on="0"/>
      </contour>
      <contour>
        <pt x="1856" y="179" on="1"/>
        <pt x="1851" y="184" on="0"/>
        <pt x="1825" y="199" on="0"/>
        <pt x="1820" y="205" on="1"/>
        <pt x="1803" y="179" on="0"/>
        <pt x="1819" y="164" on="1"/>
        <pt x="1842" y="164" on="0"/>
      </contour>
      <contour>
        <pt x="187" y="1293" on="1"/>
        <pt x="187" y="1330" on="1"/>
        <pt x="183" y="1330" on="0"/>
        <pt x="157" y="1341" on="0"/>
        <pt x="142" y="1341" on="1"/>
        <pt x="119" y="1341" on="0"/>
        <pt x="95" y="1294" on="1"/>
        <pt x="119" y="1270" on="1"/>
        <pt x="165" y="1270" on="0"/>
      </contour>
      <contour>
        <pt x="882" y="191" on="1"/>
        <pt x="882" y="209" on="1"/>
        <pt x="845" y="209" on="1"/>
        <pt x="845" y="191" on="1"/>
      </contour>
      <contour>
        <pt x="2078" y="1465" on="1"/>
        <pt x="2055" y="1488" on="1"/>
        <pt x="2027" y="1488" on="1"/>
        <pt x="2001" y="1488" on="0"/>
        <pt x="1997" y="1476" on="1"/>
        <pt x="1997" y="1439" on="1"/>
        <pt x="2019" y="1439" on="0"/>
        <pt x="2041" y="1417" on="1"/>
        <pt x="2078" y="1435" on="0"/>
      </contour>
    </TTGlyph>
    <TTGlyph name="uniFB55" xMin="216" yMin="-585" xMax="1854" yMax="1564">
      <contour>
        <pt x="1087" y="1534" on="1"/>
        <pt x="1087" y="1489" on="0"/>
        <pt x="844" y="1328" on="1"/>
        <pt x="612" y="1174" on="0"/>
        <pt x="599" y="1176" on="1"/>
        <pt x="546" y="1176" on="1"/>
        <pt x="534" y="1177" on="0"/>
        <pt x="534" y="1201" on="1"/>
        <pt x="534" y="1237" on="0"/>
        <pt x="739" y="1376" on="1"/>
        <pt x="905" y="1489" on="0"/>
        <pt x="1039" y="1564" on="1"/>
        <pt x="1074" y="1564" on="1"/>
        <pt x="1087" y="1551" on="0"/>
      </contour>
      <contour>
        <pt x="1537" y="161" on="1"/>
        <pt x="1537" y="99" on="0"/>
        <pt x="1515" y="51" on="1"/>
        <pt x="1509" y="50" on="0"/>
        <pt x="1492" y="39" on="1"/>
        <pt x="1448" y="50" on="0"/>
        <pt x="1451" y="177" on="1"/>
        <pt x="1453" y="245" on="0"/>
        <pt x="1431" y="392" on="1"/>
        <pt x="1342" y="976" on="1"/>
        <pt x="1342" y="1052" on="0"/>
        <pt x="1398" y="1103" on="1"/>
        <pt x="1433" y="1087" on="0"/>
        <pt x="1441" y="1027" on="1"/>
        <pt x="1471" y="796" on="0"/>
        <pt x="1501" y="566" on="1"/>
        <pt x="1537" y="284" on="0"/>
      </contour>
      <contour>
        <pt x="1752" y="-200" on="1"/>
        <pt x="1733" y="-241" on="0"/>
        <pt x="1697" y="-255" on="1"/>
        <pt x="1609" y="-276" on="0"/>
        <pt x="1439" y="-330" on="1"/>
        <pt x="1424" y="-317" on="0"/>
        <pt x="1415" y="-317" on="1"/>
        <pt x="1416" y="-313" on="0"/>
        <pt x="1416" y="-308" on="1"/>
        <pt x="1416" y="-289" on="0"/>
        <pt x="1374" y="-193" on="0"/>
        <pt x="1374" y="-186" on="1"/>
        <pt x="1374" y="-157" on="0"/>
        <pt x="1510" y="-12" on="0"/>
        <pt x="1542" y="-12" on="1"/>
        <pt x="1609" y="-12" on="0"/>
        <pt x="1609" y="-78" on="1"/>
        <pt x="1609" y="-126" on="0"/>
        <pt x="1577" y="-129" on="1"/>
        <pt x="1511" y="-135" on="0"/>
        <pt x="1496" y="-142" on="1"/>
        <pt x="1496" y="-145" on="0"/>
        <pt x="1498" y="-158" on="1"/>
        <pt x="1524" y="-186" on="0"/>
        <pt x="1573" y="-186" on="1"/>
        <pt x="1572" y="-186" on="0"/>
        <pt x="1659" y="-176" on="0"/>
        <pt x="1739" y="-176" on="1"/>
        <pt x="1743" y="-185" on="0"/>
      </contour>
      <contour>
        <pt x="1854" y="-380" on="1"/>
        <pt x="1854" y="-425" on="0"/>
        <pt x="1781" y="-453" on="1"/>
        <pt x="1730" y="-470" on="0"/>
        <pt x="1677" y="-486" on="1"/>
        <pt x="1456" y="-585" on="0"/>
        <pt x="1418" y="-585" on="1"/>
        <pt x="1376" y="-585" on="1"/>
        <pt x="1363" y="-571" on="0"/>
        <pt x="1363" y="-555" on="1"/>
        <pt x="1363" y="-502" on="0"/>
        <pt x="1572" y="-421" on="1"/>
        <pt x="1758" y="-349" on="0"/>
        <pt x="1789" y="-350" on="1"/>
        <pt x="1841" y="-350" on="1"/>
        <pt x="1854" y="-363" on="0"/>
      </contour>
      <contour>
        <pt x="1220" y="-37" on="1"/>
        <pt x="1220" y="-177" on="0"/>
        <pt x="944" y="-300" on="1"/>
        <pt x="717" y="-401" on="0"/>
        <pt x="595" y="-401" on="1"/>
        <pt x="435" y="-401" on="0"/>
        <pt x="332" y="-325" on="1"/>
        <pt x="216" y="-239" on="0"/>
        <pt x="216" y="-84" on="1"/>
        <pt x="216" y="-7" on="0"/>
        <pt x="259" y="98" on="1"/>
        <pt x="305" y="208" on="0"/>
        <pt x="353" y="233" on="1"/>
        <pt x="390" y="233" on="0"/>
        <pt x="390" y="202" on="1"/>
        <pt x="390" y="192" on="0"/>
        <pt x="360" y="140" on="1"/>
        <pt x="327" y="84" on="0"/>
        <pt x="321" y="63" on="1"/>
        <pt x="318" y="54" on="0"/>
        <pt x="318" y="3" on="1"/>
        <pt x="318" y="-122" on="0"/>
        <pt x="425" y="-186" on="1"/>
        <pt x="508" y="-237" on="0"/>
        <pt x="626" y="-237" on="1"/>
        <pt x="708" y="-237" on="0"/>
        <pt x="963" y="-154" on="0"/>
        <pt x="1046" y="-98" on="1"/>
        <pt x="1027" y="-48" on="0"/>
        <pt x="949" y="-45" on="1"/>
        <pt x="851" y="-40" on="0"/>
        <pt x="800" y="0" on="1"/>
        <pt x="799" y="8" on="0"/>
        <pt x="799" y="17" on="1"/>
        <pt x="799" y="75" on="0"/>
        <pt x="881" y="112" on="1"/>
        <pt x="1003" y="169" on="0"/>
        <pt x="1025" y="188" on="1"/>
        <pt x="965" y="578" on="0"/>
        <pt x="939" y="822" on="1"/>
        <pt x="937" y="843" on="0"/>
        <pt x="914" y="910" on="1"/>
        <pt x="892" y="973" on="0"/>
        <pt x="892" y="985" on="1"/>
        <pt x="892" y="1059" on="0"/>
        <pt x="966" y="1195" on="1"/>
        <pt x="1000" y="1189" on="0"/>
        <pt x="1007" y="1140" on="1"/>
        <pt x="1012" y="1105" on="0"/>
        <pt x="1017" y="1070" on="1"/>
        <pt x="1034" y="1037" on="0"/>
        <pt x="1066" y="1008" on="1"/>
        <pt x="1087" y="989" on="0"/>
        <pt x="1087" y="955" on="1"/>
        <pt x="1087" y="942" on="0"/>
        <pt x="1035" y="814" on="0"/>
        <pt x="1035" y="801" on="1"/>
        <pt x="1035" y="756" on="0"/>
        <pt x="1048" y="690" on="1"/>
        <pt x="1108" y="376" on="0"/>
        <pt x="1108" y="258" on="1"/>
        <pt x="1108" y="188" on="0"/>
        <pt x="1099" y="117" on="1"/>
        <pt x="1103" y="112" on="0"/>
        <pt x="1176" y="75" on="1"/>
        <pt x="1188" y="69" on="0"/>
        <pt x="1205" y="23" on="1"/>
        <pt x="1220" y="-19" on="0"/>
      </contour>
    </TTGlyph>
</ttFont>
